<svg version="1.1" id="Layer_1" xmlns="http://www.w3.org/2000/svg" xmlns:xlink="http://www.w3.org/1999/xlink" x="0px" y="0px"
	 width="100%" viewBox="0 0 1822 2051" enable-background="new 0 0 1822 2051" xml:space="preserve">
<path fill="#659AD2" opacity="1.000000" stroke="none" 
	d="
M0.999985,1483.000000 
	C1.000000,1178.975098 1.000000,874.950195 1.356222,570.755005 
	C2.115193,570.074951 2.733926,569.623047 2.888347,569.046692 
	C5.313654,559.994080 7.007623,550.682129 10.187533,541.907349 
	C18.831890,518.053711 32.228321,496.955536 49.300926,478.219727 
	C62.728745,463.483856 79.808510,453.765228 96.852890,444.020050 
	C109.118080,437.007355 121.360252,429.954285 133.600723,422.898468 
	C147.396652,414.946075 161.178375,406.969025 174.967773,399.005280 
	C187.212982,391.933319 199.458633,384.862122 211.706924,377.795502 
	C227.755051,368.536591 243.795380,359.264130 259.858643,350.031555 
	C275.922089,340.798859 292.031219,331.645630 308.080444,322.388428 
	C324.408295,312.970551 340.686554,303.466858 356.988159,294.003448 
	C370.900024,285.927307 384.813019,277.852997 398.727722,269.781677 
	C412.362366,261.872864 425.974396,253.924484 439.643646,246.075851 
	C451.768829,239.113815 463.993683,232.325195 476.111938,225.351212 
	C492.438812,215.955200 508.705719,206.454987 524.998169,196.999161 
	C538.909180,188.925491 552.816284,180.844971 566.731934,172.779221 
	C580.222351,164.959930 593.700134,157.118469 607.223083,149.355728 
	C619.493896,142.311783 631.842590,135.403381 644.112793,128.358307 
	C660.584900,118.900703 677.021240,109.380791 693.460144,99.865639 
	C707.114441,91.962288 720.736084,84.002403 734.398132,76.112495 
	C750.708130,66.693329 767.057251,57.341942 783.367676,47.923481 
	C795.486389,40.925518 807.488159,33.720604 819.697510,26.885597 
	C828.476562,21.970917 837.368591,17.209047 846.469360,12.930321 
	C857.856384,7.576736 869.938416,4.368486 882.468018,2.897097 
	C883.044983,2.829345 883.492310,1.657570 884.000000,0.999992 
	C902.358215,1.000000 920.716492,1.000000 939.244324,1.356380 
	C940.255615,2.138535 941.063171,2.840128 941.943970,2.948903 
	C956.255188,4.716183 970.071045,8.542650 982.815186,15.114143 
	C999.428589,23.680832 1015.638855,33.048119 1031.853394,42.365192 
	C1056.644409,56.610310 1081.256958,71.165375 1106.010376,85.476204 
	C1122.186890,94.828445 1138.532959,103.887497 1154.706055,113.245461 
	C1179.607422,127.653549 1204.395630,142.257156 1229.289062,156.678909 
	C1246.998779,166.938858 1264.833252,176.983490 1282.557373,187.218796 
	C1305.776489,200.627457 1328.916382,214.173798 1352.140259,227.574203 
	C1365.941162,235.537506 1379.885620,243.252136 1393.681152,251.224747 
	C1414.511230,263.262787 1435.269165,275.425659 1456.054688,287.540833 
	C1472.061523,296.870667 1488.028198,306.269958 1504.077759,315.525787 
	C1520.117432,324.776001 1536.237793,333.886139 1552.322632,343.057983 
	C1564.188232,349.823944 1576.089722,356.528168 1587.910889,363.370911 
	C1606.185059,373.949036 1624.375977,384.670807 1642.655884,395.239166 
	C1656.735840,403.379486 1670.932251,411.318054 1685.014893,419.453857 
	C1703.152832,429.932526 1721.455811,440.152954 1739.245239,451.197327 
	C1749.725586,457.703918 1759.767334,465.093201 1769.211426,473.031189 
	C1775.572388,478.377502 1781.014404,485.026062 1786.008789,491.731628 
	C1791.203125,498.705750 1795.364624,506.448975 1799.641113,513.961304 
	C1799.006714,514.215393 1798.700073,514.348572 1798.412476,514.514771 
	C1684.118774,580.526367 1569.830322,646.547363 1455.521851,712.533386 
	C1449.781494,715.847046 1443.866943,718.858704 1437.784302,721.777832 
	C1380.503052,624.430298 1302.752197,548.491455 1204.151978,494.120911 
	C1128.024414,452.142334 1046.519165,427.406616 959.773071,421.058472 
	C935.614319,419.290527 911.240845,419.662598 886.990845,420.192352 
	C868.271057,420.601318 849.472412,421.898621 830.912964,424.348083 
	C760.414307,433.652405 693.473633,454.685913 630.691406,488.148895 
	C505.250732,555.008911 413.396606,653.449341 355.467072,783.278198 
	C325.459351,850.529968 309.312286,921.295959 305.265472,994.676208 
	C303.949921,1018.531006 305.112793,1042.579102 306.201630,1066.490356 
	C306.957672,1083.093018 308.931671,1099.701782 311.384918,1116.155029 
	C322.380737,1189.900269 346.296509,1259.262939 382.967285,1324.209473 
	C383.931305,1325.916870 384.570709,1327.807617 385.236115,1329.973389 
	C383.437469,1331.406372 381.804352,1332.548218 380.085175,1333.541138 
	C274.384460,1394.586914 168.677536,1455.621826 62.968563,1516.653198 
	C50.032146,1524.122192 37.081688,1531.566895 23.950102,1539.130981 
	C14.386338,1522.057495 6.980660,1504.593384 3.096010,1485.726562 
	C2.888084,1484.716675 1.720700,1483.904297 0.999985,1483.000000 
z"/>
<path fill="#00315E" opacity="1.000000" stroke="none" 
	d="
M0.999985,1483.468628 
	C1.720700,1483.904297 2.888084,1484.716675 3.096010,1485.726562 
	C6.980660,1504.593384 14.386338,1522.057495 23.950102,1539.130981 
	C37.081688,1531.566895 50.032146,1524.122192 62.968563,1516.653198 
	C168.677536,1455.621826 274.384460,1394.586914 380.085175,1333.541138 
	C381.804352,1332.548218 383.437469,1331.406372 385.500854,1330.163330 
	C391.361694,1338.722046 396.673920,1347.555420 402.327393,1356.164673 
	C467.114685,1454.825073 552.970276,1529.157959 660.109192,1578.720215 
	C675.684387,1585.925171 691.722290,1592.185669 707.771851,1598.289795 
	C718.527039,1602.380371 729.618896,1605.634644 740.673279,1608.876953 
	C752.994324,1612.490601 765.313293,1616.301636 777.868469,1618.881226 
	C795.553406,1622.514648 813.388855,1625.588135 831.282898,1627.981689 
	C848.165100,1630.239990 865.175720,1631.998047 882.184204,1632.754883 
	C916.283386,1634.272217 950.391968,1634.031982 984.277771,1629.046509 
	C1001.612061,1626.496216 1019.097717,1624.542847 1036.176880,1620.783813 
	C1067.803711,1613.822754 1098.925903,1604.951538 1129.154541,1593.080200 
	C1262.238525,1540.815308 1365.217407,1453.272217 1438.226318,1330.274414 
	C1454.026245,1339.224609 1469.550903,1347.957764 1484.982544,1356.851807 
	C1515.990845,1374.723877 1546.941162,1392.696289 1577.928833,1410.604004 
	C1609.493164,1428.844849 1641.072388,1447.059937 1672.647583,1465.281982 
	C1701.628296,1482.006714 1730.632812,1498.689697 1759.585571,1515.462524 
	C1773.116699,1523.301270 1786.550171,1531.308472 1800.049927,1539.587646 
	C1793.313477,1549.272217 1786.757202,1558.763428 1779.750000,1567.909058 
	C1768.793335,1582.209351 1754.563232,1592.691284 1739.087769,1601.598145 
	C1724.185303,1610.174805 1709.239380,1618.675903 1694.351685,1627.277710 
	C1677.045410,1637.276978 1659.801025,1647.383057 1642.493530,1657.379883 
	C1627.461914,1666.062012 1612.359253,1674.620850 1597.325439,1683.299438 
	C1579.870972,1693.375244 1562.470947,1703.545410 1545.021973,1713.630981 
	C1528.563721,1723.143677 1512.062256,1732.581665 1495.599121,1742.086304 
	C1479.714233,1751.257080 1463.864502,1760.488770 1447.979980,1769.660156 
	C1431.517944,1779.165283 1415.023193,1788.614014 1398.560303,1798.117676 
	C1382.675659,1807.287720 1366.827759,1816.521729 1350.937012,1825.681030 
	C1334.610107,1835.091675 1318.233276,1844.415283 1301.910645,1853.833008 
	C1283.592529,1864.402100 1265.322388,1875.054077 1247.009277,1885.631836 
	C1230.547729,1895.140137 1214.045288,1904.577271 1197.581299,1914.081421 
	C1181.692017,1923.253906 1165.840088,1932.490967 1149.951294,1941.664673 
	C1133.495117,1951.166260 1117.004395,1960.608032 1100.547485,1970.108398 
	C1084.655884,1979.282227 1068.802734,1988.522827 1052.905884,1997.687500 
	C1036.586304,2007.095825 1020.039429,2016.127197 1003.946960,2025.907593 
	C985.079163,2037.374634 965.383545,2046.298218 943.294373,2049.305420 
	C940.459839,2049.691406 937.761475,2051.077393 935.000000,2052.000000 
	C623.757263,2052.000000 312.514526,2052.000000 1.000000,2052.000000 
	C1.000000,1862.645874 1.000000,1673.291504 0.999985,1483.468628 
z"/>
<path fill="#00599C" opacity="1.000000" stroke="none" 
	d="
M1800.027954,1539.239380 
	C1786.550171,1531.308472 1773.116699,1523.301270 1759.585571,1515.462524 
	C1730.632812,1498.689697 1701.628296,1482.006714 1672.647583,1465.281982 
	C1641.072388,1447.059937 1609.493164,1428.844849 1577.928833,1410.604004 
	C1546.941162,1392.696289 1515.990845,1374.723877 1484.982544,1356.851807 
	C1469.550903,1347.957764 1454.026245,1339.224609 1437.929932,1330.093262 
	C1433.028687,1327.229004 1428.762451,1324.653564 1424.450684,1322.156860 
	C1342.755493,1274.852417 1261.059448,1227.550049 1179.321777,1180.318970 
	C1177.843628,1179.464844 1175.859009,1179.487305 1174.014160,1178.760498 
	C1173.170776,1177.573608 1172.580811,1176.456299 1171.654297,1175.919434 
	C1147.616943,1161.988647 1123.545776,1148.116455 1099.478271,1134.237793 
	C1072.096924,1118.448120 1044.713013,1102.662964 1017.331482,1086.873657 
	C994.705811,1073.826660 972.051514,1060.828979 949.469543,1047.706787 
	C937.252808,1040.607666 925.160950,1033.293701 913.240906,1025.822510 
	C976.615112,989.071167 1039.770508,952.589966 1102.902466,916.068604 
	C1126.962646,902.149963 1150.969360,888.139343 1175.358643,874.115845 
	C1176.300415,873.753479 1176.895142,873.465271 1177.465820,873.135315 
	C1250.034790,831.172546 1322.611816,789.224182 1395.160034,747.225769 
	C1409.508179,738.919556 1423.745239,730.420959 1438.033569,722.010986 
	C1443.866943,718.858704 1449.781494,715.847046 1455.521851,712.533386 
	C1569.830322,646.547363 1684.118774,580.526367 1798.412476,514.514771 
	C1798.700073,514.348572 1799.006714,514.215393 1799.955078,514.130127 
	C1810.543335,530.759949 1817.405029,548.500244 1821.074341,567.482300 
	C1821.253906,568.410889 1822.337402,569.164795 1823.000000,570.000000 
	C1823.000000,874.020935 1823.000000,1178.041870 1822.601318,1482.448486 
	C1821.831909,1483.331543 1821.220947,1483.786865 1821.125122,1484.332520 
	C1817.669678,1504.013062 1809.962036,1522.052490 1800.027954,1539.239380 
M1450.062866,924.996338 
	C1428.294678,924.996338 1406.526489,924.996338 1384.146729,924.996338 
	C1384.146729,947.714539 1384.146729,969.921082 1384.146729,992.552673 
	C1361.440430,992.552673 1339.346924,992.552673 1317.272217,992.552673 
	C1317.272217,1015.219421 1317.272217,1037.448120 1317.272217,1060.063110 
	C1339.691040,1060.063110 1361.779419,1060.063110 1384.496338,1060.063110 
	C1384.496338,1082.630981 1384.496338,1104.817261 1384.496338,1127.070679 
	C1407.223145,1127.070679 1429.314941,1127.070679 1451.987915,1127.070679 
	C1451.987915,1104.615967 1451.987915,1082.409790 1451.987915,1059.819580 
	C1474.654419,1059.819580 1496.741455,1059.819580 1518.939819,1059.819580 
	C1518.939819,1037.188477 1518.939819,1014.954163 1518.939819,992.290283 
	C1496.544678,992.290283 1474.454834,992.290283 1451.774902,992.290283 
	C1451.774902,969.915222 1451.774902,947.968079 1451.888306,925.494568 
	C1451.588257,925.378784 1451.288086,925.263000 1450.062866,924.996338 
M1670.500000,924.973267 
	C1659.576416,924.973267 1648.652832,924.973267 1637.271729,924.973267 
	C1637.271729,947.722656 1637.271729,969.806458 1637.271729,992.514160 
	C1614.606201,992.514160 1592.402832,992.514160 1570.374756,992.514160 
	C1570.374756,1015.374023 1570.374756,1037.599976 1570.374756,1060.191895 
	C1592.882690,1060.191895 1614.988281,1060.191895 1637.523071,1060.191895 
	C1637.523071,1082.666504 1637.523071,1104.772217 1637.523071,1126.972046 
	C1660.180298,1126.972046 1682.399902,1126.972046 1705.029297,1126.972046 
	C1705.029297,1104.532471 1705.029297,1082.445312 1705.029297,1059.802979 
	C1727.653198,1059.802979 1749.871460,1059.802979 1772.049805,1059.802979 
	C1772.049805,1037.128174 1772.049805,1015.015747 1772.049805,992.251953 
	C1749.587646,992.251953 1727.389404,992.251953 1704.799561,992.251953 
	C1704.799561,969.512451 1704.799561,947.423767 1704.799561,924.973267 
	C1693.432495,924.973267 1682.466187,924.973267 1670.500000,924.973267 
z"/>
<path fill="#000000" opacity="1.000000" stroke="none" 
	d="
M1800.049927,1539.587646 
	C1809.962036,1522.052490 1817.669678,1504.013062 1821.125122,1484.332520 
	C1821.220947,1483.786865 1821.831909,1483.331543 1822.601318,1482.916992 
	C1823.000000,1672.609741 1823.000000,1862.219360 1823.000000,2052.000000 
	C1527.312500,2052.000000 1231.624878,2052.000000 935.468628,2052.000000 
	C937.761475,2051.077393 940.459839,2049.691406 943.294373,2049.305420 
	C965.383545,2046.298218 985.079163,2037.374634 1003.946960,2025.907593 
	C1020.039429,2016.127197 1036.586304,2007.095825 1052.905884,1997.687500 
	C1068.802734,1988.522827 1084.655884,1979.282227 1100.547485,1970.108398 
	C1117.004395,1960.608032 1133.495117,1951.166260 1149.951294,1941.664673 
	C1165.840088,1932.490967 1181.692017,1923.253906 1197.581299,1914.081421 
	C1214.045288,1904.577271 1230.547729,1895.140137 1247.009277,1885.631836 
	C1265.322388,1875.054077 1283.592529,1864.402100 1301.910645,1853.833008 
	C1318.233276,1844.415283 1334.610107,1835.091675 1350.937012,1825.681030 
	C1366.827759,1816.521729 1382.675659,1807.287720 1398.560303,1798.117676 
	C1415.023193,1788.614014 1431.517944,1779.165283 1447.979980,1769.660156 
	C1463.864502,1760.488770 1479.714233,1751.257080 1495.599121,1742.086304 
	C1512.062256,1732.581665 1528.563721,1723.143677 1545.021973,1713.630981 
	C1562.470947,1703.545410 1579.870972,1693.375244 1597.325439,1683.299438 
	C1612.359253,1674.620850 1627.461914,1666.062012 1642.493530,1657.379883 
	C1659.801025,1647.383057 1677.045410,1637.276978 1694.351685,1627.277710 
	C1709.239380,1618.675903 1724.185303,1610.174805 1739.087769,1601.598145 
	C1754.563232,1592.691284 1768.793335,1582.209351 1779.750000,1567.909058 
	C1786.757202,1558.763428 1793.313477,1549.272217 1800.049927,1539.587646 
z"/>
<path fill="#000000" opacity="1.000000" stroke="none" 
	d="
M883.531372,0.999992 
	C883.492310,1.657570 883.044983,2.829345 882.468018,2.897097 
	C869.938416,4.368486 857.856384,7.576736 846.469360,12.930321 
	C837.368591,17.209047 828.476562,21.970917 819.697510,26.885597 
	C807.488159,33.720604 795.486389,40.925518 783.367676,47.923481 
	C767.057251,57.341942 750.708130,66.693329 734.398132,76.112495 
	C720.736084,84.002403 707.114441,91.962288 693.460144,99.865639 
	C677.021240,109.380791 660.584900,118.900703 644.112793,128.358307 
	C631.842590,135.403381 619.493896,142.311783 607.223083,149.355728 
	C593.700134,157.118469 580.222351,164.959930 566.731934,172.779221 
	C552.816284,180.844971 538.909180,188.925491 524.998169,196.999161 
	C508.705719,206.454987 492.438812,215.955200 476.111938,225.351212 
	C463.993683,232.325195 451.768829,239.113815 439.643646,246.075851 
	C425.974396,253.924484 412.362366,261.872864 398.727722,269.781677 
	C384.813019,277.852997 370.900024,285.927307 356.988159,294.003448 
	C340.686554,303.466858 324.408295,312.970551 308.080444,322.388428 
	C292.031219,331.645630 275.922089,340.798859 259.858643,350.031555 
	C243.795380,359.264130 227.755051,368.536591 211.706924,377.795502 
	C199.458633,384.862122 187.212982,391.933319 174.967773,399.005280 
	C161.178375,406.969025 147.396652,414.946075 133.600723,422.898468 
	C121.360252,429.954285 109.118080,437.007355 96.852890,444.020050 
	C79.808510,453.765228 62.728745,463.483856 49.300926,478.219727 
	C32.228321,496.955536 18.831890,518.053711 10.187533,541.907349 
	C7.007623,550.682129 5.313654,559.994080 2.888347,569.046692 
	C2.733926,569.623047 2.115193,570.074951 1.356222,570.292358 
	C1.000000,380.390472 1.000000,190.780945 1.000000,1.000000 
	C295.020874,1.000000 589.041748,1.000000 883.531372,0.999992 
z"/>
<path fill="#000000" opacity="1.000000" stroke="none" 
	d="
M1823.000000,569.531372 
	C1822.337402,569.164795 1821.253906,568.410889 1821.074341,567.482300 
	C1817.405029,548.500244 1810.543335,530.759949 1800.291748,514.024597 
	C1795.364624,506.448975 1791.203125,498.705750 1786.008789,491.731628 
	C1781.014404,485.026062 1775.572388,478.377502 1769.211426,473.031189 
	C1759.767334,465.093201 1749.725586,457.703918 1739.245239,451.197327 
	C1721.455811,440.152954 1703.152832,429.932526 1685.014893,419.453857 
	C1670.932251,411.318054 1656.735840,403.379486 1642.655884,395.239166 
	C1624.375977,384.670807 1606.185059,373.949036 1587.910889,363.370911 
	C1576.089722,356.528168 1564.188232,349.823944 1552.322632,343.057983 
	C1536.237793,333.886139 1520.117432,324.776001 1504.077759,315.525787 
	C1488.028198,306.269958 1472.061523,296.870667 1456.054688,287.540833 
	C1435.269165,275.425659 1414.511230,263.262787 1393.681152,251.224747 
	C1379.885620,243.252136 1365.941162,235.537506 1352.140259,227.574203 
	C1328.916382,214.173798 1305.776489,200.627457 1282.557373,187.218796 
	C1264.833252,176.983490 1246.998779,166.938858 1229.289062,156.678909 
	C1204.395630,142.257156 1179.607422,127.653549 1154.706055,113.245461 
	C1138.532959,103.887497 1122.186890,94.828445 1106.010376,85.476204 
	C1081.256958,71.165375 1056.644409,56.610310 1031.853394,42.365192 
	C1015.638855,33.048119 999.428589,23.680832 982.815186,15.114143 
	C970.071045,8.542650 956.255188,4.716183 941.943970,2.948903 
	C941.063171,2.840128 940.255615,2.138535 939.706970,1.356380 
	C1234.244629,1.000000 1528.489380,1.000000 1823.000000,1.000000 
	C1823.000000,190.354141 1823.000000,379.708405 1823.000000,569.531372 
z"/>
<path fill="#FFFFFF" opacity="1.000000" stroke="none" 
	d="
M1174.110718,1179.100708 
	C1175.859009,1179.487305 1177.843628,1179.464844 1179.321777,1180.318970 
	C1261.059448,1227.550049 1342.755493,1274.852417 1424.450684,1322.156860 
	C1428.762451,1324.653564 1433.028687,1327.229004 1437.612427,1329.948975 
	C1365.217407,1453.272217 1262.238525,1540.815308 1129.154541,1593.080200 
	C1098.925903,1604.951538 1067.803711,1613.822754 1036.176880,1620.783813 
	C1019.097717,1624.542847 1001.612061,1626.496216 984.277771,1629.046509 
	C950.391968,1634.031982 916.283386,1634.272217 882.184204,1632.754883 
	C865.175720,1631.998047 848.165100,1630.239990 831.282898,1627.981689 
	C813.388855,1625.588135 795.553406,1622.514648 777.868469,1618.881226 
	C765.313293,1616.301636 752.994324,1612.490601 740.673279,1608.876953 
	C729.618896,1605.634644 718.527039,1602.380371 707.771851,1598.289795 
	C691.722290,1592.185669 675.684387,1585.925171 660.109192,1578.720215 
	C552.970276,1529.157959 467.114685,1454.825073 402.327393,1356.164673 
	C396.673920,1347.555420 391.361694,1338.722046 385.626221,1329.802734 
	C384.570709,1327.807617 383.931305,1325.916870 382.967285,1324.209473 
	C346.296509,1259.262939 322.380737,1189.900269 311.384918,1116.155029 
	C308.931671,1099.701782 306.957672,1083.093018 306.201630,1066.490356 
	C305.112793,1042.579102 303.949921,1018.531006 305.265472,994.676208 
	C309.312286,921.295959 325.459351,850.529968 355.467072,783.278198 
	C413.396606,653.449341 505.250732,555.008911 630.691406,488.148895 
	C693.473633,454.685913 760.414307,433.652405 830.912964,424.348083 
	C849.472412,421.898621 868.271057,420.601318 886.990845,420.192352 
	C911.240845,419.662598 935.614319,419.290527 959.773071,421.058472 
	C1046.519165,427.406616 1128.024414,452.142334 1204.151978,494.120911 
	C1302.752197,548.491455 1380.503052,624.430298 1437.784302,721.777832 
	C1423.745239,730.420959 1409.508179,738.919556 1395.160034,747.225769 
	C1322.611816,789.224182 1250.034790,831.172546 1177.465820,873.135315 
	C1176.895142,873.465271 1176.300415,873.753479 1175.180176,873.815552 
	C1170.900757,867.661865 1167.411011,861.574768 1163.377075,855.872681 
	C1106.290527,775.179565 1028.450562,730.768677 929.898499,723.145142 
	C905.766235,721.278381 881.620422,722.792603 857.806580,727.342529 
	C783.531494,741.533813 722.452698,778.039001 674.868164,836.779602 
	C638.625122,881.519775 617.664246,933.012329 610.256348,989.849121 
	C607.419556,1011.614197 607.541870,1033.672607 609.773193,1055.671387 
	C614.241333,1099.723877 627.396912,1140.868652 649.943604,1179.381104 
	C658.085571,1191.354492 665.419983,1203.536011 674.206787,1214.560059 
	C714.230286,1264.774048 765.119751,1299.097534 826.666382,1317.708740 
	C845.485474,1323.399536 864.643127,1327.414307 884.140320,1328.758423 
	C900.797119,1329.906494 917.643677,1329.769043 934.317688,1328.750244 
	C948.339661,1327.893311 962.415894,1325.781128 976.153320,1322.782837 
	C1033.592041,1310.245850 1083.384644,1283.219116 1125.377441,1242.046265 
	C1144.481201,1223.315430 1161.034546,1202.535278 1174.110718,1179.100708 
z"/>
<path fill="#659AD2" opacity="1.000000" stroke="none" 
	d="
M649.804688,1179.056274 
	C627.396912,1140.868652 614.241333,1099.723877 609.773193,1055.671387 
	C607.541870,1033.672607 607.419556,1011.614197 610.256348,989.849121 
	C617.664246,933.012329 638.625122,881.519775 674.868164,836.779602 
	C722.452698,778.039001 783.531494,741.533813 857.806580,727.342529 
	C881.620422,722.792603 905.766235,721.278381 929.898499,723.145142 
	C1028.450562,730.768677 1106.290527,775.179565 1163.377075,855.872681 
	C1167.411011,861.574768 1170.900757,867.661865 1174.822021,873.870239 
	C1150.969360,888.139343 1126.962646,902.149963 1102.902466,916.068604 
	C1039.770508,952.589966 976.615112,989.071167 912.902466,1025.899414 
	C911.889771,1026.455933 911.431335,1026.660156 910.999146,1026.909668 
	C825.074646,1076.519409 739.149414,1126.127563 653.253357,1175.786499 
	C651.919495,1176.557617 650.946289,1177.952515 649.804688,1179.056274 
z"/>
<path fill="#004482" opacity="1.000000" stroke="none" 
	d="
M649.943542,1179.381104 
	C650.946289,1177.952515 651.919495,1176.557617 653.253357,1175.786499 
	C739.149414,1126.127563 825.074646,1076.519409 910.999146,1026.909668 
	C911.431335,1026.660156 911.889771,1026.455933 912.674377,1026.153564 
	C925.160950,1033.293701 937.252808,1040.607666 949.469543,1047.706787 
	C972.051514,1060.828979 994.705811,1073.826660 1017.331482,1086.873657 
	C1044.713013,1102.662964 1072.096924,1118.448120 1099.478271,1134.237793 
	C1123.545776,1148.116455 1147.616943,1161.988647 1171.654297,1175.919434 
	C1172.580811,1176.456299 1173.170776,1177.573608 1174.014160,1178.760498 
	C1161.034546,1202.535278 1144.481201,1223.315430 1125.377441,1242.046265 
	C1083.384644,1283.219116 1033.592041,1310.245850 976.153320,1322.782837 
	C962.415894,1325.781128 948.339661,1327.893311 934.317688,1328.750244 
	C917.643677,1329.769043 900.797119,1329.906494 884.140320,1328.758423 
	C864.643127,1327.414307 845.485474,1323.399536 826.666382,1317.708740 
	C765.119751,1299.097534 714.230286,1264.774048 674.206787,1214.560059 
	C665.419983,1203.536011 658.085571,1191.354492 649.943542,1179.381104 
z"/>
<path fill="#FFFFFF" opacity="1.000000" stroke="none" 
	d="
M1671.000000,924.973267 
	C1682.466187,924.973267 1693.432495,924.973267 1704.799561,924.973267 
	C1704.799561,947.423767 1704.799561,969.512451 1704.799561,992.251953 
	C1727.389404,992.251953 1749.587646,992.251953 1772.049805,992.251953 
	C1772.049805,1015.015747 1772.049805,1037.128174 1772.049805,1059.802979 
	C1749.871460,1059.802979 1727.653198,1059.802979 1705.029297,1059.802979 
	C1705.029297,1082.445312 1705.029297,1104.532471 1705.029297,1126.972046 
	C1682.399902,1126.972046 1660.180298,1126.972046 1637.523071,1126.972046 
	C1637.523071,1104.772217 1637.523071,1082.666504 1637.523071,1060.191895 
	C1614.988281,1060.191895 1592.882690,1060.191895 1570.374756,1060.191895 
	C1570.374756,1037.599976 1570.374756,1015.374023 1570.374756,992.514160 
	C1592.402832,992.514160 1614.606201,992.514160 1637.271729,992.514160 
	C1637.271729,969.806458 1637.271729,947.722656 1637.271729,924.973267 
	C1648.652832,924.973267 1659.576416,924.973267 1671.000000,924.973267 
z"/>
<path fill="#FFFFFF" opacity="1.000000" stroke="none" 
	d="
M1451.774902,926.020874 
	C1451.774902,947.968079 1451.774902,969.915222 1451.774902,992.290283 
	C1474.454834,992.290283 1496.544678,992.290283 1518.939819,992.290283 
	C1518.939819,1014.954163 1518.939819,1037.188477 1518.939819,1059.819580 
	C1496.741455,1059.819580 1474.654419,1059.819580 1451.987915,1059.819580 
	C1451.987915,1082.409790 1451.987915,1104.615967 1451.987915,1127.070679 
	C1429.314941,1127.070679 1407.223145,1127.070679 1384.496338,1127.070679 
	C1384.496338,1104.817261 1384.496338,1082.630981 1384.496338,1060.063110 
	C1361.779419,1060.063110 1339.691040,1060.063110 1317.272217,1060.063110 
	C1317.272217,1037.448120 1317.272217,1015.219421 1317.272217,992.552673 
	C1339.346924,992.552673 1361.440430,992.552673 1384.146729,992.552673 
	C1384.146729,969.921082 1384.146729,947.714539 1384.146729,924.996338 
	C1406.526489,924.996338 1428.294678,924.996338 1450.624512,925.244873 
	C1451.334473,925.722839 1451.530640,925.898682 1451.774902,926.020874 
z"/>
<path fill="#D9E6F0" opacity="1.000000" stroke="none" 
	d="
M1451.831543,925.757690 
	C1451.530640,925.898682 1451.334473,925.722839 1451.087158,925.320312 
	C1451.288086,925.263000 1451.588257,925.378784 1451.831543,925.757690 
z"/>
</svg>