<svg version="1.1" id="Layer_1" xmlns="http://www.w3.org/2000/svg" xmlns:xlink="http://www.w3.org/1999/xlink" x="0px" y="0px"
	 width="100%" viewBox="0 0 354 142" enable-background="new 0 0 354 142" xml:space="preserve">
<path fill="#FEFEFE" opacity="1.000000" stroke="none" 
	d="
M220.000000,143.000000 
	C146.666672,143.000000 73.833351,143.000000 1.000020,143.000000 
	C1.000013,95.666679 1.000013,48.333363 1.000007,1.000032 
	C118.999969,1.000021 236.999939,1.000021 354.999939,1.000011 
	C354.999939,48.333298 354.999939,95.666595 354.999969,142.999939 
	C310.166656,143.000000 265.333344,143.000000 220.000000,143.000000 
M294.110748,83.113380 
	C294.110748,83.113380 294.185974,83.243553 294.697815,83.102768 
	C294.903748,82.830505 295.109711,82.558243 295.124847,82.141083 
	C295.124847,82.141083 295.270447,82.331337 296.053375,81.957161 
	C297.008667,83.049248 297.963959,84.141335 298.873688,85.181305 
	C301.034088,85.181305 303.290375,85.181305 305.519989,85.181305 
	C305.519989,74.260315 305.519989,63.638313 305.519989,52.970863 
	C302.876160,52.970863 300.591187,52.970863 299.091583,52.970863 
	C297.770386,54.465176 296.872681,55.480499 295.554962,55.881641 
	C288.177826,50.258732 279.711090,50.583355 274.127533,56.703209 
	C269.301636,61.992626 268.277649,71.452629 271.807556,78.136208 
	C275.206665,84.572128 280.427002,86.895996 289.638947,85.805977 
	C290.771667,85.211823 291.904358,84.617668 293.012329,83.994125 
	C293.012329,83.994125 293.015106,84.031448 293.566833,84.006096 
	C293.791199,83.734154 294.015594,83.462204 294.110748,83.113380 
M211.910767,59.102367 
	C211.910767,59.102367 211.818512,59.136963 212.097931,59.655472 
	C212.709671,60.138214 213.321411,60.620956 213.982224,61.034428 
	C213.982224,61.034428 213.898056,61.045521 214.037521,61.876369 
	C214.500275,69.594261 214.963028,77.312149 215.430435,85.107628 
	C218.192947,85.107628 220.951157,85.107628 224.398117,85.107628 
	C223.880478,76.541039 223.381302,68.280022 222.895920,59.308529 
	C219.659256,52.951023 214.712219,50.244598 208.325546,52.341705 
	C205.014267,53.428986 202.202133,56.036392 199.167053,57.054043 
	C199.028610,55.668900 198.890152,54.283760 198.766373,53.045341 
	C195.973450,53.045341 193.697784,53.045341 191.296021,53.045341 
	C191.296021,63.875549 191.296021,74.538918 191.296021,85.445389 
	C194.068497,85.282181 196.534256,85.137024 199.785843,84.617996 
	C199.828461,79.678802 199.882675,74.739677 199.911041,69.800400 
	C199.954575,62.222874 202.508362,59.444538 210.628204,59.036190 
	C211.053406,59.091011 211.478592,59.145832 211.910767,59.102367 
M50.146763,92.411789 
	C50.146763,99.347862 50.146763,106.283928 50.146763,113.103813 
	C53.609684,113.103813 56.699661,113.103813 59.942867,113.103813 
	C59.942867,106.237747 59.942867,99.626411 59.706600,92.193779 
	C56.800198,92.193367 53.893791,92.192955 50.146763,92.411789 
M182.112198,52.859631 
	C180.177551,52.859631 178.242920,52.859631 175.897079,52.859631 
	C175.897079,54.450623 175.897079,55.711235 175.199173,56.960129 
	C174.666016,56.583179 174.107727,56.236973 173.603561,55.824581 
	C167.723587,51.015003 160.421036,50.480042 154.740219,54.454887 
	C148.777588,58.626923 146.225739,67.285698 148.669205,75.054749 
	C150.975708,82.388313 156.501373,86.943771 163.804474,85.986961 
	C167.964844,85.441902 171.845810,82.764427 175.822632,81.947830 
	C175.852539,88.416389 180.470001,84.397232 183.827271,84.721275 
	C183.870132,74.788177 183.930573,64.855049 183.914368,54.922047 
	C183.913345,54.294464 183.315308,53.667854 182.112198,52.859631 
M255.223846,56.192421 
	C245.229843,49.818729 236.493835,50.685017 231.288574,58.565903 
	C226.422256,65.933601 227.446671,76.517609 233.588684,82.329971 
	C239.541412,87.963203 247.841827,87.592361 255.784760,81.321449 
	C256.070892,82.084183 256.354126,82.839096 256.501221,84.492714 
	C258.953583,84.846031 261.405975,85.199356 263.914856,85.560822 
	C263.914856,69.872620 263.914856,55.039783 263.914856,40.292969 
	C261.007996,40.292969 258.430969,40.292969 255.938995,40.292969 
	C255.938995,45.721821 255.938995,50.854649 255.223846,56.192421 
M107.915260,100.111542 
	C110.167480,100.111542 112.419693,100.111542 114.954651,100.111542 
	C114.954651,93.804939 114.954651,87.898758 115.680206,81.862213 
	C123.278961,87.774155 131.925262,87.614304 137.696335,81.735489 
	C143.096970,76.234024 143.832855,63.026470 137.980927,56.757229 
	C132.055298,50.409031 124.012032,50.277351 116.277153,55.726154 
	C112.224777,54.627579 109.313362,53.838310 106.083221,52.962639 
	C106.083221,68.383942 106.071579,83.192871 106.122871,98.001579 
	C106.125076,98.639359 106.707542,99.275124 107.915260,100.111542 
M66.245323,66.499931 
	C66.245323,76.267532 66.245323,86.035133 66.245323,95.703697 
	C70.061142,95.703697 73.294022,95.703697 76.449181,95.703697 
	C76.449181,71.948700 76.449181,48.546677 76.449181,25.216335 
	C72.934906,25.216335 69.714012,25.216335 66.245361,25.216335 
	C66.245361,38.900070 66.245361,52.199997 66.245323,66.499931 
M321.905090,71.778481 
	C323.187836,72.118835 324.479828,72.428215 325.751404,72.806168 
	C328.217224,73.539085 332.009705,73.814552 330.820068,77.294762 
	C330.264923,78.918671 326.335419,80.275818 323.991394,80.191818 
	C320.551971,80.068573 317.162720,78.544182 313.448425,77.534218 
	C313.123596,79.358192 312.814911,81.091316 312.500854,82.854805 
	C317.951385,86.128143 323.553192,87.058434 329.497009,86.070854 
	C334.994781,85.157372 338.403625,81.745796 338.984833,76.696571 
	C339.517670,72.067474 337.262421,68.708305 331.950623,66.541702 
	C330.123871,65.796593 327.961395,65.732521 326.299438,64.762543 
	C324.381073,63.642899 322.846252,61.866058 321.144867,60.374592 
	C323.278656,59.535305 325.398315,58.064610 327.549774,58.016571 
	C330.238892,57.956512 332.954163,59.066605 336.026855,59.754028 
	C336.432098,58.265785 336.894135,56.569031 337.333557,54.955235 
	C331.448395,51.830074 326.233704,51.111412 320.789185,52.549858 
	C316.270630,53.743652 313.630554,56.809933 313.372284,61.324142 
	C313.064148,66.709305 316.359161,69.797211 321.905090,71.778481 
M33.664013,78.019150 
	C33.664013,83.915886 33.664013,89.812614 33.664013,95.642067 
	C37.415047,95.642067 40.502499,95.642067 43.720108,95.642067 
	C43.720108,88.532059 43.720108,81.672783 43.720108,74.425156 
	C41.007374,74.425156 38.512661,74.179871 36.112450,74.549034 
	C35.186241,74.691490 34.474621,76.229111 33.664013,78.019150 
M41.337925,51.826923 
	C42.216972,51.169926 43.838634,50.535580 43.859474,49.852406 
	C44.054440,43.460632 43.975063,37.060493 43.975063,30.524906 
	C40.316257,30.524906 37.235451,30.524906 33.909538,30.524906 
	C33.909538,37.608665 33.909538,44.503403 33.909538,51.828499 
	C36.200520,51.828499 38.311424,51.828499 41.337925,51.826923 
M16.941631,113.421127 
	C16.941631,115.203354 16.941631,116.985580 16.941631,118.906738 
	C20.492790,118.906738 23.572680,118.906738 26.754654,118.906738 
	C26.754654,95.191399 26.754654,71.672760 26.754654,48.279640 
	C23.334543,48.279640 20.246458,48.279640 16.941631,48.279640 
	C16.941631,69.852646 16.941631,91.146584 16.941631,113.421127 
M36.593182,58.001278 
	C30.405333,59.929558 35.342499,64.471848 33.527744,67.812515 
	C37.399654,67.812515 40.463749,67.812515 43.680431,67.812515 
	C43.680431,64.511093 43.680431,61.459400 43.680431,57.998608 
	C41.455425,57.998608 39.500515,57.998608 36.593182,58.001278 
M56.410431,85.875206 
	C60.716072,85.393456 61.139317,84.083015 59.517624,76.145248 
	C56.461437,76.145248 53.396328,76.145248 50.271637,76.145248 
	C50.271637,79.479431 50.271637,82.527954 50.271637,85.875404 
	C52.217987,85.875404 53.850052,85.875404 56.410431,85.875206 
M59.421005,69.126213 
	C59.752087,62.166409 60.083168,55.206604 60.415207,48.226723 
	C56.465641,48.226723 53.393112,48.226723 50.260277,48.226723 
	C50.260277,55.320087 50.260277,62.186649 50.260277,69.215508 
	C53.170494,69.215508 55.805115,69.215508 59.421005,69.126213 
z"/>
<path fill="#170C56" opacity="1.000000" stroke="none" 
	d="
M107.019707,99.911827 
	C106.707542,99.275124 106.125076,98.639359 106.122871,98.001579 
	C106.071579,83.192871 106.083221,68.383942 106.083221,52.962639 
	C109.313362,53.838310 112.224777,54.627579 116.277153,55.726154 
	C124.012032,50.277351 132.055298,50.409031 137.980927,56.757229 
	C143.832855,63.026470 143.096970,76.234024 137.696335,81.735489 
	C131.925262,87.614304 123.278961,87.774155 115.028976,82.228653 
	C114.250557,84.886368 114.026321,87.177109 114.013664,89.469025 
	C113.968758,97.600060 113.996109,97.600212 107.019707,99.911827 
M128.088425,59.161888 
	C122.656166,57.443172 118.457420,58.778328 116.079147,62.980709 
	C113.407715,67.701103 114.436188,74.898575 118.564156,77.929314 
	C120.335022,79.229469 123.029808,80.920593 124.710335,80.423653 
	C134.743530,77.456917 136.706940,66.561188 128.088425,59.161888 
z"/>
<path fill="#1F175D" opacity="1.000000" stroke="none" 
	d="
M66.245346,65.999924 
	C66.245361,52.199997 66.245361,38.900070 66.245361,25.216335 
	C69.714012,25.216335 72.934906,25.216335 76.449181,25.216335 
	C76.449181,48.546677 76.449181,71.948700 76.449181,95.703697 
	C73.294022,95.703697 70.061142,95.703697 66.245323,95.703697 
	C66.245323,86.035133 66.245323,76.267532 66.245346,65.999924 
z"/>
<path fill="#150B56" opacity="1.000000" stroke="none" 
	d="
M256.637329,83.594009 
	C256.354126,82.839096 256.070892,82.084183 255.784760,81.321449 
	C247.841827,87.592361 239.541412,87.963203 233.588684,82.329971 
	C227.446671,76.517609 226.422256,65.933601 231.288574,58.565903 
	C236.493835,50.685017 245.229843,49.818729 255.893936,55.812420 
	C256.710175,53.632843 256.498138,51.706463 257.080627,50.061371 
	C258.135559,47.081959 254.041962,41.353771 259.876282,41.338825 
	C266.034790,41.323048 262.322571,47.179699 262.843201,50.308914 
	C263.487885,54.183571 262.997559,58.247074 262.997559,62.228992 
	C262.997559,69.319214 262.997559,76.409431 262.997559,83.594009 
	C260.443909,83.594009 258.540619,83.594009 256.637329,83.594009 
M248.763763,58.556541 
	C242.467621,57.865440 238.268402,60.787083 237.165268,66.626282 
	C236.052155,72.518387 239.349274,78.645294 244.287994,79.862183 
	C249.101700,81.048256 254.182724,77.742928 255.648605,72.471786 
	C257.217712,66.829567 254.907791,61.717632 248.763763,58.556541 
z"/>
<path fill="#160C56" opacity="1.000000" stroke="none" 
	d="
M175.852600,81.047188 
	C171.845810,82.764427 167.964844,85.441902 163.804474,85.986961 
	C156.501373,86.943771 150.975708,82.388313 148.669205,75.054749 
	C146.225739,67.285698 148.777588,58.626923 154.740219,54.454887 
	C160.421036,50.480042 167.723587,51.015003 173.603561,55.824581 
	C174.107727,56.236973 174.666016,56.583179 175.844055,56.758217 
	C178.657623,55.384472 180.826324,54.212635 182.995010,53.040794 
	C183.315308,53.667854 183.913345,54.294464 183.914368,54.922047 
	C183.930573,64.855049 183.870132,74.788177 183.182343,84.612961 
	C180.309158,83.352158 178.080872,82.199677 175.852600,81.047188 
M165.968521,79.950294 
	C175.821228,79.679214 177.348312,67.716507 173.491486,62.290359 
	C171.001541,58.787277 167.494507,57.174789 163.095184,58.796780 
	C158.614624,60.448723 156.275818,64.430481 156.585083,69.872253 
	C156.909332,75.577858 159.727676,78.852364 165.968521,79.950294 
z"/>
<path fill="#160B56" opacity="1.000000" stroke="none" 
	d="
M288.987457,85.783943 
	C280.427002,86.895996 275.206665,84.572128 271.807556,78.136208 
	C268.277649,71.452629 269.301636,61.992626 274.127533,56.703209 
	C279.711090,50.583355 288.177826,50.258732 295.872894,56.506306 
	C297.142029,56.675369 298.106720,56.245552 299.040833,55.757236 
	C300.067871,55.220348 301.217499,54.026119 302.036011,54.230480 
	C302.871002,54.438950 303.909729,55.988384 303.928528,56.968552 
	C304.081024,64.933861 304.078705,72.904495 303.936676,80.870186 
	C303.918396,81.896080 302.830170,82.902901 302.237549,83.918556 
	C301.150726,83.245262 299.618591,82.827591 299.058502,81.851944 
	C297.197876,78.610825 296.246399,79.963081 295.270447,82.331337 
	C295.270447,82.331337 295.124847,82.141083 294.944275,82.245773 
	C294.571167,82.648163 294.378571,82.945862 294.185974,83.243561 
	C294.185974,83.243553 294.110748,83.113380 293.914978,83.193710 
	C293.484497,83.526512 293.249817,83.778984 293.015106,84.031448 
	C293.015106,84.031448 293.012329,83.994125 292.659943,83.994324 
	C291.200867,84.590996 290.094147,85.187469 288.987457,85.783943 
M297.221191,67.726082 
	C295.479553,64.885689 294.282074,61.390827 291.855988,59.373589 
	C288.943176,56.951660 285.099792,57.880062 282.213196,60.350662 
	C278.214691,63.772995 277.623413,68.330849 279.091736,73.101700 
	C280.336639,77.146629 283.056244,79.870262 287.558899,79.915291 
	C292.281494,79.962517 295.895325,77.040550 296.910858,72.553337 
	C297.201477,71.269142 297.156586,69.909012 297.221191,67.726082 
z"/>
<path fill="#170D56" opacity="1.000000" stroke="none" 
	d="
M321.562225,71.602974 
	C316.359161,69.797211 313.064148,66.709305 313.372284,61.324142 
	C313.630554,56.809933 316.270630,53.743652 320.789185,52.549858 
	C326.233704,51.111412 331.448395,51.830074 337.333557,54.955235 
	C336.894135,56.569031 336.432098,58.265785 336.026855,59.754028 
	C332.954163,59.066605 330.238892,57.956512 327.549774,58.016571 
	C325.398315,58.064610 323.278656,59.535305 321.144867,60.374592 
	C322.846252,61.866058 324.381073,63.642899 326.299438,64.762543 
	C327.961395,65.732521 330.123871,65.796593 331.950623,66.541702 
	C337.262421,68.708305 339.517670,72.067474 338.984833,76.696571 
	C338.403625,81.745796 334.994781,85.157372 329.497009,86.070854 
	C323.553192,87.058434 317.951385,86.128143 312.500854,82.854805 
	C312.814911,81.091316 313.123596,79.358192 313.448425,77.534218 
	C317.162720,78.544182 320.551971,80.068573 323.991394,80.191818 
	C326.335419,80.275818 330.264923,78.918671 330.820068,77.294762 
	C332.009705,73.814552 328.217224,73.539085 325.751404,72.806168 
	C324.479828,72.428215 323.187836,72.118835 321.562225,71.602974 
z"/>
<path fill="#150A55" opacity="1.000000" stroke="none" 
	d="
M199.164505,57.957062 
	C202.202133,56.036392 205.014267,53.428986 208.325546,52.341705 
	C214.712219,50.244598 219.659256,52.951023 222.618134,59.976215 
	C222.226273,67.232773 222.224228,73.827217 221.896988,80.405487 
	C221.836670,81.618149 220.460052,82.765335 219.690994,83.942734 
	C218.794250,82.727989 217.298981,81.593689 217.122696,80.282112 
	C216.730270,77.362305 217.392776,74.285629 216.894699,71.398964 
	C216.287537,67.880226 214.930649,64.490852 213.898041,61.045525 
	C213.898056,61.045521 213.982224,61.034428 213.933044,60.726337 
	C213.195419,59.991150 212.506973,59.564056 211.818512,59.136963 
	C211.818512,59.136963 211.910767,59.102367 211.822327,58.898209 
	C211.160629,58.744186 210.587372,58.794319 210.014114,58.844452 
	C202.508362,59.444538 199.954575,62.222874 199.911041,69.800400 
	C199.882675,74.739677 199.828461,79.678802 199.115601,84.516953 
	C196.400452,84.099892 194.355515,83.783859 192.354050,83.474541 
	C192.354050,73.548737 192.354050,64.039055 192.354050,54.733574 
	C196.598679,52.389793 197.668442,55.576008 199.164505,57.957062 
z"/>
<path fill="#190F58" opacity="1.000000" stroke="none" 
	d="
M33.664623,77.575119 
	C34.474621,76.229111 35.186241,74.691490 36.112450,74.549034 
	C38.512661,74.179871 41.007374,74.425156 43.720108,74.425156 
	C43.720108,81.672783 43.720108,88.532059 43.720108,95.642067 
	C40.502499,95.642067 37.415047,95.642067 33.664013,95.642067 
	C33.664013,89.812614 33.664013,83.915886 33.664623,77.575119 
z"/>
<path fill="#180F58" opacity="1.000000" stroke="none" 
	d="
M40.880127,51.827713 
	C38.311424,51.828499 36.200520,51.828499 33.909538,51.828499 
	C33.909538,44.503403 33.909538,37.608665 33.909538,30.524906 
	C37.235451,30.524906 40.316257,30.524906 43.975063,30.524906 
	C43.975063,37.060493 44.054440,43.460632 43.859474,49.852406 
	C43.838634,50.535580 42.216972,51.169926 40.880127,51.827713 
z"/>
<path fill="#130854" opacity="1.000000" stroke="none" 
	d="
M50.987389,92.192543 
	C53.893791,92.192955 56.800198,92.193367 59.537426,92.904419 
	C59.244080,98.577629 58.966873,103.542824 59.052280,108.501785 
	C59.104752,111.548233 57.628742,112.082123 55.064243,112.044777 
	C52.635681,112.009407 50.870583,111.802505 50.962345,108.629730 
	C51.120697,103.155006 50.994305,97.672050 50.987389,92.192543 
z"/>
<path fill="#000045" opacity="1.000000" stroke="none" 
	d="
M16.941631,112.930824 
	C16.941631,91.146584 16.941631,69.852646 16.941631,48.279640 
	C20.246458,48.279640 23.334543,48.279640 26.754654,48.279640 
	C26.754654,71.672760 26.754654,95.191399 26.754654,118.906738 
	C23.572680,118.906738 20.492790,118.906738 16.941631,118.906738 
	C16.941631,116.985580 16.941631,115.203354 16.941631,112.930824 
M26.000305,109.440865 
	C25.999872,90.646523 25.953154,71.851959 26.047144,53.058086 
	C26.061840,50.119427 25.258646,48.768295 22.109838,48.947083 
	C19.731583,49.082123 17.948318,49.121906 17.961790,52.332859 
	C18.049025,73.122696 18.048073,93.913239 17.963619,114.703094 
	C17.950459,117.942596 19.783298,118.034424 22.147984,118.026527 
	C24.362043,118.019135 26.195494,117.838043 26.008129,114.905495 
	C25.912893,113.414902 25.997175,111.912834 26.000305,109.440865 
z"/>
<path fill="#140E56" opacity="1.000000" stroke="none" 
	d="
M213.967773,61.460945 
	C214.930649,64.490852 216.287537,67.880226 216.894699,71.398964 
	C217.392776,74.285629 216.730270,77.362305 217.122696,80.282112 
	C217.298981,81.593689 218.794250,82.727989 219.690994,83.942734 
	C220.460052,82.765335 221.836670,81.618149 221.896988,80.405487 
	C222.224228,73.827217 222.226273,67.232773 222.611237,60.331455 
	C223.381302,68.280022 223.880478,76.541039 224.398117,85.107628 
	C220.951157,85.107628 218.192947,85.107628 215.430435,85.107628 
	C214.963028,77.312149 214.500275,69.594261 213.967773,61.460945 
z"/>
<path fill="#1E1C5C" opacity="1.000000" stroke="none" 
	d="
M295.661926,82.144249 
	C296.246399,79.963081 297.197876,78.610825 299.058502,81.851944 
	C299.618591,82.827591 301.150726,83.245262 302.237549,83.918556 
	C302.830170,82.902901 303.918396,81.896080 303.936676,80.870186 
	C304.078705,72.904495 304.081024,64.933861 303.928528,56.968552 
	C303.909729,55.988384 302.871002,54.438950 302.036011,54.230480 
	C301.217499,54.026119 300.067871,55.220348 299.040833,55.757236 
	C298.106720,56.245552 297.142029,56.675369 296.082886,56.813396 
	C296.872681,55.480499 297.770386,54.465176 299.091583,52.970863 
	C300.591187,52.970863 302.876160,52.970863 305.519989,52.970863 
	C305.519989,63.638313 305.519989,74.260315 305.519989,85.181305 
	C303.290375,85.181305 301.034088,85.181305 298.873688,85.181305 
	C297.963959,84.141335 297.008667,83.049248 295.661926,82.144249 
z"/>
<path fill="#FFCA02" opacity="1.000000" stroke="none" 
	d="
M37.069397,57.999943 
	C39.500515,57.998608 41.455425,57.998608 43.680431,57.998608 
	C43.680431,61.459400 43.680431,64.511093 43.680431,67.812515 
	C40.463749,67.812515 37.399654,67.812515 33.527744,67.812515 
	C35.342499,64.471848 30.405333,59.929558 37.069397,57.999943 
z"/>
<path fill="#E70888" opacity="1.000000" stroke="none" 
	d="
M55.946274,85.875305 
	C53.850052,85.875404 52.217987,85.875404 50.271637,85.875404 
	C50.271637,82.527954 50.271637,79.479431 50.271637,76.145248 
	C53.396328,76.145248 56.461437,76.145248 59.517624,76.145248 
	C61.139317,84.083015 60.716072,85.393456 55.946274,85.875305 
z"/>
<path fill="#000049" opacity="1.000000" stroke="none" 
	d="
M256.569275,84.043365 
	C258.540619,83.594009 260.443909,83.594009 262.997559,83.594009 
	C262.997559,76.409431 262.997559,69.319214 262.997559,62.228992 
	C262.997559,58.247074 263.487885,54.183571 262.843201,50.308914 
	C262.322571,47.179699 266.034790,41.323048 259.876282,41.338825 
	C254.041962,41.353771 258.135559,47.081959 257.080627,50.061371 
	C256.498138,51.706463 256.710175,53.632843 256.251526,55.709946 
	C255.938995,50.854649 255.938995,45.721821 255.938995,40.292969 
	C258.430969,40.292969 261.007996,40.292969 263.914856,40.292969 
	C263.914856,55.039783 263.914856,69.872620 263.914856,85.560822 
	C261.405975,85.199356 258.953583,84.846031 256.569275,84.043365 
z"/>
<path fill="#000044" opacity="1.000000" stroke="none" 
	d="
M58.930370,69.170860 
	C55.805115,69.215508 53.170494,69.215508 50.260277,69.215508 
	C50.260277,62.186649 50.260277,55.320087 50.260277,48.226723 
	C53.393112,48.226723 56.465641,48.226723 60.415207,48.226723 
	C60.083168,55.206604 59.752087,62.166409 58.930370,69.170860 
M59.000969,53.686104 
	C59.369164,50.522102 58.562565,48.843063 54.774364,48.883812 
	C51.006931,48.924343 50.900833,50.903934 50.976936,53.640190 
	C51.078251,57.282974 51.142387,60.937313 50.964924,64.574120 
	C50.813000,67.687630 52.510437,68.046738 54.996159,68.043694 
	C57.471432,68.040665 59.201908,67.706039 59.035473,64.583351 
	C58.859337,61.278702 58.999287,57.957207 59.000969,53.686104 
z"/>
<path fill="#000042" opacity="1.000000" stroke="none" 
	d="
M199.165771,57.505554 
	C197.668442,55.576008 196.598679,52.389793 192.354050,54.733574 
	C192.354050,64.039055 192.354050,73.548737 192.354050,83.474541 
	C194.355515,83.783859 196.400452,84.099892 198.722687,84.703888 
	C196.534256,85.137024 194.068497,85.282181 191.296021,85.445389 
	C191.296021,74.538918 191.296021,63.875549 191.296021,53.045341 
	C193.697784,53.045341 195.973450,53.045341 198.766373,53.045341 
	C198.890152,54.283760 199.028610,55.668900 199.165771,57.505554 
z"/>
<path fill="#000045" opacity="1.000000" stroke="none" 
	d="
M50.567078,92.302170 
	C50.994305,97.672050 51.120697,103.155006 50.962345,108.629730 
	C50.870583,111.802505 52.635681,112.009407 55.064243,112.044777 
	C57.628742,112.082123 59.104752,111.548233 59.052280,108.501785 
	C58.966873,103.542824 59.244080,98.577629 59.655560,93.315071 
	C59.942867,99.626411 59.942867,106.237747 59.942867,113.103813 
	C56.699661,113.103813 53.609684,113.103813 50.146763,113.103813 
	C50.146763,106.283928 50.146763,99.347862 50.567078,92.302170 
z"/>
<path fill="#00004A" opacity="1.000000" stroke="none" 
	d="
M107.467484,100.011688 
	C113.996109,97.600212 113.968758,97.600060 114.013664,89.469025 
	C114.026321,87.177109 114.250557,84.886368 114.666199,82.293839 
	C114.954651,87.898758 114.954651,93.804939 114.954651,100.111542 
	C112.419693,100.111542 110.167480,100.111542 107.467484,100.011688 
z"/>
<path fill="#130C54" opacity="1.000000" stroke="none" 
	d="
M182.553604,52.950214 
	C180.826324,54.212635 178.657623,55.384472 176.193008,56.764080 
	C175.897079,55.711235 175.897079,54.450623 175.897079,52.859631 
	C178.242920,52.859631 180.177551,52.859631 182.553604,52.950214 
z"/>
<path fill="#130C54" opacity="1.000000" stroke="none" 
	d="
M175.837616,81.497513 
	C178.080872,82.199677 180.309158,83.352158 182.780273,84.801064 
	C180.470001,84.397232 175.852539,88.416389 175.837616,81.497513 
z"/>
<path fill="#1E1C5C" opacity="1.000000" stroke="none" 
	d="
M289.313202,85.794960 
	C290.094147,85.187469 291.200867,84.590996 292.672302,84.009018 
	C291.904358,84.617668 290.771667,85.211823 289.313202,85.794960 
z"/>
<path fill="#140E56" opacity="1.000000" stroke="none" 
	d="
M211.958221,59.396217 
	C212.506973,59.564056 213.195419,59.991150 213.908508,60.760971 
	C213.321411,60.620956 212.709671,60.138214 211.958221,59.396217 
z"/>
<path fill="#140E56" opacity="1.000000" stroke="none" 
	d="
M210.321167,58.940323 
	C210.587372,58.794319 211.160629,58.744186 211.818848,58.947353 
	C211.478592,59.145832 211.053406,59.091011 210.321167,58.940323 
z"/>
<path fill="#1E1C5C" opacity="1.000000" stroke="none" 
	d="
M294.441895,83.173164 
	C294.378571,82.945862 294.571167,82.648163 295.039673,82.318222 
	C295.109711,82.558243 294.903748,82.830505 294.441895,83.173164 
z"/>
<path fill="#1E1C5C" opacity="1.000000" stroke="none" 
	d="
M293.290955,84.018768 
	C293.249817,83.778984 293.484497,83.526512 293.979584,83.232147 
	C294.015594,83.462204 293.791199,83.734154 293.290955,84.018768 
z"/>
<path fill="#FAF9FB" opacity="1.000000" stroke="none" 
	d="
M128.418945,59.352600 
	C136.706940,66.561188 134.743530,77.456917 124.710335,80.423653 
	C123.029808,80.920593 120.335022,79.229469 118.564156,77.929314 
	C114.436188,74.898575 113.407715,67.701103 116.079147,62.980709 
	C118.457420,58.778328 122.656166,57.443172 128.418945,59.352600 
z"/>
<path fill="#F9F8FA" opacity="1.000000" stroke="none" 
	d="
M249.124435,58.694099 
	C254.907791,61.717632 257.217712,66.829567 255.648605,72.471786 
	C254.182724,77.742928 249.101700,81.048256 244.287994,79.862183 
	C239.349274,78.645294 236.052155,72.518387 237.165268,66.626282 
	C238.268402,60.787083 242.467621,57.865440 249.124435,58.694099 
z"/>
<path fill="#FBFBFC" opacity="1.000000" stroke="none" 
	d="
M165.610764,79.946716 
	C159.727676,78.852364 156.909332,75.577858 156.585083,69.872253 
	C156.275818,64.430481 158.614624,60.448723 163.095184,58.796780 
	C167.494507,57.174789 171.001541,58.787277 173.491486,62.290359 
	C177.348312,67.716507 175.821228,79.679214 165.610764,79.946716 
z"/>
<path fill="#FAFAFB" opacity="1.000000" stroke="none" 
	d="
M297.243347,68.154892 
	C297.156586,69.909012 297.201477,71.269142 296.910858,72.553337 
	C295.895325,77.040550 292.281494,79.962517 287.558899,79.915291 
	C283.056244,79.870262 280.336639,77.146629 279.091736,73.101700 
	C277.623413,68.330849 278.214691,63.772995 282.213196,60.350662 
	C285.099792,57.880062 288.943176,56.951660 291.855988,59.373589 
	C294.282074,61.390827 295.479553,64.885689 297.243347,68.154892 
z"/>
<path fill="#130754" opacity="1.000000" stroke="none" 
	d="
M26.000305,109.928406 
	C25.997175,111.912834 25.912893,113.414902 26.008129,114.905495 
	C26.195494,117.838043 24.362043,118.019135 22.147984,118.026527 
	C19.783298,118.034424 17.950459,117.942596 17.963619,114.703094 
	C18.048073,93.913239 18.049025,73.122696 17.961790,52.332859 
	C17.948318,49.121906 19.731583,49.082123 22.109838,48.947083 
	C25.258646,48.768295 26.061840,50.119427 26.047144,53.058086 
	C25.953154,71.851959 25.999872,90.646523 26.000305,109.928406 
z"/>
<path fill="#130754" opacity="1.000000" stroke="none" 
	d="
M59.001076,54.164589 
	C58.999287,57.957207 58.859337,61.278702 59.035473,64.583351 
	C59.201908,67.706039 57.471432,68.040665 54.996159,68.043694 
	C52.510437,68.046738 50.813000,67.687630 50.964924,64.574120 
	C51.142387,60.937313 51.078251,57.282974 50.976936,53.640190 
	C50.900833,50.903934 51.006931,48.924343 54.774364,48.883812 
	C58.562565,48.843063 59.369164,50.522102 59.001076,54.164589 
z"/>
</svg>