<?xml version="1.0" encoding="UTF-8"?>
<svg version="1.1" xmlns="http://www.w3.org/2000/svg" width="200" height="200">
<path d="M0 0 C66 0 132 0 200 0 C200 66 200 132 200 200 C134 200 68 200 0 200 C0 134 0 68 0 0 Z " fill="#EEEFEF" transform="translate(0,0)"/>
<path d="M0 0 C0.66 0.33 1.32 0.66 2 1 C2.54663086 2.94604492 2.54663086 2.94604492 2.96484375 5.48046875 C3.12533203 6.39763672 3.28582031 7.31480469 3.45117188 8.25976562 C3.77212852 10.1919504 4.09245428 12.1242401 4.41210938 14.05664062 C5.32233017 19.25323985 6.5006405 23.3069092 9 28 C9.66015625 31 9.66015625 31 10.0625 34 C10.68309453 38.1929244 11.45577142 42.02912652 13 46 C13.495 41.05 13.495 41.05 14 36 C14.33 36 14.66 36 15 36 C15 39.96 15 43.92 15 48 C16.65 48.66 18.3 49.32 20 50 C19.01 50.495 19.01 50.495 18 51 C18.33 51.66 18.66 52.32 19 53 C19.55429688 52.71125 20.10859375 52.4225 20.6796875 52.125 C21.40414062 51.75375 22.12859375 51.3825 22.875 51 C23.59429687 50.62875 24.31359375 50.2575 25.0546875 49.875 C27 49 27 49 29 49 C29 50.65 29 52.3 29 54 C22.565 54.495 22.565 54.495 16 55 C16 55.66 16 56.32 16 57 C17.65 57.33 19.3 57.66 21 58 C21 58.99 21 59.98 21 61 C21.5775 61.268125 22.155 61.53625 22.75 61.8125 C25 63 25 63 27 64.6875 C28.92161693 66.2625698 28.92161693 66.2625698 31.25 65.6875 C31.8275 65.460625 32.405 65.23375 33 65 C32.855625 65.721875 32.71125 66.44375 32.5625 67.1875 C33.08419541 70.54125622 33.66895321 70.86871559 36.3125 72.8125 C38.92400603 74.59182801 39.73673327 75 43 75 C43 75.99 43 76.98 43 78 C44.53899953 79.60767163 44.53899953 79.60767163 46.5 81.0625 C48.46875 82.59765625 48.46875 82.59765625 50 84 C50 84.66 50 85.32 50 86 C51.423125 86.37125 51.423125 86.37125 52.875 86.75 C56 88 56 88 57.375 90.125 C57.58125 90.74375 57.7875 91.3625 58 92 C55 95 52 98 49 101 C46 100 46 100 44 97 C41.12562805 97.61684531 38.82328288 98.52857445 36.25 99.9375 C29.14958957 103.54676593 22.91249504 104.24726547 15 104 C15 108.29 15 112.58 15 117 C28.34098125 115.05575747 39.89540736 112.34780419 51.0625 104.33203125 C52.97625596 103.01632403 54.90154721 101.98833379 57 101 C57 100.01 57 99.02 57 98 C57.99 98 58.98 98 60 98 C60.26039063 97.44699219 60.52078125 96.89398438 60.7890625 96.32421875 C62.15858651 93.69561622 63.74085177 91.2851304 65.375 88.8125 C68.44419998 84.04530838 70.90762057 79.26343894 73 74 C73.66 74.66 74.32 75.32 75 76 C75.66 75.67 76.32 75.34 77 75 C77.82200425 81.24723226 74.92551394 85.71317837 72 91 C71.34 91 70.68 91 70 91 C69.87625 92.11375 69.7525 93.2275 69.625 94.375 C67.04565694 104.44333221 56.3452064 110.44023437 47.98046875 115.50390625 C45.23356687 116.88275739 43.02652981 117.59161428 40 118 C40 118.66 40 119.32 40 120 C32.45778024 122.40650624 25.59766537 123.52140078 17.6875 123.4375 C16.68710693 123.43065186 15.68671387 123.42380371 14.65600586 123.41674805 C3.23413546 123.17047175 -6.65207844 120.83033145 -16 114 C-17.5778125 113.01 -17.5778125 113.01 -19.1875 112 C-23.98770124 108.58652356 -27.00157247 104.99737922 -30 100 C-31.62836738 98.2958946 -33.28769752 96.61974559 -35 95 C-34.505 94.01 -34.505 94.01 -34 93 C-32.68 94.32 -31.36 95.64 -30 97 C-26.6265771 95.55424733 -24.38404854 93.7950914 -22 91 C-21.2127322 88.8618034 -21.2127322 88.8618034 -21 87 C-20.01 87 -19.02 87 -18 87 C-16.11330505 85.69423497 -16.11330505 85.69423497 -14.3125 84 C-13.68988281 83.443125 -13.06726563 82.88625 -12.42578125 82.3125 C-11.95527344 81.879375 -11.48476562 81.44625 -11 81 C-12.5545046 84.34708649 -14.39451832 86.39451832 -17 89 C-17 89.66 -17 90.32 -17 91 C-8.14442997 98.20513313 2.71010004 101.94977675 14 103 C14 99.04 14 95.08 14 91 C12.02 91 10.04 91 8 91 C8 90.67 8 90.34 8 90 C12.29 90 16.58 90 21 90 C21 90.33 21 90.66 21 91 C19.02 91 17.04 91 15 91 C15 94.96 15 98.92 15 103 C23.32732566 101.63431859 30.70999229 100.20990388 38.14453125 95.98828125 C40 95 40 95 42 95 C40.02 92.03 38.04 89.06 36 86 C34.35 86.33 32.7 86.66 31 87 C29.33333333 87.33333333 27.66666667 87.66666667 26 88 C28.65737657 85.81715496 30.65569263 84.72366315 34 84 C33.36771484 83.07767578 33.36771484 83.07767578 32.72265625 82.13671875 C32.17480469 81.32847656 31.62695312 80.52023438 31.0625 79.6875 C30.51722656 78.88699219 29.97195312 78.08648437 29.41015625 77.26171875 C28 75 28 75 27 72 C26.2575 71.2575 25.515 70.515 24.75 69.75 C21.69504521 66.69504521 19.44061957 63.55633138 17 60 C16.78816732 67.40237525 16.97126244 74.31352887 18.5625 81.5625 C19.01648963 84.0918708 19.073261 86.43586504 19 89 C16.03 89 13.06 89 10 89 C10.67152399 81.94899807 11.46834206 74.9196555 12.33935547 67.89086914 C12.74334148 64.55473888 13 61.36719659 13 58 C12.34 58.99 11.68 59.98 11 61 C10.2575 61.12375 9.515 61.2475 8.75 61.375 C4.27978449 62.39095807 1.37787343 65.52006187 -1.6875 68.8125 C-3 70 -3 70 -6 70 C-6 70.66 -6 71.32 -6 72 C-7.32 71.67 -8.64 71.34 -10 71 C-10.33 69.68 -10.66 68.36 -11 67 C-9.7934375 66.5978125 -9.7934375 66.5978125 -8.5625 66.1875 C-7.716875 65.795625 -6.87125 65.40375 -6 65 C-5.67 64.01 -5.34 63.02 -5 62 C-11.94098477 63.70799102 -18.85033717 65.48137408 -25.72265625 67.44921875 C-28 68 -28 68 -31 68 C-31 59.75 -31 51.5 -31 43 C-27.04 43.33 -23.08 43.66 -19 44 C-18.01 42.02 -17.02 40.04 -16 38 C-15 40 -15 40 -15.9375 43.125 C-16.288125 44.07375 -16.63875 45.0225 -17 46 C-15.02 46.33 -13.04 46.66 -11 47 C-11 47.66 -11 48.32 -11 49 C-10.38511719 49.13277344 -9.77023438 49.26554687 -9.13671875 49.40234375 C-8.32847656 49.57894531 -7.52023438 49.75554687 -6.6875 49.9375 C-5.88699219 50.11152344 -5.08648437 50.28554687 -4.26171875 50.46484375 C-2 51 -2 51 1 52 C3.33299825 52.03954234 5.66708189 52.04401732 8 52 C7.67 51.01 7.34 50.02 7 49 C6.01 48.505 6.01 48.505 5 48 C5.33 47.01 5.66 46.02 6 45 C5.2575 44.319375 4.515 43.63875 3.75 42.9375 C1.31607236 40.51039008 -0.27109647 37.92357107 -1.90625 34.890625 C-5.23157173 29.14256886 -9.71145023 24.04535267 -14 19 C-15.32 19.33 -16.64 19.66 -18 20 C-17.34 18.68 -16.68 17.36 -16 16 C-16.495 15.401875 -16.99 14.80375 -17.5 14.1875 C-19 12 -19 12 -19 9 C-15.88112823 7.46635461 -12.75402378 5.95031107 -9.625 4.4375 C-8.29082031 3.78104492 -8.29082031 3.78104492 -6.9296875 3.11132812 C-6.07890625 2.70205078 -5.228125 2.29277344 -4.3515625 1.87109375 C-3.56604004 1.48880615 -2.78051758 1.10651855 -1.97119141 0.71264648 C-1.32069824 0.47747314 -0.67020508 0.2422998 0 0 Z " fill="#A9A9A5" transform="translate(86,22)"/>
<path d="M0 0 C-0.66 0.33 -1.32 0.66 -2 1 C-3.7141657 0.31312868 -5.39683557 -0.45268058 -7.0625 -1.25 C-14.80170111 -4.63413301 -22.70259639 -5.79078123 -31 -7 C-31 -2.71 -31 1.58 -31 6 C-29.618125 5.896875 -28.23625 5.79375 -26.8125 5.6875 C-20.03413558 5.65836663 -14.01716652 8.00503024 -8 11 C-7.505 11.99 -7.505 11.99 -7 13 C-8.175625 12.566875 -9.35125 12.13375 -10.5625 11.6875 C-17.21770656 9.44776702 -24.11029823 8.27990507 -31 7 C-31 11.29 -31 15.58 -31 20 C-29.081875 19.9690625 -29.081875 19.9690625 -27.125 19.9375 C-23.25 19.875 -23.25 19.875 -21 21 C-20.34 19.02 -19.68 17.04 -19 15 C-14.56909529 16.20842856 -12.01887244 17.51668565 -9 21 C-9.99 22.65 -10.98 24.3 -12 26 C-11.443125 26.226875 -10.88625 26.45375 -10.3125 26.6875 C-3.16915363 30.74183173 0.05034487 37.56010554 3 45 C3.66958343 48.09573636 3.89398226 50.81946794 4 54 C7.96 54 11.92 54 16 54 C13.95405373 42.98336623 11.7902396 34.09760257 5 25 C5.495 24.01 5.495 24.01 6 23 C14.04328901 32.83962355 17.18851483 41.36950624 17 54 C21.29 54 25.58 54 30 54 C28.15617339 41.34805154 25.8564965 29.47532867 18 19 C18.33 18.34 18.66 17.68 19 17 C23.63422003 23.39522364 29 30.81715145 29 39 C30.98 39.495 30.98 39.495 33 40 C34.79157899 46.7184212 35.24610001 53.1441314 35.3125 60.0625 C35.32990234 60.90071289 35.34730469 61.73892578 35.36523438 62.60253906 C35.3605682 68.56358285 34.20336723 73.47032355 32 79 C31.34 77.68 30.68 76.36 30 75 C29.01 75 28.02 75 27 75 C26.34644531 76.37671875 26.34644531 76.37671875 25.6796875 77.78125 C18.35705539 92.96847174 18.35705539 92.96847174 14 97 C13.01 97 12.02 97 11 97 C11 97.99 11 98.98 11 100 C0.84086893 109.39277495 -13.77354533 116.13820034 -27.75 116.1875 C-28.8225 116.125625 -29.895 116.06375 -31 116 C-31 111.71 -31 107.42 -31 103 C-29.06125 102.7525 -27.1225 102.505 -25.125 102.25 C-17.74671502 101.12231452 -11.23375159 99.15583439 -5 95 C-2.9375 95.1875 -2.9375 95.1875 -1 96 C-0.01 97.485 -0.01 97.485 1 99 C1.5775 98.71125 2.155 98.4225 2.75 98.125 C5 97 5 97 7.125 96.25 C9.89478683 94.40347545 10.18480954 92.12489677 11 89 C9.948125 88.46375 8.89625 87.9275 7.8125 87.375 C3.88886113 85.14764137 1.73137724 82.56596473 -1 79 C-2.58285563 77.22720169 -3.67659789 76.15612515 -5.8125 75.125 C-9.04249157 73.46386148 -11.36064867 71.51938081 -14 69 C-14 67.68 -14 66.36 -14 65 C-14.99 65.33 -15.98 65.66 -17 66 C-18.9375 64.890625 -18.9375 64.890625 -21 63.25 C-21.680625 62.71890625 -22.36125 62.1878125 -23.0625 61.640625 C-25 60 -25 60 -26.625 58.359375 C-27.97679152 56.88210356 -27.97679152 56.88210356 -30 56 C-30 55.34 -30 54.68 -30 54 C-23.565 53.505 -23.565 53.505 -17 53 C-17 51.35 -17 49.7 -17 48 C-17.69867188 48.37253906 -18.39734375 48.74507812 -19.1171875 49.12890625 C-20.02726562 49.60199219 -20.93734375 50.07507813 -21.875 50.5625 C-22.77992187 51.03816406 -23.68484375 51.51382813 -24.6171875 52.00390625 C-25.79667969 52.49697266 -25.79667969 52.49697266 -27 53 C-27.66 52.67 -28.32 52.34 -29 52 C-28.67 51.01 -28.34 50.02 -28 49 C-28.33 48.34 -28.66 47.68 -29 47 C-30.32 47 -31.64 47 -33 47 C-35.46742818 40.13671677 -37.46743958 33.50687392 -38.5078125 26.27734375 C-38.91154168 23.73573818 -38.91154168 23.73573818 -41 21 C-42.38937268 16.42021599 -43.30963553 11.7993507 -43 7 C-39.57067929 5.28533964 -35.78283935 5.94595944 -32 6 C-32 1.71 -32 -2.58 -32 -7 C-40.36428441 -5.46056115 -48.71365072 -3.9236168 -57 -2 C-42.77040747 -14.00937242 -14.49178041 -9.39486144 0 0 Z " fill="#A4A894" transform="translate(132,23)"/>
<path d="M0 0 C4.29 0 8.58 0 13 0 C12.54705963 14.94703206 8.5889573 25.80856535 0 38 C-0.50273437 38.76183594 -1.00546875 39.52367187 -1.5234375 40.30859375 C-2.01070312 40.86675781 -2.49796875 41.42492187 -3 42 C-3.99 42 -4.98 42 -6 42 C-6 42.99 -6 43.98 -6 45 C-16.15913107 54.39277495 -30.77354533 61.13820034 -44.75 61.1875 C-45.8225 61.125625 -46.895 61.06375 -48 61 C-48 56.71 -48 52.42 -48 48 C-46.06125 47.7525 -44.1225 47.505 -42.125 47.25 C-34.74671502 46.12231452 -28.23375159 44.15583439 -22 40 C-19.9375 40.1875 -19.9375 40.1875 -18 41 C-17.34 41.99 -16.68 42.98 -16 44 C-15.4225 43.71125 -14.845 43.4225 -14.25 43.125 C-12 42 -12 42 -9.875 41.25 C-7.10521317 39.40347545 -6.81519046 37.12489677 -6 34 C-7.32 33.01 -8.64 32.02 -10 31 C-8.81633735 27.66422344 -7.28356418 24.72850323 -5.5 21.6875 C-1.57968689 14.71164873 -0.7392212 7.88502616 0 0 Z " fill="#F3F3EC" transform="translate(149,78)"/>
<path d="M0 0 C0 4.29 0 8.58 0 13 C-3.63 13.33 -7.26 13.66 -11 14 C-11.66 11.69 -12.32 9.38 -13 7 C-17.9336845 8.90068174 -22.79536186 10.82849507 -27.5 13.25 C-31 15 -31 15 -33 15 C-31.68 17.64 -30.36 20.28 -29 23 C-29.99 23.99 -30.98 24.98 -32 26 C-34.95409701 24.62845496 -37.44008376 23.01136276 -40 21 C-38.35 22.98 -36.7 24.96 -35 27 C-36.17326126 29.66650287 -37.49185591 31.62478994 -39.3125 33.9375 C-45.09493158 41.93338462 -47.56448567 51.27351322 -48 61 C-52.29 61 -56.58 61 -61 61 C-60.2076669 44.55908814 -55.47333139 30.99484645 -44 19 C-43.34 19 -42.68 19 -42 19 C-41.60941406 18.09894531 -41.60941406 18.09894531 -41.2109375 17.1796875 C-36.70773323 9.07391982 -24.62579899 4.67485826 -16.375 1.6875 C-10.9633014 0.58511695 -5.52398149 0 0 0 Z " fill="#F5F5F0" transform="translate(100,16)"/>
<path d="M0 0 C16.23984236 1.23340575 30.24022371 4.9845764 42 17 C40.25153574 20.77088145 38.14284824 23.24042594 35 26 C34.01 26 33.02 26 32 26 C32 26.99 32 27.98 32 29 C30.46875 30.82421875 30.46875 30.82421875 28.5 32.6875 C27.8503125 33.31011719 27.200625 33.93273438 26.53125 34.57421875 C26.0259375 35.04472656 25.520625 35.51523437 25 36 C23 35 21 34 19 33 C19.66 31.02 20.32 29.04 21 27 C19.329375 26.01 19.329375 26.01 17.625 25 C16.99851562 24.62875 16.37203125 24.2575 15.7265625 23.875 C14.02527333 22.84931652 14.02527333 22.84931652 12 23 C11.01 25.475 11.01 25.475 10 28 C6.7 27.67 3.4 27.34 0 27 C0 22.71 0 18.42 0 14 C7.52669657 14.43256877 13.99450367 15.18718708 21 18 C13.90793829 15.10115348 7.65931455 13.44401823 0 13 C0 8.71 0 4.42 0 0 Z " fill="#F5F5EF" transform="translate(101,16)"/>
<path d="M0 0 C4.29 0 8.58 0 13 0 C13.12375 1.381875 13.2475 2.76375 13.375 4.1875 C13.76401643 7.7619408 14.41947853 10.73358896 16 14 C17.5778125 13.2575 17.5778125 13.2575 19.1875 12.5 C22.23928759 11.06386466 24.63179619 10.43161561 28 11 C30.01953125 13.265625 30.01953125 13.265625 31.8125 16.25 C32.41707031 17.22453125 33.02164063 18.1990625 33.64453125 19.203125 C35 22 35 22 35 26 C33.5390625 27.921875 33.5390625 27.921875 31.625 29.75 C30.68527344 30.67039062 30.68527344 30.67039062 29.7265625 31.609375 C28 33 28 33 26 33 C25.773125 33.556875 25.54625 34.11375 25.3125 34.6875 C23.64103234 37.63246684 21.44723648 39.68156544 19 42 C11.39537654 38.78841941 7.17556447 30.37433877 4.06640625 23.109375 C1.5064329 15.64513037 0 7.88841559 0 0 Z " fill="#F4F4EE" transform="translate(39,78)"/>
<path d="M0 0 C6.08972032 5.04576827 9.12896139 12.04682476 10.8125 19.6875 C10.874375 20.450625 10.93625 21.21375 11 22 C12.32 22.33 13.64 22.66 15 23 C16.79157899 29.7184212 17.24610001 36.1441314 17.3125 43.0625 C17.33860352 44.31981934 17.33860352 44.31981934 17.36523438 45.60253906 C17.3605682 51.56358285 16.20336723 56.47032355 14 62 C13.34 60.68 12.68 59.36 12 58 C11.01 58.495 11.01 58.495 10 59 C9.08854946 56.02977779 8.98198028 53.93514414 9.55859375 50.890625 C9.69716797 50.13652344 9.83574219 49.38242188 9.97851562 48.60546875 C10.12998047 47.82816406 10.28144531 47.05085938 10.4375 46.25 C10.58509766 45.45722656 10.73269531 44.66445312 10.88476562 43.84765625 C11.24903966 41.89702754 11.62352512 39.9483107 12 38 C7.71 38 3.42 38 -1 38 C-0.938125 39.27875 -0.87625 40.5575 -0.8125 41.875 C-0.87785516 52.34816396 -5.54618359 60.30377766 -11 69 C-14.4039273 67.86535757 -15.54708114 66.3405824 -17.71875 63.5703125 C-19.05303846 61.93499555 -20.4866451 60.46936202 -22 59 C-21.65066406 58.07058594 -21.30132812 57.14117187 -20.94140625 56.18359375 C-20.48636719 54.94738281 -20.03132812 53.71117187 -19.5625 52.4375 C-19.11003906 51.21933594 -18.65757812 50.00117187 -18.19140625 48.74609375 C-17.02114858 45.06649667 -16.42738647 41.81700334 -16 38 C-19.96 38 -23.92 38 -28 38 C-28 37.67 -28 37.34 -28 37 C-19.42 37 -10.84 37 -2 37 C-4.28860337 25.55698313 -6.02498702 17.34516303 -13 8 C-12.67 7.34 -12.34 6.68 -12 6 C-3.95671099 15.83962355 -0.81148517 24.36950624 -1 37 C3.29 37 7.58 37 12 37 C10.13253776 24.18586885 7.64152405 12.75473755 0 2 C0 1.34 0 0.68 0 0 Z " fill="#A0A09C" transform="translate(150,40)"/>
<path d="M0 0 C0.66 0.33 1.32 0.66 2 1 C2.54663086 2.94604492 2.54663086 2.94604492 2.96484375 5.48046875 C3.12533203 6.39763672 3.28582031 7.31480469 3.45117188 8.25976562 C3.77212852 10.1919504 4.09245428 12.1242401 4.41210938 14.05664062 C5.32178559 19.25013071 6.48986139 23.31395319 9 28 C9.66015625 30.859375 9.66015625 30.859375 10.0625 33.75 C10.77117094 38.56656015 11.66229497 43.28991577 12.73046875 48.0390625 C13 50 13 50 12 52 C11.37351562 51.21753906 10.74703125 50.43507812 10.1015625 49.62890625 C9.28429687 48.61699219 8.46703125 47.60507813 7.625 46.5625 C6.81289062 45.55316406 6.00078125 44.54382813 5.1640625 43.50390625 C3.24965659 40.96471245 3.24965659 40.96471245 1 40 C0.05671457 38.34925049 -0.88296066 36.69629256 -1.80078125 35.03125 C-5.21334063 29.25101913 -9.66352507 24.10173521 -14 19 C-15.32 19.33 -16.64 19.66 -18 20 C-17.34 18.68 -16.68 17.36 -16 16 C-16.495 15.401875 -16.99 14.80375 -17.5 14.1875 C-19 12 -19 12 -19 9 C-15.88112823 7.46635461 -12.75402378 5.95031107 -9.625 4.4375 C-8.73554687 3.99986328 -7.84609375 3.56222656 -6.9296875 3.11132812 C-6.07890625 2.70205078 -5.228125 2.29277344 -4.3515625 1.87109375 C-3.56604004 1.48880615 -2.78051758 1.10651855 -1.97119141 0.71264648 C-1.32069824 0.47747314 -0.67020508 0.2422998 0 0 Z " fill="#EA7F37" transform="translate(86,22)"/>
<path d="M0 0 C1 2 1 2 0.0625 5.125 C-0.288125 6.07375 -0.63875 7.0225 -1 8 C1.97 8.495 1.97 8.495 5 9 C5 9.66 5 10.32 5 11 C5.54527344 11.10957031 6.09054688 11.21914062 6.65234375 11.33203125 C12.25535065 12.51009937 17.6054387 14.087035 23 16 C23 16.99 23 17.98 23 19 C20.03 19.33 17.06 19.66 14 20 C14 20.66 14 21.32 14 22 C-9.43083004 30 -9.43083004 30 -15 30 C-15 21.75 -15 13.5 -15 5 C-11.04 5.33 -7.08 5.66 -3 6 C-2.01 4.02 -1.02 2.04 0 0 Z " fill="#F4CE2E" transform="translate(70,60)"/>
<path d="M0 0 C4.51117743 3.42360398 7.47928416 6.73422838 10.1875 11.75 C10.52918213 12.37197266 10.87086426 12.99394531 11.22290039 13.63476562 C16.40621625 23.27325594 17.46764994 31.03358875 18 42 C13.71 42 9.42 42 5 42 C4.814375 39.97875 4.62875 37.9575 4.4375 35.875 C2.99384276 25.64476707 -1.29978772 16.92514096 -8 9 C-7.04270084 7.87411986 -6.08412105 6.7493285 -5.125 5.625 C-4.59132812 4.99851562 -4.05765625 4.37203125 -3.5078125 3.7265625 C-2.38567993 2.44163349 -1.20628025 1.20628025 0 0 Z " fill="#F4F4EE" transform="translate(144,35)"/>
<path d="M0 0 C2.46544084 1.46617367 4.9139333 2.94445443 7.32421875 4.5 C15.90034166 9.94335735 23.93127855 12.18800633 34 13 C34 17.29 34 21.58 34 26 C19.57517317 25.56288404 7.48465919 22.04968137 -4 13 C-5.38151001 11.37304405 -6.72878917 9.71451992 -8 8 C-5.36 5.36 -2.72 2.72 0 0 Z " fill="#F4F4ED" transform="translate(66,113)"/>
<path d="M0 0 C0.33 0 0.66 0 1 0 C1 3.96 1 7.92 1 12 C2.65 12.66 4.3 13.32 6 14 C5.01 14.495 5.01 14.495 4 15 C4.33 15.66 4.66 16.32 5 17 C5.55429688 16.71125 6.10859375 16.4225 6.6796875 16.125 C7.40414062 15.75375 8.12859375 15.3825 8.875 15 C9.59429687 14.62875 10.31359375 14.2575 11.0546875 13.875 C13 13 13 13 15 13 C15 14.65 15 16.3 15 18 C8.565 18.495 8.565 18.495 2 19 C2 19.66 2 20.32 2 21 C3.65 21.33 5.3 21.66 7 22 C6 25 6 25 4 26 C3.67 25.34 3.34 24.68 3 24 C2.78816732 31.40237525 2.97126244 38.31352887 4.5625 45.5625 C5.01648963 48.0918708 5.073261 50.43586504 5 53 C2.03 53 -0.94 53 -4 53 C-3.32847601 45.94899807 -2.53165794 38.9196555 -1.66064453 31.89086914 C-1.25665852 28.55473888 -1 25.36719659 -1 22 C-1.66 22.99 -2.32 23.98 -3 25 C-3.7425 25.12375 -4.485 25.2475 -5.25 25.375 C-9.72021551 26.39095807 -12.62212657 29.52006187 -15.6875 32.8125 C-17 34 -17 34 -20 34 C-20 34.66 -20 35.32 -20 36 C-21.32 35.67 -22.64 35.34 -24 35 C-24.33 33.68 -24.66 32.36 -25 31 C-24.195625 30.731875 -23.39125 30.46375 -22.5625 30.1875 C-21.716875 29.795625 -20.87125 29.40375 -20 29 C-19.67 28.01 -19.34 27.02 -19 26 C-20.98 26.33 -22.96 26.66 -25 27 C-21.81237635 24.87491756 -19.73487777 24.4979837 -16 24 C-16 23.34 -16 22.68 -16 22 C-13.02588876 20.76078698 -10.14737182 19.69941596 -7 19 C-7.33 18.34 -7.66 17.68 -8 17 C-7.34 16.67 -6.68 16.34 -6 16 C-6.33 15.01 -6.66 14.02 -7 13 C-7.66 12.67 -8.32 12.34 -9 12 C-8.67 11.34 -8.34 10.68 -8 10 C-5.53199953 11.15173355 -3.95216435 12.04783565 -2 14 C-1.14340865 10.91915045 -0.73058631 7.93207999 -0.4375 4.75 C-0.35371094 3.85796875 -0.26992187 2.9659375 -0.18359375 2.046875 C-0.09271484 1.03367188 -0.09271484 1.03367188 0 0 Z " fill="#918E80" transform="translate(100,58)"/>
<path d="M0 0 C0.99 0.99 0.99 0.99 2 2 C2.66 1.67 3.32 1.34 4 1 C4.82200425 7.24723226 1.92551394 11.71317837 -1 17 C-1.66 17 -2.32 17 -3 17 C-3.185625 18.670625 -3.185625 18.670625 -3.375 20.375 C-5.63017756 29.17796895 -14.31049687 34.79860128 -21.5625 39.4375 C-29.704017 44.1939104 -37.7994178 47.15321978 -47.30078125 47.09765625 C-48.27724609 47.09443359 -49.25371094 47.09121094 -50.25976562 47.08789062 C-51.26716797 47.07951172 -52.27457031 47.07113281 -53.3125 47.0625 C-54.33923828 47.05798828 -55.36597656 47.05347656 -56.42382812 47.04882812 C-58.94927882 47.03708184 -61.47460905 47.02065565 -64 47 C-64 46.67 -64 46.34 -64 46 C-56.08 45.01 -56.08 45.01 -48 44 C-48 43.34 -48 42.68 -48 42 C-47.02160156 41.69707031 -46.04320313 41.39414063 -45.03515625 41.08203125 C-34.69931735 37.80960939 -26.30603042 34.09051377 -18 27 C-17.34 27 -16.68 27 -16 27 C-16 26.01 -16 25.02 -16 24 C-15.01 24 -14.02 24 -13 24 C-12.60941406 23.17048828 -12.60941406 23.17048828 -12.2109375 22.32421875 C-10.84141349 19.69561622 -9.25914823 17.2851304 -7.625 14.8125 C-4.55580002 10.04530838 -2.09237943 5.26343894 0 0 Z " fill="#969692" transform="translate(159,96)"/>
<path d="M0 0 C3.07210269 1.05329235 5.06696084 2.0571617 7.5625 4.1875 C9.80776288 6.28573236 9.80776288 6.28573236 12.3125 5.75 C13.1478125 5.37875 13.1478125 5.37875 14 5 C13.7834375 6.0828125 13.7834375 6.0828125 13.5625 7.1875 C14.08419541 10.54125622 14.66895321 10.86871559 17.3125 12.8125 C19.92400603 14.59182801 20.73673327 15 24 15 C24 15.99 24 16.98 24 18 C25.53899953 19.60767163 25.53899953 19.60767163 27.5 21.0625 C29.46875 22.59765625 29.46875 22.59765625 31 24 C31 24.66 31 25.32 31 26 C31.94875 26.2475 32.8975 26.495 33.875 26.75 C37 28 37 28 38.375 30.125 C38.58125 30.74375 38.7875 31.3625 39 32 C36 35 33 38 30 41 C27 40 27 40 25.83203125 38.22265625 C25.49558594 37.50980469 25.15914062 36.79695313 24.8125 36.0625 C24.46832031 35.35222656 24.12414062 34.64195313 23.76953125 33.91015625 C23 32 23 32 23 30 C22.38125 29.896875 21.7625 29.79375 21.125 29.6875 C19 29 19 29 17 26 C16.278125 26.144375 15.55625 26.28875 14.8125 26.4375 C12.20833333 26.95833333 9.60416667 27.47916667 7 28 C9.65737657 25.81715496 11.65569263 24.72366315 15 24 C14.57847656 23.38511719 14.15695313 22.77023438 13.72265625 22.13671875 C13.17480469 21.32847656 12.62695312 20.52023438 12.0625 19.6875 C11.24458984 18.48673828 11.24458984 18.48673828 10.41015625 17.26171875 C9 15 9 15 8 12 C6.35511706 10.31183067 4.68662458 8.64646685 3 7 C0 3.48275862 0 3.48275862 0 0 Z " fill="#DB8041" transform="translate(105,82)"/>
<path d="M0 0 C-0.66 0.33 -1.32 0.66 -2 1 C-3.7141657 0.31312868 -5.39683557 -0.45268058 -7.0625 -1.25 C-14.80170111 -4.63413301 -22.70259639 -5.79078123 -31 -7 C-31 -2.71 -31 1.58 -31 6 C-29.618125 5.896875 -28.23625 5.79375 -26.8125 5.6875 C-20.03413558 5.65836663 -14.01716652 8.00503024 -8 11 C-7.505 11.99 -7.505 11.99 -7 13 C-8.175625 12.566875 -9.35125 12.13375 -10.5625 11.6875 C-17.21770656 9.44776702 -24.11029823 8.27990507 -31 7 C-31 11.29 -31 15.58 -31 20 C-29.081875 19.9690625 -29.081875 19.9690625 -27.125 19.9375 C-23.25 19.875 -23.25 19.875 -21 21 C-20.67 20.34 -20.34 19.68 -20 19 C-20.33 21.31 -20.66 23.62 -21 26 C-21.495 24.02 -21.495 24.02 -22 22 C-24.97 21.67 -27.94 21.34 -31 21 C-30.98839844 21.87140625 -30.97679688 22.7428125 -30.96484375 23.640625 C-30.9053861 31.48903438 -31.19922292 39.1924235 -32 47 C-36.93887236 42.06112764 -37.46782534 32.99867986 -38.47265625 26.34765625 C-38.90925238 23.74735817 -38.90925238 23.74735817 -41 21 C-42.38937268 16.42021599 -43.30963553 11.7993507 -43 7 C-39.57067929 5.28533964 -35.78283935 5.94595944 -32 6 C-32 1.71 -32 -2.58 -32 -7 C-40.36428441 -5.46056115 -48.71365072 -3.9236168 -57 -2 C-42.77040747 -14.00937242 -14.49178041 -9.39486144 0 0 Z " fill="#A1A19E" transform="translate(132,23)"/>
<path d="M0 0 C2.31 0 4.62 0 7 0 C7.66 5.28 8.32 10.56 9 16 C11.31 10.72 13.62 5.44 16 0 C18.64 0 21.28 0 24 0 C23.01 8.58 22.02 17.16 21 26 C19.35 26 17.7 26 16 26 C15.89502433 20.22633809 16.28360364 14.73117091 17 9 C14.36 14.28 11.72 19.56 9 25 C7.35 25 5.7 25 4 25 C3.67 19.06 3.34 13.12 3 7 C1.7258611 12.50399854 1.7258611 12.50399854 0.45727539 18.00927734 C0.21738892 19.03722412 0.21738892 19.03722412 -0.02734375 20.0859375 C-0.18968506 20.7876709 -0.35202637 21.4894043 -0.51928711 22.21240234 C-1 24 -1 24 -2 26 C-3.32 26 -4.64 26 -6 26 C-5.39502042 19.93629658 -4.1366972 14.34485758 -2.4375 8.5 C-2.20353516 7.67757812 -1.96957031 6.85515625 -1.72851562 6.0078125 C-1.15757928 4.00370942 -0.57953295 2.00163409 0 0 Z " fill="#16587E" transform="translate(23,157)"/>
<path d="M0 0 C5.32765975 1.77588658 7.42894497 7.2435482 10 12 C12.89181832 18.70834598 14.56208518 24.6928926 14 32 C10.04 32 6.08 32 2 32 C1.62875 30.22625 1.2575 28.4525 0.875 26.625 C-0.48920821 21.08290416 -2.56381664 16.80257629 -5.6953125 12.05859375 C-7 10 -7 10 -8 7 C-6.74057614 5.80040625 -5.46704714 4.61560557 -4.1875 3.4375 C-3.12595703 2.44556641 -3.12595703 2.44556641 -2.04296875 1.43359375 C-1.36878906 0.96050781 -0.69460937 0.48742188 0 0 Z " fill="#F4F4EE" transform="translate(134,45)"/>
<path d="M0 0 C2.25258885 1.11291801 4.48133282 2.25633933 6.69921875 3.4375 C12.80126353 6.62811165 18.20240399 8.86706733 25 10 C25 13.96 25 17.92 25 22 C14.39065931 22.98691541 4.72160644 18.28745625 -4.05078125 12.78125 C-4.69402344 12.1934375 -5.33726563 11.605625 -6 11 C-6 6.63204596 -5.77237852 6.25341007 -3 3.25 C-2.443125 2.63640625 -1.88625 2.0228125 -1.3125 1.390625 C-0.6628125 0.70226562 -0.6628125 0.70226562 0 0 Z " fill="#F4F4EE" transform="translate(75,103)"/>
<path d="M0 0 C7.32068947 0.18301724 13.59033679 1.21385955 20.4375 3.6875 C21.11103516 3.91904785 21.78457031 4.1505957 22.47851562 4.38916016 C27.44807006 6.28935692 29.88056425 8.70251144 33 13 C32.0919838 14.13199353 31.17316174 15.25532363 30.25 16.375 C29.73953125 17.00148438 29.2290625 17.62796875 28.703125 18.2734375 C26.91800519 20.08312318 25.32050356 21.00117455 23 22 C21.68 21.01 20.36 20.02 19 19 C19.66 17.02 20.32 15.04 21 13 C19.329375 12.01 19.329375 12.01 17.625 11 C16.99851562 10.62875 16.37203125 10.2575 15.7265625 9.875 C14.02527333 8.84931652 14.02527333 8.84931652 12 9 C11.34 10.65 10.68 12.3 10 14 C6.7 13.67 3.4 13.34 0 13 C0 8.71 0 4.42 0 0 Z " fill="#EFEFE8" transform="translate(101,30)"/>
<path d="M0 0 C3.96 0 7.92 0 12 0 C11.65265672 9.72561174 10.37524928 19.98033904 3.1875 27.25 C2.1046875 28.11625 2.1046875 28.11625 1 29 C-1.97 26.69 -4.94 24.38 -8 22 C-7.59007812 21.16597656 -7.18015625 20.33195312 -6.7578125 19.47265625 C-3.65472717 12.99181058 -1.20184135 7.09086398 0 0 Z " fill="#F3F4ED" transform="translate(136,78)"/>
<path d="M0 0 C2.44692202 1.04868087 4.00762186 2.00787592 5.875 3.9375 C7.94780483 6.16267769 7.94780483 6.16267769 10.9375 7.4375 C20.52555205 12.32936329 24.35633768 22.94238979 27.5625 32.625 C27.90474609 33.69621094 27.90474609 33.69621094 28.25390625 34.7890625 C28.97592355 37.04208985 28.97592355 37.04208985 30.0234375 39.29882812 C34.300133 51.12816788 31.82894807 67.57748351 27.484375 79.109375 C25.94131162 82.1142879 24.29423795 84.52222302 22 87 C21.34 87 20.68 87 20 87 C19.92458984 88.05767578 19.92458984 88.05767578 19.84765625 89.13671875 C18.70357107 93.0013014 16.29969635 95.13611415 13.4375 97.8125 C12.91736328 98.31458984 12.39722656 98.81667969 11.86132812 99.33398438 C10.5831143 100.56529127 9.29272853 101.7839407 8 103 C7.34 102.67 6.68 102.34 6 102 C6.61488281 101.443125 7.22976562 100.88625 7.86328125 100.3125 C12.99332759 95.46881989 16.13539678 91.83687846 18 85 C18.66 85 19.32 85 20 85 C20.268125 84.29875 20.53625 83.5975 20.8125 82.875 C22 80 22 80 23.4375 77.25 C27.02638797 69.78511303 28.46002214 63.33928175 28.25 55.0625 C28.23904297 54.18948242 28.22808594 53.31646484 28.21679688 52.41699219 C28.11634581 46.56680957 27.77377003 40.8032752 27 35 C26.39027344 34.96003906 25.78054687 34.92007813 25.15234375 34.87890625 C23 34 23 34 21.69140625 31.33984375 C21.31886719 30.21707031 20.94632813 29.09429687 20.5625 27.9375 C17.27907744 18.82575289 14.28035139 13.1955146 6 8 C4.84806377 9.09779824 3.70365063 10.20349446 2.5625 11.3125 C1.92441406 11.92738281 1.28632813 12.54226562 0.62890625 13.17578125 C-1.2221418 15.00644056 -1.2221418 15.00644056 -2 18 C-3.32407669 18.68486725 -4.65909241 19.34870203 -6 20 C-7.37086915 21.29470975 -8.71340837 22.62150897 -10 24 C-10.66 23.67 -11.32 23.34 -12 23 C-8.535 19.535 -8.535 19.535 -5 16 C-5.33 15.01 -5.66 14.02 -6 13 C-5.278125 12.938125 -4.55625 12.87625 -3.8125 12.8125 C-0.15342375 11.75543353 1.49211602 9.79449929 4 7 C2.79618552 4.50638429 1.54571278 2.31856917 0 0 Z " fill="#B5B6B4" transform="translate(138,28)"/>
<path d="M0 0 C9.72727273 0 9.72727273 0 14 1 C16.49668053 4.7450208 16.20469094 6.46738095 15.6015625 10.7734375 C14.64351245 14.3194669 12.94720073 15.90421281 10 18 C4.83544304 19.41772152 4.83544304 19.41772152 2 18 C1.67 20.97 1.34 23.94 1 27 C-0.65 27 -2.3 27 -4 27 C-3.27643663 17.88310149 -1.65707093 8.98361723 0 0 Z " fill="#195A7F" transform="translate(86,164)"/>
<path d="M0 0 C1.65 0 3.3 0 5 0 C5 2.97 5 5.94 5 9 C6.36125 8.6596875 6.36125 8.6596875 7.75 8.3125 C11 8 11 8 13.375 9 C15 11 15 11 15.5 14.3125 C14.80958603 19.40430301 12.69467323 22.18427868 9.25 25.875 C5.71929806 27.64035097 2.92482418 27.31651808 -1 27 C-3.38957961 24.61042039 -3.29608684 24.07871787 -3.3125 20.8125 C-3.19806871 13.72816277 -1.5422621 6.88509865 0 0 Z " fill="#1A5A7F" transform="translate(173,156)"/>
<path d="M0 0 C1.484375 1.55859375 1.484375 1.55859375 2.75 3.4375 C3.17796875 4.05496094 3.6059375 4.67242187 4.046875 5.30859375 C5 7 5 7 5 9 C-4.04530652 13.94228088 -11.64259061 17 -22 17 C-22 13.04 -22 9.08 -22 5 C-19.7725 4.62875 -19.7725 4.62875 -17.5 4.25 C-13.08393104 3.39305744 -9.63029296 2.01994236 -5.7890625 -0.29296875 C-3.41221298 -1.23229138 -2.33620969 -0.99453103 0 0 Z " fill="#F3F3ED" transform="translate(123,108)"/>
<path d="M0 0 C2.46800047 1.15173355 4.04783565 2.04783565 6 4 C6.93585938 3.7834375 7.87171875 3.566875 8.8359375 3.34375 C12 3 12 3 14.4140625 4.84375 C15.14367187 5.7203125 15.87328125 6.596875 16.625 7.5 C17.39199219 8.4178125 18.15898438 9.335625 18.94921875 10.28125 C21.31522538 13.41789879 23.18776029 16.52049976 25 20 C25.66 20.66 26.32 21.32 27 22 C27 22.99 27 23.98 27 25 C27.99 25.33 28.98 25.66 30 26 C31.6875 28.0625 31.6875 28.0625 33 30 C32.67 30.66 32.34 31.32 32 32 C32.33 32.33 32.66 32.66 33 33 C33.68268138 34.32520503 34.3507041 35.65812182 35 37 C34 38 34 38 31.1875 38.3125 C25.52889162 38.27698572 20.24347518 35.92863455 15 34 C15.61230469 33.88140625 16.22460938 33.7628125 16.85546875 33.640625 C20.13160581 32.6619611 21.24776868 30.85548808 23 28 C23.02302257 25.27566639 23.02302257 25.27566639 22 23 C21.34 22.67 20.68 22.34 20 22 C20 21.34 20 20.68 20 20 C18.68 19.34 17.36 18.68 16 18 C15.01 18.66 14.02 19.32 13 20 C13.33 18.35 13.66 16.7 14 15 C11.69 13.02 9.38 11.04 7 9 C5.02 10.32 3.04 11.64 1 13 C1.33 12.4225 1.66 11.845 2 11.25 C3.27075898 8.80116138 3.27075898 8.80116138 3 5 C1.54166642 3.37485532 1.54166642 3.37485532 0 2 C0 1.34 0 0.68 0 0 Z " fill="#D6D7D2" transform="translate(60,37)"/>
<path d="M0 0 C1.32933732 3.98801195 0.19687528 6.89767074 -0.875 10.8125 C-1.24965884 12.21424085 -1.62209153 13.61657878 -1.9921875 15.01953125 C-2.16089355 15.63932861 -2.32959961 16.25912598 -2.50341797 16.89770508 C-3.13478142 19.57060119 -3.54848623 22.29091736 -4 25 C0.29 25 4.58 25 9 25 C8.9175 23.55625 8.835 22.1125 8.75 20.625 C8.71655432 14.77200544 10.50987145 10.22482329 13 5 C13.625 6.8125 13.625 6.8125 14 9 C13.01 10.485 13.01 10.485 12 12 C12.99 12.33 13.98 12.66 15 13 C14.01 13 13.02 13 12 13 C12 21.25 12 29.5 12 38 C17.46257174 36.31901594 17.46257174 36.31901594 22.91918945 34.61889648 C23.60198975 34.41337158 24.28479004 34.20784668 24.98828125 33.99609375 C25.68477783 33.78138428 26.38127441 33.5666748 27.09887695 33.34545898 C29 33 29 33 32 34 C30.35 34.66 28.7 35.32 27 36 C27.45699278 41.02692063 29.99241748 44.14896261 33 48 C33.72316406 47.36771484 33.72316406 47.36771484 34.4609375 46.72265625 C35.09257813 46.17480469 35.72421875 45.62695312 36.375 45.0625 C37.00148437 44.51722656 37.62796875 43.97195312 38.2734375 43.41015625 C40 42 40 42 42 41 C40.55746343 44.36591866 38.66735273 46.51047079 36 49 C37.20623544 52.61870631 37.9824595 52.83676255 41.25 54.5625 C42.05824219 54.99046875 42.86648437 55.4184375 43.69921875 55.859375 C46.08972121 57.04447979 48.48452855 58.10741336 51 59 C48 60 48 60 45.2578125 58.9609375 C35.30552771 53.92274844 29.02582603 48.05165206 24 38 C22.741875 38.12375 21.48375 38.2475 20.1875 38.375 C19.12595703 38.47941406 19.12595703 38.47941406 18.04296875 38.5859375 C15.70011858 38.92665391 15.70011858 38.92665391 13 41 C12.67 41.99 12.34 42.98 12 44 C9.5206176 37.75726932 8.68014269 32.71700347 9 26 C4.71 26 0.42 26 -4 26 C-2.16195812 37.34791075 -0.08503057 47.2867422 5.609375 57.34765625 C7 60 7 60 7 63 C-1.39984654 51.40821178 -5.39870212 39.55771611 -5.375 25.25 C-5.37584595 23.9498999 -5.37584595 23.9498999 -5.37670898 22.62353516 C-5.23924657 14.52752463 -3.65046436 7.30092871 0 0 Z " fill="#A4A5A3" transform="translate(43,52)"/>
<path d="M0 0 C0.66 0.33 1.32 0.66 2 1 C1.34 6.94 0.68 12.88 0 19 C-1.65 19 -3.3 19 -5 19 C-5.33 18.34 -5.66 17.68 -6 17 C-6.556875 17.350625 -7.11375 17.70125 -7.6875 18.0625 C-10.6020668 19.24408113 -12.04965818 19.00932746 -15 18 C-17.35620437 14.46569344 -17.48991613 13.16428713 -17 9 C-13.18909291 1.52475917 -8.21660286 -0.63204637 0 0 Z " fill="#1A5A7F" transform="translate(66,164)"/>
<path d="M0 0 C2.73837381 2.90952217 3 4.50772806 3 8.5 C1.82566051 12.6101882 0.2192284 14.26365586 -3 17 C-3.33 17.33 -3.66 17.66 -4 18 C-8.33691101 18.12094971 -11.92122459 17.98630895 -15.1875 15 C-16.36529385 10.65122271 -15.65285369 7.1562049 -14 3 C-9.85281928 -1.28096074 -5.61226604 -1.40306651 0 0 Z " fill="#1B5A7F" transform="translate(130,165)"/>
<path d="M0 0 C2.01953125 2.265625 2.01953125 2.265625 3.8125 5.25 C4.41707031 6.22453125 5.02164063 7.1990625 5.64453125 8.203125 C7 11 7 11 7 15 C5.46875 16.921875 5.46875 16.921875 3.5 18.75 C2.8503125 19.36359375 2.200625 19.9771875 1.53125 20.609375 C1.0259375 21.06828125 0.520625 21.5271875 0 22 C-5.35576267 19.01073711 -8.42282081 15.60120799 -11 10 C-11.61529257 7.59764447 -11.84435843 5.49026512 -12 3 C-4.14031052 -0.6986774 -4.14031052 -0.6986774 0 0 Z " fill="#ECECE6" transform="translate(67,89)"/>
<path d="M0 0 C3.86526773 1.4587471 4.97031959 3.24854146 6.6875 6.9375 C7.10386719 7.81277344 7.52023438 8.68804687 7.94921875 9.58984375 C9.84488638 13.93789923 10.08917486 17.27373224 10 22 C6.04 22 2.08 22 -2 22 C-5.02734375 13.796875 -5.02734375 13.796875 -6 11 C-6.2784375 10.29875 -6.556875 9.5975 -6.84375 8.875 C-7 7 -7 7 -5.56640625 5.078125 C-4.90511719 4.47484375 -4.24382812 3.8715625 -3.5625 3.25 C-2.90378906 2.63640625 -2.24507813 2.0228125 -1.56640625 1.390625 C-1.04949219 0.93171875 -0.53257813 0.4728125 0 0 Z " fill="#F5F5EE" transform="translate(124,55)"/>
<path d="M0 0 C3.96 0 7.92 0 12 0 C12.78732435 6.92845425 10.372124 12.9776715 7 19 C6.01 19.33 5.02 19.66 4 20 C1.95703125 18.78515625 1.95703125 18.78515625 -0.1875 17.0625 C-0.90292969 16.49660156 -1.61835937 15.93070313 -2.35546875 15.34765625 C-2.89816406 14.90292969 -3.44085938 14.45820312 -4 14 C-3.21609249 9.13977346 -1.59408927 4.64365136 0 0 Z " fill="#F3F3EC" transform="translate(122,78)"/>
<path d="M0 0 C0.495 0.99 0.495 0.99 1 2 C-4.71502571 13.80762069 -13.60111313 24.9228696 -26 30 C-26.66 30 -27.32 30 -28 30 C-28 30.66 -28 31.32 -28 32 C-30.64 32.99 -33.28 33.98 -36 35 C-32.37 34.34 -28.74 33.68 -25 33 C-26 35 -26 35 -27.890625 35.81640625 C-28.66921875 36.06261719 -29.4478125 36.30882812 -30.25 36.5625 C-31.01828125 36.81128906 -31.7865625 37.06007812 -32.578125 37.31640625 C-36.87755102 38.52995392 -40.82908468 39.12380652 -45.30078125 39.09765625 C-46.27724609 39.09443359 -47.25371094 39.09121094 -48.25976562 39.08789062 C-49.26716797 39.07951172 -50.27457031 39.07113281 -51.3125 39.0625 C-52.33923828 39.05798828 -53.36597656 39.05347656 -54.42382812 39.04882812 C-56.94927882 39.03708184 -59.47460905 39.02065565 -62 39 C-62 38.67 -62 38.34 -62 38 C-54.08 37.01 -54.08 37.01 -46 36 C-46 35.34 -46 34.68 -46 34 C-45.02160156 33.69707031 -44.04320313 33.39414063 -43.03515625 33.08203125 C-32.69931735 29.80960939 -24.30603042 26.09051377 -16 19 C-15.34 19 -14.68 19 -14 19 C-14 18.01 -14 17.02 -14 16 C-13.01 16 -12.02 16 -11 16 C-10.7421875 15.45730469 -10.484375 14.91460937 -10.21875 14.35546875 C-8.78152306 11.5777513 -7.16738062 8.95840695 -5.5 6.3125 C-4.8915625 5.33925781 -4.283125 4.36601563 -3.65625 3.36328125 C-2 1 -2 1 0 0 Z " fill="#9D9D92" transform="translate(157,104)"/>
<path d="M0 0 C0.66 0.33 1.32 0.66 2 1 C3.28317892 4.84953676 3.06643637 7.94738135 3 12 C2.67 11.34 2.34 10.68 2 10 C1.16855469 10.34933594 0.33710937 10.69867188 -0.51953125 11.05859375 C-1.60621094 11.51363281 -2.69289063 11.96867187 -3.8125 12.4375 C-5.43091797 13.11619141 -5.43091797 13.11619141 -7.08203125 13.80859375 C-9.0295126 14.60375013 -11.00438943 15.33479648 -13 16 C-12.67 17.32 -12.34 18.64 -12 20 C-12.99 19.67 -13.98 19.34 -15 19 C-15.99 19 -16.98 19 -18 19 C-17.34 18.01 -16.68 17.02 -16 16 C-16.495 15.401875 -16.99 14.80375 -17.5 14.1875 C-19 12 -19 12 -19 9 C-15.88112823 7.46635461 -12.75402378 5.95031107 -9.625 4.4375 C-8.73554687 3.99986328 -7.84609375 3.56222656 -6.9296875 3.11132812 C-6.07890625 2.70205078 -5.228125 2.29277344 -4.3515625 1.87109375 C-3.56604004 1.48880615 -2.78051758 1.10651855 -1.97119141 0.71264648 C-1.32069824 0.47747314 -0.67020508 0.2422998 0 0 Z " fill="#DD8245" transform="translate(86,22)"/>
<path d="M0 0 C1.051875 0.495 1.051875 0.495 2.125 1 C3.37451936 1.52198536 4.62455473 2.0427366 5.875 2.5625 C6.9475 3.036875 8.02 3.51125 9.125 4 C9.31794408 8.82360189 8.88247614 12.49646738 7.125 17 C0.86019555 15.25267359 -3.75733868 13.02879721 -8.875 9 C-7.3397475 5.23165296 -4.49241652 0 0 0 Z " fill="#F3F3EC" transform="translate(86.875,94)"/>
<path d="M0 0 C2.41685712 4.22949995 3.34833144 7.12335991 3 12 C-0.74962543 14.21741808 -3.84725218 15.93349532 -8.25 16.1875 C-12.37354038 14.40688029 -13.15441446 12.04609138 -15 8 C-15 7.34 -15 6.68 -15 6 C-13.06629769 4.99267601 -11.12789694 3.99436712 -9.1875 3 C-8.10855469 2.443125 -7.02960938 1.88625 -5.91796875 1.3125 C-3 0 -3 0 0 0 Z " fill="#F68031" transform="translate(88,32)"/>
<path d="M0 0 C3.07210269 1.05329235 5.06696084 2.0571617 7.5625 4.1875 C9.80776288 6.28573236 9.80776288 6.28573236 12.3125 5.75 C13.1478125 5.37875 13.1478125 5.37875 14 5 C13.7834375 6.0828125 13.7834375 6.0828125 13.5625 7.1875 C14.08419541 10.54125622 14.66895321 10.86871559 17.3125 12.8125 C19.92400603 14.59182801 20.73673327 15 24 15 C23.67 15.99 23.34 16.98 23 18 C21.35 17.34 19.7 16.68 18 16 C18.20625 16.9075 18.4125 17.815 18.625 18.75 C19 22 19 22 18.375 24.3125 C16.45558857 26.6681413 14.97347835 26.6542467 12 27 C11.071875 27.185625 10.14375 27.37125 9.1875 27.5625 C8.465625 27.706875 7.74375 27.85125 7 28 C9.65737657 25.81715496 11.65569263 24.72366315 15 24 C14.57847656 23.38511719 14.15695313 22.77023438 13.72265625 22.13671875 C13.17480469 21.32847656 12.62695312 20.52023438 12.0625 19.6875 C11.24458984 18.48673828 11.24458984 18.48673828 10.41015625 17.26171875 C9 15 9 15 8 12 C6.35511706 10.31183067 4.68662458 8.64646685 3 7 C0 3.48275862 0 3.48275862 0 0 Z " fill="#D3834D" transform="translate(105,82)"/>
<path d="M0 0 C0 0.99 0 1.98 0 3 C-1.66666667 4.66666667 -3.33333333 6.33333333 -5 8 C-5 8.99 -5 9.98 -5 11 C-5.59296875 11.09152344 -6.1859375 11.18304688 -6.796875 11.27734375 C-9.52534657 12.17232113 -10.47125041 13.33906301 -12.25 15.5625 C-13.03117187 16.52349609 -13.03117187 16.52349609 -13.828125 17.50390625 C-14.21484375 17.99761719 -14.6015625 18.49132812 -15 19 C-9.49574635 24.13730341 -3.69489607 27.5859662 3 31 C3 31.66 3 32.32 3 33 C4.65 33.33 6.3 33.66 8 34 C8 34.99 8 35.98 8 37 C8.66 37.66 9.32 38.32 10 39 C4.24120807 38.56809061 0.63748644 36.15051684 -4 33 C-5.051875 32.34 -6.10375 31.68 -7.1875 31 C-11.98770124 27.58652356 -15.00157247 23.99737922 -18 19 C-19.62836738 17.2958946 -21.28769752 15.61974559 -23 14 C-22.67 13.34 -22.34 12.68 -22 12 C-20.68 13.32 -19.36 14.64 -18 16 C-14.6265771 14.55424733 -12.38404854 12.7950914 -10 10 C-9.2127322 7.8618034 -9.2127322 7.8618034 -9 6 C-8.01 6 -7.02 6 -6 6 C-4.33243964 4.69563273 -4.33243964 4.69563273 -2.8125 3 C-2.28269531 2.443125 -1.75289062 1.88625 -1.20703125 1.3125 C-0.80871094 0.879375 -0.41039063 0.44625 0 0 Z " fill="#ACACA7" transform="translate(74,103)"/>
<path d="M0 0 C4.29 0 8.58 0 13 0 C13 0.33 13 0.66 13 1 C11.02 1 9.04 1 7 1 C7 4.96 7 8.92 7 13 C15.32732566 11.63431859 22.70999229 10.20990388 30.14453125 5.98828125 C32 5 32 5 34 5 C33.34 3.35 32.68 1.7 32 0 C32.66 0 33.32 0 34 0 C35.6875 2.375 35.6875 2.375 37 5 C36.67 5.66 36.34 6.32 36 7 C34.67504382 7.36521228 33.33985972 7.69395291 32 8 C30.73419852 8.61428601 29.48411054 9.26179898 28.25 9.9375 C21.14958957 13.54676593 14.91249504 14.24726547 7 14 C7 18.29 7 22.58 7 27 C9.64 27 12.28 27 15 27 C15 27.33 15 27.66 15 28 C9.39 28 3.78 28 -2 28 C-2 27.67 -2 27.34 -2 27 C0.64 27 3.28 27 6 27 C6 22.71 6 18.42 6 14 C4.72125 14.061875 3.4425 14.12375 2.125 14.1875 C-7.28332703 14.14332945 -15.48450363 10.54990501 -23 5 C-23.66 4.01 -24.32 3.02 -25 2 C-22.79871589 3.07744351 -20.647503 4.19866 -18.51171875 5.40234375 C-10.44206562 9.78875271 -2.99639743 11.59892171 6 13 C6 9.04 6 5.08 6 1 C4.02 1 2.04 1 0 1 C0 0.67 0 0.34 0 0 Z " fill="#A1A09C" transform="translate(94,112)"/>
<path d="M0 0 C0 1.65 0 3.3 0 5 C0.99 5 1.98 5 3 5 C3 6.32 3 7.64 3 9 C1.68 9.33 0.36 9.66 -1 10 C-1.33 12.97 -1.66 15.94 -2 19 C-1.34 19 -0.68 19 0 19 C0 20.65 0 22.3 0 24 C-2.875 24.1875 -2.875 24.1875 -6 24 C-8.50356732 20.24464902 -7.9608592 19.13110586 -7.125 14.8125 C-6.92132813 13.72582031 -6.71765625 12.63914063 -6.5078125 11.51953125 C-6.34023437 10.68808594 -6.17265625 9.85664063 -6 9 C-6.66 9 -7.32 9 -8 9 C-8 7.68 -8 6.36 -8 5 C-7.01 5 -6.02 5 -5 5 C-5 3.68 -5 2.36 -5 1 C-1.125 0 -1.125 0 0 0 Z " fill="#17587E" transform="translate(145,159)"/>
<path d="M0 0 C0 1.65 0 3.3 0 5 C0.99 5 1.98 5 3 5 C3 6.32 3 7.64 3 9 C1.68 9.33 0.36 9.66 -1 10 C-1.33 12.97 -1.66 15.94 -2 19 C-1.34 19 -0.68 19 0 19 C0 20.65 0 22.3 0 24 C-2.875 24.1875 -2.875 24.1875 -6 24 C-8.50356732 20.24464902 -7.9608592 19.13110586 -7.125 14.8125 C-6.92132813 13.72582031 -6.71765625 12.63914063 -6.5078125 11.51953125 C-6.34023437 10.68808594 -6.17265625 9.85664063 -6 9 C-6.66 9 -7.32 9 -8 9 C-8 7.68 -8 6.36 -8 5 C-7.01 5 -6.02 5 -5 5 C-5 3.68 -5 2.36 -5 1 C-1.125 0 -1.125 0 0 0 Z " fill="#17587E" transform="translate(79,159)"/>
<path d="M0 0 C5.80205656 5.64524422 5.80205656 5.64524422 8 9 C8 9.66 8 10.32 8 11 C6.80029246 11.68206723 5.58964795 12.34490897 4.375 13 C3.36566406 13.556875 3.36566406 13.556875 2.3359375 14.125 C0 15 0 15 -6 15 C-6.33 11.04 -6.66 7.08 -7 3 C-4.69 2.01 -2.38 1.02 0 0 Z " fill="#F1F1EB" transform="translate(112,95)"/>
<path d="M0 0 C4.43090471 1.20842856 6.98112756 2.51668565 10 6 C8.8553125 7.0209375 8.8553125 7.0209375 7.6875 8.0625 C4.78708964 11.23271598 3.60805132 14.05296493 2 18 C0.5625 20 0.5625 20 -1 21 C-3.09765625 20.5625 -3.09765625 20.5625 -5 20 C-4.566875 18.081875 -4.566875 18.081875 -4.125 16.125 C-3.14708854 11.75560835 -2.28667394 7.36995633 -1.46484375 2.96875 C-1 1 -1 1 0 0 Z " fill="#CFF258" transform="translate(113,38)"/>
<path d="M0 0 C1.58959515 2.87627364 2.37530452 5.34429551 2.8515625 8.58984375 C2.98046875 9.45673828 3.109375 10.32363281 3.2421875 11.21679688 C3.43167969 12.56354492 3.43167969 12.56354492 3.625 13.9375 C3.7590625 14.83146484 3.893125 15.72542969 4.03125 16.64648438 C4.63750165 20.81291791 5.07006322 24.78172709 5 29 C2.03 29 -0.94 29 -4 29 C-3.39613735 22.65944218 -2.71969066 16.32833741 -2 10 C-1.9170166 9.245979 -1.8340332 8.49195801 -1.74853516 7.71508789 C-1.11530379 2.23060758 -1.11530379 2.23060758 0 0 Z " fill="#83F182" transform="translate(100,82)"/>
<path d="M0 0 C0.33 0 0.66 0 1 0 C2.20499656 31.23721859 2.20499656 31.23721859 -6.046875 42.890625 C-6.69140625 43.58671875 -7.3359375 44.2828125 -8 45 C-8.66 45 -9.32 45 -10 45 C-10.05027344 45.70511719 -10.10054687 46.41023438 -10.15234375 47.13671875 C-11.29642893 51.0013014 -13.70030365 53.13611415 -16.5625 55.8125 C-17.34270508 56.56563477 -17.34270508 56.56563477 -18.13867188 57.33398438 C-19.4168857 58.56529127 -20.70727147 59.7839407 -22 61 C-22.66 60.67 -23.32 60.34 -24 60 C-23.38511719 59.443125 -22.77023438 58.88625 -22.13671875 58.3125 C-17.00667241 53.46881989 -13.86460322 49.83687846 -12 43 C-11.34 43 -10.68 43 -10 43 C-9.731875 42.29875 -9.46375 41.5975 -9.1875 40.875 C-8 38 -8 38 -6.5625 35.25 C-4.64891442 31.26974199 -3.32910248 27.20348675 -2 23 C-1.67 22.01 -1.34 21.02 -1 20 C-0.8535286 18.44733347 -0.75305926 16.89004338 -0.68359375 15.33203125 C-0.64169922 14.43935547 -0.59980469 13.54667969 -0.55664062 12.62695312 C-0.51732422 11.69818359 -0.47800781 10.76941406 -0.4375 9.8125 C-0.39431641 8.87212891 -0.35113281 7.93175781 -0.30664062 6.96289062 C-0.20061335 4.64207146 -0.09854971 2.32114675 0 0 Z " fill="#DBDCDB" transform="translate(168,70)"/>
<path d="M0 0 C6.08972032 5.04576827 9.12896139 12.04682476 10.8125 19.6875 C10.874375 20.450625 10.93625 21.21375 11 22 C12.32 22.33 13.64 22.66 15 23 C16.82869243 29.85759661 17.21966713 36.37752385 17.25 43.4375 C17.25902344 44.32598633 17.26804688 45.21447266 17.27734375 46.12988281 C17.27347656 46.97260742 17.26960938 47.81533203 17.265625 48.68359375 C17.26336914 49.44212646 17.26111328 50.20065918 17.25878906 50.98217773 C17 53 17 53 15 56 C14.67 52.7 14.34 49.4 14 46 C13.67 46 13.34 46 13 46 C12.67 41.38 12.34 36.76 12 32 C11.67 32 11.34 32 11 32 C10.91363281 31.27296875 10.82726562 30.5459375 10.73828125 29.796875 C9.29444882 19.46486315 6.04744553 10.51121964 0 2 C0 1.34 0 0.68 0 0 Z " fill="#AAAAA2" transform="translate(150,40)"/>
<path d="M0 0 C1.98 0 3.96 0 6 0 C4.35 8.91 2.7 17.82 1 27 C-0.65 27 -2.3 27 -4 27 C-3.43708547 17.83808082 -1.79203512 8.98271694 0 0 Z " fill="#15577D" transform="translate(153,156)"/>
<path d="M0 0 C1.98 0 3.96 0 6 0 C4.35 8.91 2.7 17.82 1 27 C-0.65 27 -2.3 27 -4 27 C-3.43708547 17.83808082 -1.79203512 8.98271694 0 0 Z " fill="#15577D" transform="translate(108,156)"/>
<path d="M0 0 C3.60589211 3.40556477 6.25784387 6.8867658 9 11 C9.99 11.66 10.98 12.32 12 13 C11 15 11 15 8.625 16.125 C6 17 6 17 3 17 C3.165 17.680625 3.33 18.36125 3.5 19.0625 C4.07089059 22.4164822 4.06659023 25.60389805 4 29 C5.98 29 7.96 29 10 29 C9.67 29.66 9.34 30.32 9 31 C7.02 30.67 5.04 30.34 3 30 C0.77933441 19.82194937 -0.44133265 10.46121827 0 0 Z " fill="#99AA97" transform="translate(102,81)"/>
<path d="M0 0 C0.33 0 0.66 0 1 0 C1 7.26 1 14.52 1 22 C6.46257174 20.31901594 6.46257174 20.31901594 11.91918945 18.61889648 C12.60198975 18.41337158 13.28479004 18.20784668 13.98828125 17.99609375 C15.03302612 17.67402954 15.03302612 17.67402954 16.09887695 17.34545898 C18 17 18 17 21 18 C19.35 18.66 17.7 19.32 16 20 C16.45699278 25.02692063 18.99241748 28.14896261 22 32 C22.72316406 31.36771484 22.72316406 31.36771484 23.4609375 30.72265625 C24.09257813 30.17480469 24.72421875 29.62695312 25.375 29.0625 C26.00148438 28.51722656 26.62796875 27.97195312 27.2734375 27.41015625 C29 26 29 26 31 25 C29.55746343 28.36591866 27.66735273 30.51047079 25 33 C26.20623544 36.61870631 26.9824595 36.83676255 30.25 38.5625 C31.05824219 38.99046875 31.86648437 39.4184375 32.69921875 39.859375 C35.08972121 41.04447979 37.48452855 42.10741336 40 43 C37 44 37 44 34.2578125 42.9609375 C24.30552771 37.92274844 18.02582603 32.05165206 13 22 C11.741875 22.12375 10.48375 22.2475 9.1875 22.375 C8.47980469 22.44460937 7.77210937 22.51421875 7.04296875 22.5859375 C4.70011858 22.92665391 4.70011858 22.92665391 2 25 C1.67 25.99 1.34 26.98 1 28 C-1.23238884 21.85667041 -1.06720759 16.53199703 -0.625 10.0625 C-0.56828125 9.09248047 -0.5115625 8.12246094 -0.453125 7.12304688 C-0.31271847 4.74783646 -0.16142622 2.37385876 0 0 Z " fill="#A19E90" transform="translate(54,68)"/>
<path d="M0 0 C0.66 0.33 1.32 0.66 2 1 C1.34 1.99 0.68 2.98 0 4 C-0.66 4 -1.32 4 -2 4 C-2.33 4.99 -2.66 5.98 -3 7 C-4.65 7.33 -6.3 7.66 -8 8 C-8 8.66 -8 9.32 -8 10 C-9.60256108 10.50512244 -11.20711792 11.00391627 -12.8125 11.5 C-13.70582031 11.7784375 -14.59914062 12.056875 -15.51953125 12.34375 C-18 13 -18 13 -21 13 C-21 13.66 -21 14.32 -21 15 C-25.87531848 16.4101289 -30.71197477 16.18418551 -35.75 16.1875 C-36.71421875 16.19974609 -37.6784375 16.21199219 -38.671875 16.22460938 C-44.47401767 16.23643439 -49.43837295 15.66717019 -55 14 C-55 13.67 -55 13.34 -55 13 C-54.20940186 13.01047363 -53.41880371 13.02094727 -52.60424805 13.03173828 C-48.96536536 13.07373254 -45.32653394 13.09946292 -41.6875 13.125 C-40.44419922 13.14175781 -39.20089844 13.15851563 -37.91992188 13.17578125 C-30.37694091 13.21537695 -23.3591116 12.68648288 -16 11 C-16 10.34 -16 9.68 -16 9 C-15.18015625 8.60167969 -14.3603125 8.20335937 -13.515625 7.79296875 C-12.43796875 7.26316406 -11.3603125 6.73335937 -10.25 6.1875 C-9.18265625 5.66542969 -8.1153125 5.14335937 -7.015625 4.60546875 C-4.44766758 3.2383308 -2.25529217 1.82284537 0 0 Z " fill="#D9DADA" transform="translate(142,131)"/>
<path d="M0 0 C-0.33 1.32 -0.66 2.64 -1 4 C-2.65 4.33 -4.3 4.66 -6 5 C-5.20882096 6.99983534 -5.20882096 6.99983534 -4 9 C-3.01 9.33 -2.02 9.66 -1 10 C-1 9.34 -1 8.68 -1 8 C0.65 7.67 2.3 7.34 4 7 C2.61811547 10.21043882 1.07578097 12.04936365 -1.625 14.25 C-2.25664063 14.77078125 -2.88828125 15.2915625 -3.5390625 15.828125 C-4.02117187 16.21484375 -4.50328125 16.6015625 -5 17 C-5.99017928 15.77968731 -6.96669317 14.54827998 -7.9375 13.3125 C-8.48277344 12.62800781 -9.02804688 11.94351563 -9.58984375 11.23828125 C-11.12861927 8.79584808 -11.60713569 6.83956356 -12 4 C-10.3767313 3.3291288 -8.75132422 2.66342971 -7.125 2 C-6.22007813 1.62875 -5.31515625 1.2575 -4.3828125 0.875 C-2 0 -2 0 0 0 Z " fill="#EAEAE4" transform="translate(81,84)"/>
<path d="M0 0 C2.475 0.99 2.475 0.99 5 2 C4.01 2.495 4.01 2.495 3 3 C3 3.66 3 4.32 3 5 C3.5775 5.2475 4.155 5.495 4.75 5.75 C7 7 7 7 9.0625 9.125 C10.90993327 11.34771071 10.90993327 11.34771071 14 11 C13.62005832 13.75457718 13.1926367 14.82020574 11.125 16.75 C9 18 9 18 6 18 C5.67 16.68 5.34 15.36 5 14 C4.38125 13.95875 3.7625 13.9175 3.125 13.875 C1 13 1 13 -0.3125 10.1875 C-0.97795714 7.10219873 -0.99443657 5.88386605 0 3 C0 2.01 0 1.02 0 0 Z " fill="#F07F31" transform="translate(123,98)"/>
<path d="M0 0 C0 4.29 0 8.58 0 13 C-2.64 13 -5.28 13 -8 13 C-8.66 9.04 -9.32 5.08 -10 1 C-6 0 -6 0 0 0 Z " fill="#F0F0EA" transform="translate(100,30)"/>
<path d="M0 0 C3.3 0 6.6 0 10 0 C10.33 2.97 10.66 5.94 11 9 C3.375 12 3.375 12 0 12 C0 8.04 0 4.08 0 0 Z " fill="#FAD42E" transform="translate(55,78)"/>
<path d="M0 0 C1.66666667 1.66666667 3.33333333 3.33333333 5 5 C6.36125 6.2375 6.36125 6.2375 7.75 7.5 C10.1972452 10.21916134 10.34428314 11.534068 11 15 C12.3118596 15.70798772 13.65086141 16.36592801 15 17 C16.64053957 18.12347182 18.26467011 19.27113956 19.875 20.4375 C25.71876385 24.56150318 31.10852203 27.20821573 38 29 C34.68333277 30.12059732 32.82647412 29.88108499 29.5625 28.6875 C28.78132813 28.40648437 28.00015625 28.12546875 27.1953125 27.8359375 C24.78475854 26.91803973 22.37886974 25.99759054 20 25 C20 24.34 20 23.68 20 23 C19.01 23 18.02 23 17 23 C17 22.34 17 21.68 17 21 C16.34 21 15.68 21 15 21 C14.67 20.34 14.34 19.68 14 19 C13.25363281 18.58621094 12.50726563 18.17242187 11.73828125 17.74609375 C8.40011484 15.61747694 6.54874919 13.23041144 4.1875 10.0625 C3.00220703 8.50208984 3.00220703 8.50208984 1.79296875 6.91015625 C0 4 0 4 0 0 Z " fill="#DBDCDB" transform="translate(49,114)"/>
<path d="M0 0 C-0.87834025 5.15743379 -4.30837363 7.57577514 -8 11 C-8.52722656 11.54269531 -9.05445313 12.08539063 -9.59765625 12.64453125 C-14.4840683 17.38687219 -20.36767094 19.64359984 -27 21 C-28.32 20.67 -29.64 20.34 -31 20 C-28.03 19.01 -25.06 18.02 -22 17 C-22 16.34 -22 15.68 -22 15 C-20.20522381 13.89322135 -18.36141865 12.86560646 -16.5 11.875 C-11.33705655 8.97618423 -7.47133308 5.89323319 -3.5234375 1.50390625 C-2 0 -2 0 0 0 Z " fill="#8E8F8A" transform="translate(151,119)"/>
<path d="M0 0 C3.96 0 7.92 0 12 0 C11.609375 6.8359375 11.609375 6.8359375 11 9 C9.02 9.99 9.02 9.99 7 11 C4.36 9.02 1.72 7.04 -1 5 C-0.67 3.35 -0.34 1.7 0 0 Z " fill="#F0F0EA" transform="translate(108,78)"/>
<path d="M0 0 C6.75 -0.125 6.75 -0.125 9 1 C8.40075776 5.19469571 7.42500059 9.00999834 6 13 C3.03 12.505 3.03 12.505 0 12 C0 8.04 0 4.08 0 0 Z " fill="#F0F0EA" transform="translate(101,44)"/>
<path d="M0 0 C3.39914975 1.13304992 4.05254451 2.12518475 6 5 C5.67 5.66 5.34 6.32 5 7 C5.33 7.33 5.66 7.66 6 8 C6.68268138 9.32520503 7.3507041 10.65812182 8 12 C4.44757118 13.18414294 3.30169438 12.69535532 -0.1875 11.5625 C-1.08855469 11.27503906 -1.98960938 10.98757812 -2.91796875 10.69140625 C-3.60503906 10.46324219 -4.29210937 10.23507813 -5 10 C-4.45276317 6.62537285 -3.9451 4.91765 -2 2 C-1.34 2 -0.68 2 0 2 C0 1.34 0 0.68 0 0 Z " fill="#ECECE7" transform="translate(87,62)"/>
<path d="M0 0 C1.65 0 3.3 0 5 0 C4.54240047 6.5508985 3.7899856 12.6753842 2 19 C0.35 19 -1.3 19 -3 19 C-2.68798326 16.95825942 -2.37536431 14.91661087 -2.0625 12.875 C-1.88847656 11.73804688 -1.71445313 10.60109375 -1.53515625 9.4296875 C-1.04410734 6.28267331 -0.52981281 3.14069217 0 0 Z " fill="#13567C" transform="translate(162,164)"/>
<path d="M0 0 C-0.33 4.29 -0.66 8.58 -1 13 C-5.34459562 12.13108088 -7.51511336 11.48920474 -11 9 C-11 7 -11 7 -9.35546875 5.2734375 C-8.64003906 4.64695312 -7.92460938 4.02046875 -7.1875 3.375 C-6.47980469 2.74335937 -5.77210937 2.11171875 -5.04296875 1.4609375 C-3 0 -3 0 0 0 Z " fill="#F2F2EB" transform="translate(98,84)"/>
<path d="M0 0 C2.07647876 -0.30806453 2.07647876 -0.30806453 4.1875 -0.9375 C5.445625 -1.288125 6.70375 -1.63875 8 -2 C7 0 7 0 5.109375 0.81640625 C4.33078125 1.06261719 3.5521875 1.30882812 2.75 1.5625 C1.59757812 1.93568359 1.59757812 1.93568359 0.421875 2.31640625 C-3.87755102 3.52995392 -7.82908468 4.12380652 -12.30078125 4.09765625 C-13.27724609 4.09443359 -14.25371094 4.09121094 -15.25976562 4.08789062 C-16.26716797 4.07951172 -17.27457031 4.07113281 -18.3125 4.0625 C-19.33923828 4.05798828 -20.36597656 4.05347656 -21.42382812 4.04882812 C-23.94927882 4.03708184 -26.47460905 4.02065565 -29 4 C-29 3.67 -29 3.34 -29 3 C-23.72 2.34 -18.44 1.68 -13 1 C-13 0.34 -13 -0.32 -13 -1 C-8.43404052 -2.58052444 -4.46941792 -1.48980597 0 0 Z " fill="#989893" transform="translate(124,139)"/>
<path d="M0 0 C3.96 0 7.92 0 12 0 C12.33 1.65 12.66 3.3 13 5 C11.75336669 5.50833591 10.50250613 6.00631145 9.25 6.5 C8.55390625 6.7784375 7.8578125 7.056875 7.140625 7.34375 C5 8 5 8 1 8 C0.67 5.36 0.34 2.72 0 0 Z " fill="#FAD32E" transform="translate(67,78)"/>
<path d="M0 0 C0.66 0 1.32 0 2 0 C2.66 0.66 3.32 1.32 4 2 C5.98 1.34 7.96 0.68 10 0 C12.08386889 5.27913453 12.57910004 10.39538469 13 16 C10.27342162 13.35132386 7.70870428 10.70246599 5.3125 7.75 C3.2957678 4.98257806 3.2957678 4.98257806 1 4 C0.375 1.9375 0.375 1.9375 0 0 Z " fill="#DA7E3F" transform="translate(86,58)"/>
<path d="M0 0 C0.66 0 1.32 0 2 0 C4.95047835 4.61012242 6.5497272 7.36529617 6 13 C4.68 13 3.36 13 2 13 C1.67 11.02 1.34 9.04 1 7 C0.05125 7.495 -0.8975 7.99 -1.875 8.5 C-5 10 -5 10 -7 10 C-5.32598022 6.04322598 -2.86850715 3.15535787 0 0 Z " fill="#F2F2EB" transform="translate(114,64)"/>
<path d="M0 0 C3.33266703 2.87821244 4.79794754 5.73206422 5.19140625 10.1484375 C5.3010325 14.54810442 5.06067267 18.0074467 3 22 C1.84058962 18.52176885 2.29179116 16.54104422 3 13 C-0.96 13 -4.92 13 -9 13 C-9 13.66 -9 14.32 -9 15 C-9.99 15.33 -10.98 15.66 -12 16 C-12.99 15.34 -13.98 14.68 -15 14 C-15 13.34 -15 12.68 -15 12 C-8.565 11.505 -8.565 11.505 -2 11 C-1.67 10.01 -1.34 9.02 -1 8 C-1 9.32 -1 10.64 -1 12 C0.32 12 1.64 12 3 12 C2.5359375 10.14375 2.5359375 10.14375 2.0625 8.25 C1.375 5.5 0.6875 2.75 0 0 Z " fill="#A9A9A6" transform="translate(117,65)"/>
<path d="M0 0 C4.43090471 1.20842856 6.98112756 2.51668565 10 6 C8.5 8.0625 8.5 8.0625 6 10 C3.17593353 10.05928384 0.79774073 9.55954815 -2 9 C-1.125 1.125 -1.125 1.125 0 0 Z " fill="#BEDB60" transform="translate(113,38)"/>
<path d="M0 0 C0.66 0.33 1.32 0.66 2 1 C1.52949219 1.39832031 1.05898437 1.79664062 0.57421875 2.20703125 C-0.04839844 2.73683594 -0.67101562 3.26664062 -1.3125 3.8125 C-1.92738281 4.33457031 -2.54226562 4.85664062 -3.17578125 5.39453125 C-5.01489473 6.95288786 -5.01489473 6.95288786 -6.54296875 8.69921875 C-8 10 -8 10 -11 10 C-11 10.66 -11 11.32 -11 12 C-12.32 11.67 -13.64 11.34 -15 11 C-15.33 9.68 -15.66 8.36 -16 7 C-13.03 6.34 -10.06 5.68 -7 5 C-7 4.34 -7 3.68 -7 3 C-4.69631264 1.93347808 -2.35981813 0.93578995 0 0 Z " fill="#4D6EC5" transform="translate(91,82)"/>
<path d="M0 0 C3.98036219 1.99018109 4.66470578 2.53365995 6.75 6.125 C7.39195313 7.21167969 7.39195313 7.21167969 8.046875 8.3203125 C8.51867187 9.15175781 8.51867187 9.15175781 9 10 C4.375 13 4.375 13 1 13 C0.67 8.71 0.34 4.42 0 0 Z " fill="#EDEEE8" transform="translate(103,84)"/>
<path d="M0 0 C1 2 1 2 0.0625 5.125 C-0.288125 6.07375 -0.63875 7.0225 -1 8 C-0.01 8.33 0.98 8.66 2 9 C0.68 9 -0.64 9 -2 9 C-2.02707139 11.24993359 -2.04642829 13.49996095 -2.0625 15.75 C-2.07410156 17.00296875 -2.08570312 18.2559375 -2.09765625 19.546875 C-2.02021027 22.28536501 -1.82780815 24.41880293 -1 27 C-1.99 27 -2.98 27 -4 27 C-4.33 24.03 -4.66 21.06 -5 18 C-8.3 18 -11.6 18 -15 18 C-15 17.67 -15 17.34 -15 17 C-11.7 17 -8.4 17 -5 17 C-4.67 14.03 -4.34 11.06 -4 8 C-4.66 7.67 -5.32 7.34 -6 7 C-5.01 6.67 -4.02 6.34 -3 6 C-1.29144978 2.99992729 -1.29144978 2.99992729 0 0 Z " fill="#ECC321" transform="translate(70,60)"/>
<path d="M0 0 C2.31 0 4.62 0 7 0 C7 3.96 7 7.92 7 12 C5.68 12 4.36 12 3 12 C2.49440092 10.56445975 1.9957251 9.1264798 1.5 7.6875 C1.2215625 6.88699219 0.943125 6.08648437 0.65625 5.26171875 C0 3 0 3 0 0 Z " fill="#F1F1EB" transform="translate(93,44)"/>
<path d="M0 0 C3.07210269 1.05329235 5.06696084 2.0571617 7.5625 4.1875 C9.80776288 6.28573236 9.80776288 6.28573236 12.3125 5.75 C13.1478125 5.37875 13.1478125 5.37875 14 5 C14 6.98 14 8.96 14 11 C13.01 11.495 13.01 11.495 12 12 C11.01 11.01 10.02 10.02 9 9 C9 9.66 9 10.32 9 11 C6.53955077 10.61095461 5.27840279 10.28572918 3.515625 8.4765625 C3.09796875 7.86554688 2.6803125 7.25453125 2.25 6.625 C1.82203125 6.01914063 1.3940625 5.41328125 0.953125 4.7890625 C0 3 0 3 0 0 Z " fill="#C98050" transform="translate(105,82)"/>
<path d="M0 0 C1.875 0.3125 1.875 0.3125 4 1 C4.66 1.99 5.32 2.98 6 4 C3.36 6.64 0.72 9.28 -2 12 C-2.99 11.67 -3.98 11.34 -5 11 C-4.46884894 6.48521602 -2.63379708 3.65333143 0 0 Z " fill="#EDEDE7" transform="translate(118,50)"/>
<path d="M0 0 C0.598125 0.226875 1.19625 0.45375 1.8125 0.6875 C2.1758218 7.10618512 2.1758218 7.10618512 0.5625 9.6875 C-1.1875 10.6875 -1.1875 10.6875 -3.375 10.375 C-3.973125 10.148125 -4.57125 9.92125 -5.1875 9.6875 C-5.5508218 3.26881488 -5.5508218 3.26881488 -3.9375 0.6875 C-2.1875 -0.3125 -2.1875 -0.3125 0 0 Z " fill="#E6E8EA" transform="translate(125.1875,168.3125)"/>
<path d="M0 0 C0.82422508 2.35717874 1.15185353 3.57799821 0.29296875 5.96484375 C-0.07183594 6.61582031 -0.43664062 7.26679687 -0.8125 7.9375 C-2.00079676 10.09530964 -3.01433215 12.04363818 -3.78515625 14.390625 C-5.40551014 17.87099927 -7.88364509 20.20682128 -10.625 22.8125 C-11.3984375 23.56563477 -11.3984375 23.56563477 -12.1875 24.33398438 C-13.45159154 25.56296227 -14.72488806 26.78246001 -16 28 C-16.66 27.67 -17.32 27.34 -18 27 C-17.38511719 26.443125 -16.77023438 25.88625 -16.13671875 25.3125 C-11.00667241 20.46881989 -7.86460322 16.83687846 -6 10 C-5.34 10 -4.68 10 -4 10 C-3.71125 9.278125 -3.4225 8.55625 -3.125 7.8125 C-2.08333333 5.20833333 -1.04166667 2.60416667 0 0 Z " fill="#C0C0C0" transform="translate(162,103)"/>
<path d="M0 0 C1.32 0.33 2.64 0.66 4 1 C4.36923077 6.41538462 4.36923077 6.41538462 2.5 9.375 C2.005 9.91125 1.51 10.4475 1 11 C-0.32 10.67 -1.64 10.34 -3 10 C-2.25 3.375 -2.25 3.375 0 0 Z " fill="#E2E5E8" transform="translate(178,168)"/>
<path d="M0 0 C0.99 0.33 1.98 0.66 3 1 C3.3633218 7.41868512 3.3633218 7.41868512 1.75 10 C0 11 0 11 -2.1875 10.6875 C-2.785625 10.460625 -3.38375 10.23375 -4 10 C-3.38461538 3.47692308 -3.38461538 3.47692308 -1.4375 1.0625 C-0.7259375 0.5365625 -0.7259375 0.5365625 0 0 Z " fill="#DDE2E5" transform="translate(93,168)"/>
<path d="M0 0 C0.36630156 3.93774177 0.30233203 5.56539771 -2 8.875 C-2.66 9.57625 -3.32 10.2775 -4 11 C-4.99 10.67 -5.98 10.34 -7 10 C-7.3327958 6.33924624 -7.46170299 4.60499012 -5.1875 1.625 C-3 0 -3 0 0 0 Z " fill="#DFE3E6" transform="translate(62,168)"/>
<path d="M0 0 C5.82288742 1.83005033 9.20387478 5.48434071 12.375 10.5625 C14 14 14 14 13.75 16.4375 C13.5025 16.953125 13.255 17.46875 13 18 C9.86604287 15.08003554 7.62311038 12.07706196 5.375 8.4375 C4.78460938 7.48746094 4.19421875 6.53742187 3.5859375 5.55859375 C2.80089844 4.29208984 2.80089844 4.29208984 2 3 C1.34 2.01 0.68 1.02 0 0 Z " fill="#D4D4CF" transform="translate(147,35)"/>
<path d="M0 0 C0.33 0 0.66 0 1 0 C0.67 3.3 0.34 6.6 0 10 C-0.33 10 -0.66 10 -1 10 C-1 8.35 -1 6.7 -1 5 C-3.74701777 6.52612098 -5.89582757 7.88951409 -8.0625 10.1875 C-10 12 -10 12 -14 12 C-12.86085739 8.58257218 -11.93609692 7.87119402 -9.125 5.75 C-8.42632812 5.20859375 -7.72765625 4.6671875 -7.0078125 4.109375 C-6.34523438 3.74328125 -5.68265625 3.3771875 -5 3 C-4.01 3.33 -3.02 3.66 -2 4 C-1.34 2.68 -0.68 1.36 0 0 Z " fill="#BBBBB7" transform="translate(99,79)"/>
<path d="M0 0 C0 0.66 0 1.32 0 2 C-0.598125 2.268125 -1.19625 2.53625 -1.8125 2.8125 C-4.04327908 3.8893979 -4.04327908 3.8893979 -5.625 5.625 C-6.07875 6.07875 -6.5325 6.5325 -7 7 C-7.66 7 -8.32 7 -9 7 C-9 7.66 -9 8.32 -9 9 C-10.32 9.33 -11.64 9.66 -13 10 C-12.67 8.68 -12.34 7.36 -12 6 C-13.98 6.33 -15.96 6.66 -18 7 C-14.81237635 4.87491756 -12.73487777 4.4979837 -9 4 C-9 3.34 -9 2.68 -9 2 C-5.62902617 0.50178941 -3.79557881 0 0 0 Z " fill="#C6B97E" transform="translate(93,78)"/>
<path d="M0 0 C3 3 3 3 3.37231445 5.12890625 C3.3693335 5.93199219 3.36635254 6.73507813 3.36328125 7.5625 C3.36263672 8.44164063 3.36199219 9.32078125 3.36132812 10.2265625 C3.34521484 11.14179687 3.32910156 12.05703125 3.3125 13 C3.31572266 13.91523437 3.31894531 14.83046875 3.32226562 15.7734375 C3.26721939 22.59917092 3.26721939 22.59917092 1 26 C0.67 17.42 0.34 8.84 0 0 Z " fill="#B0B0AD" transform="translate(164,70)"/>
<path d="M0 0 C-0.97023417 5.88608728 -5.94245685 9.27611249 -10.3125 12.9375 C-12 14 -12 14 -14 14 C-13.45380548 10.23456806 -12.02518177 8.81182464 -9.125 6.4375 C-6.14132418 3.97427361 -6.14132418 3.97427361 -3.3671875 1.28515625 C-2 0 -2 0 0 0 Z " fill="#858581" transform="translate(151,119)"/>
<path d="M0 0 C5.75 1.875 5.75 1.875 8 3 C8 3.66 8 4.32 8 5 C9.65 5.33 11.3 5.66 13 6 C13 6.99 13 7.98 13 9 C13.66 9.66 14.32 10.32 15 11 C7.83146067 10.02247191 7.83146067 10.02247191 5 8 C4.28272222 6.35448038 3.61674772 4.68577711 3 3 C1.47992158 1.22722741 1.47992158 1.22722741 0 0 Z " fill="#B0B0AA" transform="translate(69,131)"/>
<path d="M0 0 C-0.33 0.99 -0.66 1.98 -1 3 C-8.26 3 -15.52 3 -23 3 C-23 2.67 -23 2.34 -23 2 C-19.72941155 1.66423447 -16.45849221 1.3318073 -13.1875 1 C-12.25873047 0.90460938 -11.32996094 0.80921875 -10.37304688 0.7109375 C-9.48037109 0.62070313 -8.58769531 0.53046875 -7.66796875 0.4375 C-6.84578857 0.35371094 -6.0236084 0.26992187 -5.17651367 0.18359375 C-3 0 -3 0 0 0 Z " fill="#91918C" transform="translate(118,140)"/>
<path d="M0 0 C0.99 0.33 1.98 0.66 3 1 C3 1.66 3 2.32 3 3 C2.34 3 1.68 3 1 3 C-0.07525194 5.65228812 -1.09456151 8.28368454 -2 11 C1.3 11.66 4.6 12.32 8 13 C8 13.33 8 13.66 8 14 C1.95198929 13.45018084 -3.30601106 12.09570426 -9 10 C-8.38511719 9.88269531 -7.77023438 9.76539062 -7.13671875 9.64453125 C-3.93224119 8.67791553 -2.83307473 6.71800736 -1 4 C-0.22166466 1.81785432 -0.22166466 1.81785432 0 0 Z " fill="#A19C86" transform="translate(84,61)"/>
<path d="M0 0 C0.66 0 1.32 0 2 0 C3.29243536 4.1196377 4.26252625 7.66831683 4 12 C2.68 12 1.36 12 0 12 C0 8.04 0 4.08 0 0 Z " fill="#90FC8F" transform="translate(101,99)"/>
<path d="M0 0 C0.66 0 1.32 0 2 0 C2 3.96 2 7.92 2 12 C0.68 12 -0.64 12 -2 12 C-1.85904936 10.3745692 -1.71207913 8.74965949 -1.5625 7.125 C-1.48128906 6.22007813 -1.40007812 5.31515625 -1.31640625 4.3828125 C-1 2 -1 2 0 0 Z " fill="#8FFB8E" transform="translate(98,99)"/>
<path d="M0 0 C1.65 0 3.3 0 5 0 C4.01 3.96 3.02 7.92 2 12 C1.34 12 0.68 12 0 12 C0 8.04 0 4.08 0 0 Z " fill="#EDEDE7" transform="translate(101,58)"/>
<path d="M0 0 C2.56451085 1.09907608 4.09554946 2.0984449 6.0625 4.125 C7.90993327 6.34771071 7.90993327 6.34771071 11 6 C10.60196439 8.88575819 10.20990931 9.82189513 7.9375 11.75 C6.9784375 12.36875 6.9784375 12.36875 6 13 C5.34 12.67 4.68 12.34 4 12 C4.66 10.68 5.32 9.36 6 8 C5.566875 7.59007813 5.13375 7.18015625 4.6875 6.7578125 C4.130625 6.21898438 3.57375 5.68015625 3 5.125 C2.443125 4.59132813 1.88625 4.05765625 1.3125 3.5078125 C0 2 0 2 0 0 Z " fill="#EE7221" transform="translate(126,103)"/>
<path d="M0 0 C1.66666667 1.66666667 3.33333333 3.33333333 5 5 C6.36125 6.2375 6.36125 6.2375 7.75 7.5 C10.11884659 10.13205177 10.70241358 11.52815843 11 15 C9.33333333 13.33333333 7.66666667 11.66666667 6 10 C5.0925 9.175 4.185 8.35 3.25 7.5 C0.88115341 4.86794823 0.29758642 3.47184157 0 0 Z " fill="#D4D4CF" transform="translate(49,114)"/>
<path d="M0 0 C0 1.65 0 3.3 0 5 C-3.63 5.33 -7.26 5.66 -11 6 C-8.45731621 2.18597432 -4.72779558 0 0 0 Z " fill="#5A72B2" transform="translate(115,71)"/>
<path d="M0 0 C1.65 0 3.3 0 5 0 C5 0.33 5 0.66 5 1 C11.93 1.495 11.93 1.495 19 2 C19 1.34 19 0.68 19 0 C20.32 0.66 21.64 1.32 23 2 C20.49502996 3.25248502 18.79146726 3.11374406 15.9921875 3.09765625 C15.00605469 3.09443359 14.01992187 3.09121094 13.00390625 3.08789062 C11.97136719 3.07951172 10.93882813 3.07113281 9.875 3.0625 C8.31458984 3.05573242 8.31458984 3.05573242 6.72265625 3.04882812 C4.14838038 3.03701952 1.57421854 3.02055075 -1 3 C-0.67 2.01 -0.34 1.02 0 0 Z " fill="#AEAEA0" transform="translate(90,138)"/>
<path d="M0 0 C2.5472827 0.45487191 3.97297965 0.97953003 6.0625 2.5625 C7.99946028 4.29792346 7.99946028 4.29792346 11 4 C10.67 4.99 10.34 5.98 10 7 C7.525 6.01 7.525 6.01 5 5 C4.67 5.66 4.34 6.32 4 7 C2.35 5.68 0.7 4.36 -1 3 C-0.67 2.01 -0.34 1.02 0 0 Z " fill="#C97D4A" transform="translate(118,93)"/>
<path d="M0 0 C2.95653744 1.3726781 5.5649856 2.81688364 8 5 C8.75 7.1875 8.75 7.1875 9 9 C8.4225 9.103125 7.845 9.20625 7.25 9.3125 C4.67950842 10.09792798 3.06342716 11.30504197 1 13 C1.33 12.4225 1.66 11.845 2 11.25 C3.27075898 8.80116138 3.27075898 8.80116138 3 5 C1.54166642 3.37485532 1.54166642 3.37485532 0 2 C0 1.34 0 0.68 0 0 Z " fill="#ABABA8" transform="translate(60,37)"/>
<path d="M0 0 C0.66 0.33 1.32 0.66 2 1 C-1.59168455 5.40797649 -6.68988968 8.13635551 -12 10 C-14.3125 9.63671875 -14.3125 9.63671875 -16 9 C-15.18015625 8.60167969 -14.3603125 8.20335937 -13.515625 7.79296875 C-12.43796875 7.26316406 -11.3603125 6.73335937 -10.25 6.1875 C-9.18265625 5.66542969 -8.1153125 5.14335937 -7.015625 4.60546875 C-4.44766758 3.2383308 -2.25529217 1.82284537 0 0 Z " fill="#C5C5C5" transform="translate(142,131)"/>
<path d="M0 0 C0.33 0 0.66 0 1 0 C1 3.96 1 7.92 1 12 C3.475 12.99 3.475 12.99 6 14 C4.25 15.125 4.25 15.125 2 16 C-0.25 15.125 -0.25 15.125 -2 14 C-1.84660156 13.44828125 -1.69320312 12.8965625 -1.53515625 12.328125 C-0.95329729 9.79682617 -0.67564555 7.33558028 -0.4375 4.75 C-0.35371094 3.85796875 -0.26992187 2.9659375 -0.18359375 2.046875 C-0.12300781 1.37140625 -0.06242187 0.6959375 0 0 Z " fill="#94928C" transform="translate(100,58)"/>
<path d="M0 0 C1.8141927 0.28094582 3.62635001 0.57506433 5.4375 0.875 C6.95150391 1.11863281 6.95150391 1.11863281 8.49609375 1.3671875 C9.32238281 1.57601562 10.14867188 1.78484375 11 2 C11.33 2.66 11.66 3.32 12 4 C8.04 4 4.08 4 0 4 C0 2.68 0 1.36 0 0 Z " fill="#F8D32E" transform="translate(81,73)"/>
<path d="M0 0 C0.99 0 1.98 0 3 0 C3 3.96 3 7.92 3 12 C0.50494038 9.50494038 0.64051624 8.32671112 0.375 4.875 C0.30023438 3.96492188 0.22546875 3.05484375 0.1484375 2.1171875 C0.09945312 1.41851562 0.05046875 0.71984375 0 0 Z " fill="#E8E9E5" transform="translate(97,58)"/>
<path d="M0 0 C1.32 0.66 2.64 1.32 4 2 C3.34 3.32 2.68 4.64 2 6 C0.68 5.67 -0.64 5.34 -2 5 C-1.125 1.125 -1.125 1.125 0 0 Z " fill="#2A6486" transform="translate(165,156)"/>
<path d="M0 0 C0.99 0.33 1.98 0.66 3 1 C1.4169423 5.2742558 -1.50568404 7.26531794 -5 10 C-3.66511872 6.40608886 -2.03977277 3.24509304 0 0 Z " fill="#E5E5E0" transform="translate(111,61)"/>
<path d="M0 0 C2.9825906 2.86110015 4.86109676 4.96207034 6 9 C5.67 9.99 5.34 10.98 5 12 C3 11 3 11 2.1484375 8.49609375 C1.89320313 7.48675781 1.63796875 6.47742187 1.375 5.4375 C1.11460937 4.42558594 0.85421875 3.41367187 0.5859375 2.37109375 C0.39257812 1.58863281 0.19921875 0.80617187 0 0 Z " fill="#C3C2BB" transform="translate(158,51)"/>
<path d="M0 0 C2 2 2 2 2.1953125 4.6015625 C2.17210937 5.59929687 2.14890625 6.59703125 2.125 7.625 C2.10695313 8.62789062 2.08890625 9.63078125 2.0703125 10.6640625 C2.03550781 11.82035156 2.03550781 11.82035156 2 13 C0.48046875 11.82421875 0.48046875 11.82421875 -1 10 C-1.07421875 7.51953125 -1.07421875 7.51953125 -0.6875 4.8125 C-0.56761719 3.91144531 -0.44773437 3.01039063 -0.32421875 2.08203125 C-0.21722656 1.39496094 -0.11023438 0.70789063 0 0 Z " fill="#A8B8C4" transform="translate(25,162)"/>
<path d="M0 0 C4.43458973 1.3937282 6.87378374 3.60582235 10 7 C9.67 7.99 9.34 8.98 9 10 C5.06451569 6.93906776 2.31883213 4.50884026 0 0 Z " fill="#DCDCD9" transform="translate(147,35)"/>
<path d="M0 0 C1.80411967 2.75924185 2.0127245 3.88972103 1.625 7.25 C1.41875 8.1575 1.2125 9.065 1 10 C0.34 10 -0.32 10 -1 10 C-1.125 2.25 -1.125 2.25 0 0 Z " fill="#7ED87E" transform="translate(100,82)"/>
<path d="M0 0 C0.66 0.33 1.32 0.66 2 1 C0.8141763 4.37503669 -0.27573689 6.64722731 -3 9 C-2.25 2.25 -2.25 2.25 0 0 Z " fill="#CFF255" transform="translate(108,59)"/>
<path d="M0 0 C0.66 0.66 1.32 1.32 2 2 C-4.5 5.125 -4.5 5.125 -9 4 C-6.03 2.68 -3.06 1.36 0 0 Z " fill="#878783" transform="translate(129,135)"/>
<path d="M0 0 C3.65316671 1.24976756 4.78065836 1.67098753 7 5 C6.01 5 5.02 5 4 5 C3.67 5.66 3.34 6.32 3 7 C0 3.375 0 3.375 0 0 Z " fill="#AD7D5C" transform="translate(105,82)"/>
<path d="M0 0 C0.33 0.66 0.66 1.32 1 2 C-2.41176471 8.70588235 -2.41176471 8.70588235 -5 10 C-3.84414715 6.08788267 -2.64465038 3.1254959 0 0 Z " fill="#DBDCDC" transform="translate(164,105)"/>
<path d="M0 0 C3.39914975 1.13304992 4.05254451 2.12518475 6 5 C5.67 5.66 5.34 6.32 5 7 C4.01 6.67 3.02 6.34 2 6 C2 5.34 2 4.68 2 4 C1.34 4 0.68 4 0 4 C0 2.68 0 1.36 0 0 Z " fill="#C8C9C6" transform="translate(87,62)"/>
<path d="M0 0 C1 2 1 2 0.0625 5.125 C-0.288125 6.07375 -0.63875 7.0225 -1 8 C-0.01 8.33 0.98 8.66 2 9 C-0.64 8.67 -3.28 8.34 -6 8 C-5.01 7.34 -4.02 6.68 -3 6 C-1.93753473 4.03247172 -0.92862192 2.03412421 0 0 Z " fill="#A39E88" transform="translate(70,60)"/>
<path d="M0 0 C0.33 0.66 0.66 1.32 1 2 C0.22265625 3.7265625 0.22265625 3.7265625 -0.9375 5.625 C-1.618125 6.73875 -2.29875 7.8525 -3 9 C-3.66 8.01 -4.32 7.02 -5 6 C-2.25 1.125 -2.25 1.125 0 0 Z " fill="#A3A497" transform="translate(157,104)"/>
<path d="M0 0 C2.64 0 5.28 0 8 0 C5 2 5 2 3 2 C3 2.66 3 3.32 3 4 C2.01 4 1.02 4 0 4 C0 2.68 0 1.36 0 0 Z " fill="#FBD42D" transform="translate(81,78)"/>
<path d="M0 0 C0.33 0 0.66 0 1 0 C1.36923077 5.53846154 1.36923077 5.53846154 -0.5 7.875 C-1.2425 8.431875 -1.2425 8.431875 -2 9 C-2.33 8.34 -2.66 7.68 -3 7 C-2.06421005 4.64018187 -1.06652192 2.30368736 0 0 Z " fill="#9C9C93" transform="translate(159,96)"/>
</svg>
