<?xml version="1.0" encoding="UTF-8"?>
<svg version="1.1" xmlns="http://www.w3.org/2000/svg" width="448" height="314">
<path d="M0 0 C147.84 0 295.68 0 448 0 C448 103.62 448 207.24 448 314 C300.16 314 152.32 314 0 314 C0 210.38 0 106.76 0 0 Z " fill="#FEFEFE" transform="translate(0,0)"/>
<path d="M0 0 C3.37239545 0.06744791 6.02467899 0.13018246 8.625 2.44921875 C10.13597948 4.26318109 11.56901573 6.12258053 13 8 C17.0056022 12.20099743 20.85492599 15.97036447 26.125 18.5 C32.19940718 21.66925592 33.88161657 27.99662551 36.5 34.00390625 C37.83046598 36.66137345 38.82703685 38.07571383 41 40 C43.19602834 43.11694345 45.17194776 46.28432414 47 49.625 C48.7934149 52.65138765 50.50410797 54.58730437 53 57 C53.68268138 58.32520503 54.3507041 59.65812182 55 61 C55.98015465 62.0194591 56.97809023 63.02240068 58 64 C56.6024064 59.62880299 55.19630032 55.3142131 53.3125 51.125 C52 48 52 48 52 45 C51.34 45 50.68 45 50 45 C47.71428571 31.57142857 47.71428571 31.57142857 50 27 C53.29292102 27 55.3628993 27.41359333 57.81640625 29.671875 C59.61182499 31.73486155 61.32053693 33.84186933 63 36 C63.680625 36.804375 64.36125 37.60875 65.0625 38.4375 C66.82077916 40.76296598 68.52345689 43.10645932 70.1875 45.5 C70.69667969 46.2321875 71.20585937 46.964375 71.73046875 47.71875 C73.09182359 50.16499993 73.59727288 52.24398792 74 55 C74.66 55 75.32 55 76 55 C76.55816406 56.01964844 77.11632812 57.03929687 77.69140625 58.08984375 C79.82771575 61.82580076 82.27810419 65.18632982 84.9375 68.5625 C85.35451172 69.10068359 85.77152344 69.63886719 86.20117188 70.19335938 C87.45600672 71.80505606 88.72394889 73.40505801 90 75 C90.44875488 75.56187012 90.89750977 76.12374023 91.35986328 76.70263672 C93.79541557 79.80164492 93.79541557 79.80164492 97 82 C97 82.66 97 83.32 97 84 C97.53625 84.226875 98.0725 84.45375 98.625 84.6875 C101.78500863 86.43382056 104.2676983 88.6402849 107 91 C106.566875 90.175 106.13375 89.35 105.6875 88.5 C104.47554811 85.986322 103.34325369 83.52420092 102.3125 80.9375 C102.06113281 80.30714844 101.80976563 79.67679687 101.55078125 79.02734375 C100.89808044 76.62484926 100.90980335 74.47826034 101 72 C101.69222656 72.52787109 101.69222656 72.52787109 102.3984375 73.06640625 C111.33084852 80.11075332 111.33084852 80.11075332 121 86 C121 86.66 121 87.32 121 88 C121.53109375 88.26554687 122.0621875 88.53109375 122.609375 88.8046875 C127.40625 91.203125 132.203125 93.6015625 137 96 C137 96.66 137 97.32 137 98 C137.66 98.0825 138.32 98.165 139 98.25 C141.64541806 98.91135452 143.48914711 99.68887271 145.875 100.9375 C149.52665833 102.84663696 153.00768011 104.00192003 157 105 C157 105.66 157 106.32 157 107 C158.051875 107.103125 159.10375 107.20625 160.1875 107.3125 C166.22265699 108.05194266 172.09846705 109.56959796 178 111 C178 111.66 178 112.32 178 113 C180.97 113 183.94 113 187 113 C186.31035156 112.14019531 185.62070312 111.28039062 184.91015625 110.39453125 C179.27380308 103.31985977 173.91436986 96.15726831 168.875 88.64453125 C167.1514452 86.05363105 167.1514452 86.05363105 165.29296875 84.3046875 C163.43730664 82.4322067 163.3446703 80.5505602 163 78 C166.23545839 79.07848613 166.7850639 79.68079723 168.8125 82.25 C171.614187 85.64956562 174.57129469 88.24212833 178 91 C179.32 92.32 180.64 93.64 182 95 C187.445 99.455 187.445 99.455 193 104 C193 118.19 193 132.38 193 147 C53.08 147 -86.84 147 -231 147 C-228.58030436 144.58030436 -227.29762266 144.65379784 -224 144 C-222.24604445 143.19796635 -220.51587127 142.34201334 -218.8125 141.4375 C-214.20679887 139 -214.20679887 139 -212 139 C-212 138.34 -212 137.68 -212 137 C-210.35451172 136.20335937 -210.35451172 136.20335937 -208.67578125 135.390625 C-207.22119474 134.67740839 -205.7667765 133.96384852 -204.3125 133.25 C-203.2306543 132.72792969 -203.2306543 132.72792969 -202.12695312 132.1953125 C-197.99154951 130.15593537 -194.55215271 127.9772728 -191 125 C-189.33495251 123.99730631 -187.66826453 122.99733206 -186 122 C-184.2426618 120.65537001 -182.49292887 119.30075577 -180.75 117.9375 C-172.09130308 111.63711306 -164.47329262 111.68101647 -154 112 C-154 111.34 -154 110.68 -154 110 C-153.29875 109.62875 -152.5975 109.2575 -151.875 108.875 C-146.79226659 105.56017387 -143.56604983 100.43613399 -141 95 C-140.34 95 -139.68 95 -139 95 C-138.7525 94.13375 -138.505 93.2675 -138.25 92.375 C-136.91838984 88.77965256 -135.18124592 86.1435603 -133 83 C-132.443125 81.948125 -131.88625 80.89625 -131.3125 79.8125 C-126.6479684 71.61312804 -119.99242496 62.62880158 -111 59 C-106.67006283 58.60705631 -103.63988313 59.57341125 -100 62 C-100 62.66 -100 63.32 -100 64 C-99.42378906 64.24878906 -98.84757813 64.49757813 -98.25390625 64.75390625 C-95.67843288 66.17778148 -93.97988443 67.82428143 -91.9375 69.9375 C-91.26589844 70.62714844 -90.59429687 71.31679687 -89.90234375 72.02734375 C-89.27457031 72.67832031 -88.64679688 73.32929688 -88 74 C-87.49339844 74.49886719 -86.98679688 74.99773437 -86.46484375 75.51171875 C-84.76896339 77.2347332 -83.20121999 79.04202019 -81.625 80.875 C-76.90816527 86.65689495 -76.90816527 86.65689495 -71 91 C-71 91.66 -71 92.32 -71 93 C-70.2265625 93.37125 -70.2265625 93.37125 -69.4375 93.75 C-66.22815849 95.39581616 -63.12414336 97.1976096 -60 99 C-60 99.66 -60 100.32 -60 101 C-59.236875 101.144375 -58.47375 101.28875 -57.6875 101.4375 C-55 102 -55 102 -52 103 C-53.76168408 98.99993604 -53.76168408 98.99993604 -56.44140625 95.62109375 C-61.14446565 90.72944049 -63.83420238 82.64044086 -64.265625 75.94140625 C-64 74 -64 74 -61.875 71.0625 C-58.38718662 68.56037301 -55.95516049 66.87681541 -51.58203125 67.15234375 C-48.10367994 68.29425333 -47.20140872 69.91451702 -45.1875 72.9375 C-39.79369853 80.75445664 -34.22690494 88.14644541 -27.25 94.625 C-26 96 -26 96 -26 98 C-25.44441406 98.24363281 -24.88882813 98.48726563 -24.31640625 98.73828125 C-21.53077034 100.25558378 -19.34774333 102.12512684 -16.9375 104.1875 C-10.45836026 109.57230783 -3.61033588 114.34491989 4 118 C4 118.66 4 119.32 4 120 C5.32 120.33 6.64 120.66 8 121 C8 121.66 8 122.32 8 123 C8.66 123.0825 9.32 123.165 10 123.25 C13.32530719 124.0813268 15.97279898 125.43409814 18.99609375 127.01171875 C21.58352999 128.28778379 24.24040164 129.17212049 27 130 C27 130.66 27 131.32 27 132 C28.98 132.33 30.96 132.66 33 133 C32.29660434 130.49034386 32.29660434 130.49034386 31 128 C30.401875 127.855625 29.80375 127.71125 29.1875 127.5625 C23.78684724 126.17376072 19.10886058 117.2744697 15.75 112.85546875 C13.65968607 110.11846395 11.53793022 107.42961148 9.3125 104.80078125 C6.7733057 101.7254395 4.87808752 98.4949373 3 95 C2.12708044 93.41551873 1.25201542 91.83221787 0.375 90.25 C-0.02976563 89.51265625 -0.43453125 88.7753125 -0.8515625 88.015625 C-1.82877926 86.30050986 -2.90503635 84.64244548 -4 83 C-4 82.01 -4 81.02 -4 80 C-4.66 80 -5.32 80 -6 80 C-14 61.02766798 -14 61.02766798 -14 56 C-14.66 56 -15.32 56 -16 56 C-16.50806447 54.27318563 -17.00610467 52.54342021 -17.5 50.8125 C-17.91765625 49.36810547 -17.91765625 49.36810547 -18.34375 47.89453125 C-18.96677608 45.14654124 -19.12302812 42.80401584 -19 40 C-19.66 40 -20.32 40 -21 40 C-21 38.68 -21 37.36 -21 36 C-20.34 36 -19.68 36 -19 36 C-18.5978125 37.7015625 -18.5978125 37.7015625 -18.1875 39.4375 C-17.795625 40.613125 -17.40375 41.78875 -17 43 C-16.01 43.33 -15.02 43.66 -14 44 C-12.98648336 45.65848177 -11.98879205 47.32665961 -11 49 C-6.51269174 53.86125062 -1.50706602 58.32862265 4 62 C4 62.66 4 63.32 4 64 C4.598125 64.28875 5.19625 64.5775 5.8125 64.875 C8 66 8 66 11 68 C11 67.01 11 66.02 11 65 C10.01 64.67 9.02 64.34 8 64 C6.5522078 61.10441559 6 59.25811062 6 56 C5.34 56 4.68 56 4 56 C3.49440092 54.56445975 2.9957251 53.1264798 2.5 51.6875 C2.08234375 50.48673828 2.08234375 50.48673828 1.65625 49.26171875 C1 47 1 47 1 44 C0.34 44 -0.32 44 -1 44 C-3.96298063 30.57840323 -6.35538403 16.44254332 -2 3 C-1.34 2.01 -0.68 1.02 0 0 Z " fill="#FCFCFC" transform="translate(255,167)"/>
<path d="M0 0 C3.98066095 1.57724302 5.60667274 2.41000911 8 6 C10.71406645 6.65621318 10.71406645 6.65621318 13.8125 6.9375 C18.5974311 7.62597929 21.68502658 8.22778887 25 12 C26.10445137 15.3133541 26.13304048 17.82695195 26.125 21.3125 C26.12757813 22.42238281 26.13015625 23.53226563 26.1328125 24.67578125 C26.00527335 27.86801125 25.59757773 30.86508827 25 34 C24.34 34 23.68 34 23 34 C22.34 36.97 21.68 39.94 21 43 C20.34 43 19.68 43 19 43 C18.34 44.32 17.68 45.64 17 47 C12.25 46.125 12.25 46.125 10 45 C9.43908133 43.05276939 8.92564665 41.09173579 8.4375 39.125 C7.11520665 34.58124262 7.11520665 34.58124262 3.73828125 31.5390625 C1.48115926 30.82330325 -0.65324006 30.30086666 -3 30 C-3 29.34 -3 28.68 -3 28 C-7.60742865 29.21044132 -7.60742865 29.21044132 -12 31 C-11.97679687 31.80824219 -11.95359375 32.61648437 -11.9296875 33.44921875 C-11.91164062 34.51785156 -11.89359375 35.58648437 -11.875 36.6875 C-11.85179687 37.74324219 -11.82859375 38.79898438 -11.8046875 39.88671875 C-12.00141271 43.02251859 -12.66942346 45.17645373 -14 48 C-14.66 48 -15.32 48 -16 48 C-16.99 50.97 -17.98 53.94 -19 57 C-19.66 57 -20.32 57 -21 57 C-21.99 59.97 -22.98 62.94 -24 66 C-27.88552869 66.40749267 -29.58915749 66.27519221 -32.88671875 64.06640625 C-33.81097656 63.24011719 -34.73523438 62.41382813 -35.6875 61.5625 C-39.46048019 58.12309122 -39.46048019 58.12309122 -44 56 C-42.02 71.84 -42.02 71.84 -40 88 C-34.39 88.33 -28.78 88.66 -23 89 C-23 89.66 -23 90.32 -23 91 C-22.11739502 90.98428955 -21.23479004 90.9685791 -20.32543945 90.95239258 C-17.03599114 90.90112002 -13.74697039 90.86358083 -10.45727539 90.83520508 C-9.03630859 90.8201624 -7.61538787 90.79972296 -6.19458008 90.77368164 C-4.14653114 90.73709653 -2.0990985 90.72022903 -0.05078125 90.70703125 C1.17987061 90.6913208 2.41052246 90.67561035 3.6784668 90.65942383 C7.27740952 91.02844442 9.1462978 91.81530485 12 94 C12.7421875 96.0859375 12.7421875 96.0859375 12.875 98.375 C12.93042969 99.17421875 12.98585938 99.9734375 13.04296875 100.796875 C13 103 13 103 12.1875 105.625 C11.74164802 108.03966561 11.74164802 108.03966561 13.265625 109.78515625 C14.36355185 111.03443283 15.49226693 112.2574314 16.65234375 113.44921875 C18 115 18 115 18 117 C18.66 117 19.32 117 20 117 C20.95254189 118.39479348 21.89898046 119.79418653 22.8125 121.21484375 C27.02308611 127.54457352 30.99153642 130.97911053 38 134 C38 134.66 38 135.32 38 136 C39.19625 136.144375 40.3925 136.28875 41.625 136.4375 C45.1005158 136.87039343 48.54950034 137.39616256 52 138 C52 138.66 52 139.32 52 140 C52.99 139.896875 53.98 139.79375 55 139.6875 C59.84260647 139.6875 63.40436714 141.88434623 67 145 C68.5 147.8125 68.5 147.8125 69 150 C69.66 150 70.32 150 71 150 C71.26554687 150.67546875 71.53109375 151.3509375 71.8046875 152.046875 C72.33449219 153.38492188 72.33449219 153.38492188 72.875 154.75 C73.22304688 155.63171875 73.57109375 156.5134375 73.9296875 157.421875 C74.8646709 159.6740248 75.87780794 161.83649459 77 164 C77.66 164 78.32 164 79 164 C80 165 81 166 82 167 C88.07889105 171.46977283 94.92094212 171.97955506 102.25 172.25 C108.55399061 172.73122066 108.55399061 172.73122066 111.125 175.5 C113.33126281 179.61835724 114.31612349 183.40679954 115 188 C115.66 188 116.32 188 117 188 C117.4125 188.86625 117.825 189.7325 118.25 190.625 C121.87813401 197.62211559 125.15684744 201.24623185 132 205 C130.73202172 202.40121569 129.36954401 199.91180065 127.875 197.4375 C126 194 126 194 126 191 C125.34 191 124.68 191 124 191 C124 190.01 124 189.02 124 188 C125.24663331 187.49166409 126.49749387 186.99368855 127.75 186.5 C128.44609375 186.2215625 129.1421875 185.943125 129.859375 185.65625 C132 185 132 185 136 185 C136 184.34 136 183.68 136 183 C138.37316118 182.18177267 140.7482942 181.37031293 143.125 180.5625 C144.12273437 180.21735352 144.12273437 180.21735352 145.140625 179.86523438 C152.11130608 177.50750401 159.63322382 175.7209604 167 177 C171.40986979 180.76676378 172.79618931 184.52813322 174 190 C174.66 190 175.32 190 176 190 C177.17606881 191.83075699 178.26582382 193.71731082 179.3125 195.625 C181.2376928 199.12928352 182.73914172 201.76244606 185.7109375 204.46875 C189.9521002 209.3819478 188.50614989 216.79220115 188.3125 222.875 C188.28739222 224.24475108 188.26458339 225.61454635 188.24414062 226.984375 C188.1853436 230.32404622 188.10319834 233.66145431 188 237 C181.50215517 233.13146552 181.50215517 233.13146552 179 231 C179 230.34 179 229.68 179 229 C177.9171875 228.6596875 177.9171875 228.6596875 176.8125 228.3125 C173.43567583 226.73664872 171.44232961 224.79123384 169 222 C169 221.34 169 220.68 169 220 C167.68 219.34 166.36 218.68 165 218 C165 217.34 165 216.68 165 216 C163.68 215.34 162.36 214.68 161 214 C161 213.34 161 212.68 161 212 C160.34 212.33 159.68 212.66 159 213 C159 213.99 159 214.98 159 216 C159.99 216.33 160.98 216.66 162 217 C163.4375 219.01171875 163.4375 219.01171875 165 221.6875 C168.37848792 227.21461942 172.18939033 232.21098709 176.26757812 237.22729492 C178.58933902 240.10438479 180.33275305 242.66550611 182 246 C179.03 246 176.06 246 173 246 C173 245.34 173 244.68 173 244 C172.40574219 243.96261719 171.81148438 243.92523438 171.19921875 243.88671875 C164.52865413 243.3576382 158.39727101 241.93377584 152 240 C152 239.34 152 238.68 152 238 C151.39414062 237.91363281 150.78828125 237.82726562 150.1640625 237.73828125 C143.5176969 236.62373686 137.72803487 234.61039774 132 231 C131.67 230.34 131.34 229.68 131 229 C129.0727001 227.94142334 127.10763691 226.95090499 125.125 226 C121.91895555 224.45491834 118.96387739 222.97591826 116 221 C116 220.34 116 219.68 116 219 C115.32582031 218.78601563 114.65164063 218.57203125 113.95703125 218.3515625 C110.05019492 216.56587509 107.0084286 214.07004814 103.6875 211.375 C103.04232422 210.859375 102.39714844 210.34375 101.73242188 209.8125 C100.1506196 208.54705818 98.57470937 207.27425738 97 206 C97.45448551 210.9993406 97.88550973 214.5744594 100.625 218.875 C102.0390625 221.1171875 102.0390625 221.1171875 103 223 C102.67 223.66 102.34 224.32 102 225 C100.32756598 223.71580959 98.66218553 222.42242815 97 221.125 C96.071875 220.40570313 95.14375 219.68640625 94.1875 218.9453125 C93.465625 218.30335938 92.74375 217.66140625 92 217 C92 216.34 92 215.68 92 215 C91.42765625 214.77183594 90.8553125 214.54367188 90.265625 214.30859375 C82.47883115 209.81104902 75.69134933 198.56751717 71 191 C71 190.01 71 189.02 71 188 C70.34 188 69.68 188 69 188 C68.67386719 187.32453125 68.34773438 186.6490625 68.01171875 185.953125 C67.57472656 185.06109375 67.13773437 184.1690625 66.6875 183.25 C66.04361328 181.92742187 66.04361328 181.92742187 65.38671875 180.578125 C64.07633928 177.98339185 64.07633928 177.98339185 62.33203125 175.796875 C61 174 61 174 61 172 C60.01 171.67 59.02 171.34 58 171 C56.66666667 169 55.33333333 167 54 165 C50.82697556 162.06495239 49.2616922 161.06542305 45 160 C45 165.94 45 171.88 45 178 C45.66 178 46.32 178 47 178 C48.19922024 180.76628111 49.38460499 183.537155 50.5625 186.3125 C50.90474609 187.09818359 51.24699219 187.88386719 51.59960938 188.69335938 C51.91865234 189.45068359 52.23769531 190.20800781 52.56640625 190.98828125 C52.86490479 191.68477783 53.16340332 192.38127441 53.47094727 193.09887695 C54 195 54 195 53 198 C52.67 197.01 52.34 196.02 52 195 C51.01 194.67 50.02 194.34 49 194 C47.98308736 192.00854609 46.98357352 190.00812926 46 188 C45.01 187.34 44.02 186.68 43 186 C41.99129939 184.30798607 40.987715 182.61169106 40.05078125 180.87890625 C39.03871187 179.06922085 37.93303532 177.38889708 36.75 175.6875 C35 173 35 173 35 171 C34.01 170.67 33.02 170.34 32 170 C30.70417838 167.43181055 29.52606343 164.88108457 28.375 162.25 C25.55037147 156.16240416 23.44416618 152.59003124 17.03515625 149.9296875 C13.68156334 148.39771992 12.19284565 145.92379419 10 143 C4.52603332 136.69526218 4.52603332 136.69526218 -2.8125 133.75 C-3.534375 133.8325 -4.25625 133.915 -5 134 C-10.93552252 147.05814954 -8.02376794 163.24921959 -6 177 C-5.34 177 -4.68 177 -4 177 C-3.01 180.96 -2.02 184.92 -1 189 C-0.34 189 0.32 189 1 189 C1.19335938 189.56589844 1.38671875 190.13179687 1.5859375 190.71484375 C1.84632813 191.44832031 2.10671875 192.18179688 2.375 192.9375 C2.63023437 193.66839844 2.88546875 194.39929688 3.1484375 195.15234375 C3.85271413 197.18682116 3.85271413 197.18682116 6 198 C6 198.99 6 199.98 6 201 C3.22992511 199.71733489 1.03244356 198.33456772 -1.25 196.3125 C-1.85199219 195.78140625 -2.45398438 195.2503125 -3.07421875 194.703125 C-3.70972656 194.14109375 -4.34523437 193.5790625 -5 193 C-5.66644531 192.43796875 -6.33289063 191.8759375 -7.01953125 191.296875 C-11.47916083 187.51087971 -15.32129187 183.54107591 -19 179 C-19.763125 178.13375 -20.52625 177.2675 -21.3125 176.375 C-23.10929062 173.84618357 -23.6508124 172.05539153 -24 169 C-24.66 169 -25.32 169 -26 169 C-26 170.32 -26 171.64 -26 173 C-25.34 173 -24.68 173 -24 173 C-23.49595192 175.10320063 -22.99689492 177.20759791 -22.5 179.3125 C-22.08234375 181.07013672 -22.08234375 181.07013672 -21.65625 182.86328125 C-21 186 -21 186 -21 189 C-20.34 189 -19.68 189 -19 189 C-18.75765625 189.76183594 -18.5153125 190.52367187 -18.265625 191.30859375 C-16.38583213 197.09980179 -14.3891295 202.67706714 -11.734375 208.16015625 C-11 210 -11 210 -11 213 C-10.34 213 -9.68 213 -9 213 C-8.62875 213.763125 -8.2575 214.52625 -7.875 215.3125 C-4.75469146 221.53832889 -1.58629355 227.82496806 2.375 233.5625 C4 236 4 236 4 238 C4.99 238.33 5.98 238.66 7 239 C7.94974799 240.35678284 8.88934204 241.72209306 9.76953125 243.125 C12.26614128 246.92935815 15.17113587 250.44008109 18 254 C18.48082031 254.61875 18.96164062 255.2375 19.45703125 255.875 C21.59018213 258.55593887 22.67711217 259.89237072 26 261 C27.1875 263.5625 27.1875 263.5625 28 266 C26.02 265.67 24.04 265.34 22 265 C22 264.34 22 263.68 22 263 C20.081875 262.6596875 20.081875 262.6596875 18.125 262.3125 C12.61331172 261.11202099 7.92174841 258.69206281 3 256 C3 255.34 3 254.68 3 254 C1.68 253.67 0.36 253.34 -1 253 C-1 252.34 -1 251.68 -1 251 C-1.87140625 250.74347656 -2.7428125 250.48695313 -3.640625 250.22265625 C-15.57925887 245.87754881 -25.29118019 235.93799928 -34 227 C-34.58007812 226.4534375 -35.16015625 225.906875 -35.7578125 225.34375 C-43.31227063 218.11517045 -49.26686153 209.7030075 -55 201 C-60.79939356 201.59568123 -60.79939356 201.59568123 -66 204 C-68.46814798 207.70222197 -68.18204321 209.1384148 -67.625 213.37890625 C-66.66082164 217.42242926 -64.90105955 221.0038149 -63.05859375 224.71484375 C-62 227 -62 227 -62 229 C-61.01 229.33 -60.02 229.66 -59 230 C-57.8125 233.0625 -57.8125 233.0625 -57 236 C-59.76276177 235.47731534 -62.3260876 234.89130413 -65 234 C-65 233.34 -65 232.68 -65 232 C-66.3303125 231.62875 -66.3303125 231.62875 -67.6875 231.25 C-71.13156256 229.95035375 -73.33024803 228.51270773 -76 226 C-76 225.34 -76 224.68 -76 224 C-76.72703125 223.77054688 -77.4540625 223.54109375 -78.203125 223.3046875 C-81.55195985 221.74252152 -83.30897662 219.88548618 -85.75 217.125 C-86.52859375 216.26132813 -87.3071875 215.39765625 -88.109375 214.5078125 C-90 212 -90 212 -90.515625 209.8046875 C-90.75539062 208.91136719 -90.75539062 208.91136719 -91 208 C-92.84448589 206.95236659 -92.84448589 206.95236659 -95 206 C-96.41838177 204.6913421 -97.79241236 203.33342355 -99.125 201.9375 C-101.77905 199.08428067 -101.77905 199.08428067 -105 197 C-105 196.34 -105 195.68 -105 195 C-109.79946942 193.0099761 -112.97556687 192.55228198 -118 194 C-127.68077674 199.50649686 -134.26629045 209.15231061 -139 219 C-139.88522262 220.63080449 -140.78011527 222.25642183 -141.6875 223.875 C-142.12449219 224.65617188 -142.56148438 225.43734375 -143.01171875 226.2421875 C-143.33785156 226.82226562 -143.66398437 227.40234375 -144 228 C-144.66 228 -145.32 228 -146 228 C-146.185625 228.825 -146.37125 229.65 -146.5625 230.5 C-148.45959353 235.11901032 -151.25617639 238.6905863 -155 242 C-157.2265625 242.73046875 -157.2265625 242.73046875 -159 243 C-159 243.66 -159 244.32 -159 245 C-160.2065625 245.09796875 -161.413125 245.1959375 -162.65625 245.296875 C-164.27091175 245.44707609 -165.88549105 245.5981653 -167.5 245.75 C-168.29148437 245.811875 -169.08296875 245.87375 -169.8984375 245.9375 C-177.48873508 246.68408665 -183.52777595 249.14773938 -189.0625 254.5 C-192.36448447 257.67915353 -196.01352838 259.79942199 -200 262 C-201.21571579 262.70983111 -202.4292756 263.42336792 -203.640625 264.140625 C-205.4453125 265.1953125 -205.4453125 265.1953125 -207.25 266.25 C-208.16652344 266.79527344 -208.16652344 266.79527344 -209.1015625 267.3515625 C-213.66165414 270 -213.66165414 270 -217 270 C-217 270.66 -217 271.32 -217 272 C-218.89192475 272.98669759 -220.78871978 273.9640602 -222.6875 274.9375 C-224.27111328 275.75541016 -224.27111328 275.75541016 -225.88671875 276.58984375 C-228.66234047 277.8470576 -231.00272126 278.56069569 -234 279 C-229.75170758 273.92819244 -225.31642618 269.16258545 -220.625 264.5 C-220.00367188 263.87480469 -219.38234375 263.24960937 -218.7421875 262.60546875 C-215.65511741 259.5247769 -212.5247149 256.55478975 -209.2109375 253.71875 C-203.86265521 249.09924749 -198.95802937 244.02881021 -194 239 C-188.35615166 233.27558006 -182.73189089 227.58693861 -176.59521484 222.38256836 C-175.20739143 221.17974558 -173.90664837 219.87787596 -172.625 218.5625 C-171 217 -171 217 -169 217 C-168.67 216.01 -168.34 215.02 -168 214 C-166.328125 212.3515625 -166.328125 212.3515625 -164.25 210.625 C-161.75883654 208.52224374 -159.37231472 206.424199 -157.125 204.0625 C-155 202 -155 202 -153 202 C-152.75121094 201.41347656 -152.50242187 200.82695312 -152.24609375 200.22265625 C-150.82588804 197.68943667 -149.28816254 196.29014647 -147.0625 194.4375 C-144.11693957 191.96809867 -144.11693957 191.96809867 -141.37109375 189.28515625 C-140 188 -140 188 -138 188 C-138 187.34 -138 186.68 -138 186 C-136.3214487 184.50370821 -134.58041102 183.07707339 -132.8125 181.6875 C-129.80834456 179.31876164 -127.00401544 177.0040975 -124.32421875 174.26953125 C-122 172 -122 172 -119 171 C-118.401875 170.319375 -117.80375 169.63875 -117.1875 168.9375 C-115 167 -115 167 -112.125 166.5 C-103.64928545 167.85611433 -96.40646666 176.43745269 -91.4921875 183.01953125 C-91.10289062 183.56996094 -90.71359375 184.12039062 -90.3125 184.6875 C-89.549375 185.450625 -88.78625 186.21375 -88 187 C-83.95006285 187 -80.34958235 186.3571135 -77 184 C-75.83333333 182.08333333 -75.83333333 182.08333333 -75 180 C-74.34 179.01 -73.68 178.02 -73 177 C-73.39571756 174.21144878 -73.39571756 174.21144878 -75 172 C-75.13610703 168.92651343 -75.18960647 165.88742612 -75.1875 162.8125 C-75.18814453 161.82523926 -75.18878906 160.83797852 -75.18945312 159.82080078 C-75.11178442 148.02751373 -74.4100688 136.26126408 -73.71166992 124.49145508 C-72.5055355 107.6950613 -72.5055355 107.6950613 -74 91 C-75.216875 91.268125 -76.43375 91.53625 -77.6875 91.8125 C-79.90625 92.08984375 -79.90625 92.08984375 -82 92 C-84.6875 89.875 -84.6875 89.875 -87 87 C-87.86625 86.175 -88.7325 85.35 -89.625 84.5 C-92 82 -92 82 -93.4375 79.5 C-95.48988455 76.21618473 -97.98577917 74.42448197 -101 72 C-102.6168802 68.76623961 -102.51846975 65.50066942 -102 62 C-100.56014657 59.41000209 -99.25865459 57.39683105 -97.4375 55.125 C-96.58107484 54.00333377 -95.72563056 52.88091803 -94.87109375 51.7578125 C-94.40525879 51.17789551 -93.93942383 50.59797852 -93.45947266 50.00048828 C-91.90592212 47.96584233 -91.90592212 47.96584233 -90.59912109 45.40185547 C-88.2221738 41.23488921 -86.54765545 38.53885584 -81.90209961 36.92138672 C-78.16881521 36.33737765 -74.52422752 36.05054547 -70.75 35.875 C-69.49058594 35.77703125 -68.23117188 35.6790625 -66.93359375 35.578125 C-63.2887963 35.31318645 -59.6513832 35.14292127 -56 35 C-54.42279175 34.90138672 -54.42279175 34.90138672 -52.8137207 34.80078125 C-45.81925619 34.50907568 -45.81925619 34.50907568 -41.94921875 36.828125 C-40.82966797 38.02695313 -40.82966797 38.02695313 -39.6875 39.25 C-38.87925781 40.06855469 -38.07101563 40.88710937 -37.23828125 41.73046875 C-36.49964844 42.47941406 -35.76101562 43.22835937 -35 44 C-33.05050812 45.48254772 -31.09655358 46.73103336 -29 48 C-28.84724609 46.92298828 -28.84724609 46.92298828 -28.69140625 45.82421875 C-27.91945923 42.67101144 -26.65321249 40.55845119 -24.9375 37.8125 C-21.83739215 32.36696449 -21.27786589 28.16488566 -22 22 C-21.34 22 -20.68 22 -20 22 C-19.9175 21.175 -19.835 20.35 -19.75 19.5 C-18.17149404 12.13363887 -14.34069834 6.26440265 -9 1 C-5.92805092 -0.53597454 -3.39755707 -0.2265038 0 0 Z " fill="#060606" transform="translate(260,34)"/>
<path d="M0 0 C3.98066095 1.57724302 5.60667274 2.41000911 8 6 C10.71406645 6.65621318 10.71406645 6.65621318 13.8125 6.9375 C18.5974311 7.62597929 21.68502658 8.22778887 25 12 C26.10445137 15.3133541 26.13304048 17.82695195 26.125 21.3125 C26.12757813 22.42238281 26.13015625 23.53226563 26.1328125 24.67578125 C26.00527335 27.86801125 25.59757773 30.86508827 25 34 C24.34 34 23.68 34 23 34 C22.34 36.97 21.68 39.94 21 43 C20.34 43 19.68 43 19 43 C18.34 44.32 17.68 45.64 17 47 C12.25 46.125 12.25 46.125 10 45 C9.43908133 43.05276939 8.92564665 41.09173579 8.4375 39.125 C7.11520665 34.58124262 7.11520665 34.58124262 3.73828125 31.5390625 C1.48115926 30.82330325 -0.65324006 30.30086666 -3 30 C-3 29.34 -3 28.68 -3 28 C-7.60742865 29.21044132 -7.60742865 29.21044132 -12 31 C-11.97679687 31.80824219 -11.95359375 32.61648437 -11.9296875 33.44921875 C-11.91164063 34.51785156 -11.89359375 35.58648437 -11.875 36.6875 C-11.85179687 37.74324219 -11.82859375 38.79898438 -11.8046875 39.88671875 C-12.00141271 43.02251859 -12.66942346 45.17645373 -14 48 C-14.66 48 -15.32 48 -16 48 C-16.99 50.97 -17.98 53.94 -19 57 C-19.66 57 -20.32 57 -21 57 C-21.99 59.97 -22.98 62.94 -24 66 C-27.88552869 66.40749267 -29.58915749 66.27519221 -32.88671875 64.06640625 C-33.81097656 63.24011719 -34.73523438 62.41382813 -35.6875 61.5625 C-39.46048019 58.12309122 -39.46048019 58.12309122 -44 56 C-42.68 66.56 -41.36 77.12 -40 88 C-34.39 88.33 -28.78 88.66 -23 89 C-23 89.66 -23 90.32 -23 91 C-22.11739502 90.98428955 -21.23479004 90.9685791 -20.32543945 90.95239258 C-17.03599114 90.90112002 -13.74697039 90.86358083 -10.45727539 90.83520508 C-9.03630859 90.8201624 -7.61538787 90.79972296 -6.19458008 90.77368164 C-4.14653114 90.73709653 -2.0990985 90.72022903 -0.05078125 90.70703125 C1.17987061 90.6913208 2.41052246 90.67561035 3.6784668 90.65942383 C7.27783036 91.02848757 9.14506411 91.81663868 12 94 C12.77734375 96.0859375 12.77734375 96.0859375 12.9375 98.375 C13.00839844 99.12523437 13.07929688 99.87546875 13.15234375 100.6484375 C12.97301495 103.41653848 12.14087274 105.48741645 11 108 C9.42412109 108.16435547 9.42412109 108.16435547 7.81640625 108.33203125 C-3.35622573 109.5411021 -3.35622573 109.5411021 -14 113 C-14.495 114.485 -14.495 114.485 -15 116 C-16.828125 117.21875 -16.828125 117.21875 -19.25 118.5 C-24.59023361 121.5438561 -29.0418488 125.24456324 -33.62011719 129.3046875 C-36.08367166 131.47104649 -37.85053122 132.95017707 -41 134 C-41.67347798 135.32990588 -42.33910736 136.66379525 -43 138 C-44.91796875 139.859375 -44.91796875 139.859375 -47.1875 141.75 C-54.99861603 148.55485309 -61.26286471 154.69406488 -62.21875 165.46484375 C-62.2703125 166.26019531 -62.321875 167.05554688 -62.375 167.875 C-62.69862556 171.73828009 -62.69862556 171.73828009 -65.375 174.0625 C-68 175 -68 175 -71 175 C-71.33 176.65 -71.66 178.3 -72 180 C-72.66 179.67 -73.32 179.34 -74 179 C-73.690625 177.824375 -73.690625 177.824375 -73.375 176.625 C-73.25125 175.75875 -73.1275 174.8925 -73 174 C-73.66 173.34 -74.32 172.68 -75 172 C-75.21297511 168.88054106 -75.28020109 165.87095911 -75.25 162.75 C-75.24613281 161.76725098 -75.24226563 160.78450195 -75.23828125 159.77197266 C-75.11086442 147.99830353 -74.40937191 136.24251639 -73.71191406 124.49121094 C-72.50541004 107.69494809 -72.50541004 107.69494809 -74 91 C-75.8253125 91.4021875 -75.8253125 91.4021875 -77.6875 91.8125 C-79.90625 92.08984375 -79.90625 92.08984375 -82 92 C-84.6875 89.875 -84.6875 89.875 -87 87 C-88.299375 85.7625 -88.299375 85.7625 -89.625 84.5 C-92 82 -92 82 -93.4375 79.5 C-95.48988455 76.21618473 -97.98577917 74.42448197 -101 72 C-102.6168802 68.76623961 -102.51846975 65.50066942 -102 62 C-100.56014657 59.41000209 -99.25865459 57.39683105 -97.4375 55.125 C-96.58107484 54.00333377 -95.72563056 52.88091803 -94.87109375 51.7578125 C-94.17234131 50.88793701 -94.17234131 50.88793701 -93.45947266 50.00048828 C-91.90592212 47.96584233 -91.90592212 47.96584233 -90.59912109 45.40185547 C-88.2221738 41.23488921 -86.54765545 38.53885584 -81.90209961 36.92138672 C-78.16881521 36.33737765 -74.52422752 36.05054547 -70.75 35.875 C-68.86087891 35.72804688 -68.86087891 35.72804688 -66.93359375 35.578125 C-63.2887963 35.31318645 -59.6513832 35.14292127 -56 35 C-54.94852783 34.93425781 -53.89705566 34.86851563 -52.8137207 34.80078125 C-45.81925619 34.50907568 -45.81925619 34.50907568 -41.94921875 36.828125 C-40.82966797 38.02695313 -40.82966797 38.02695313 -39.6875 39.25 C-38.87925781 40.06855469 -38.07101563 40.88710937 -37.23828125 41.73046875 C-36.49964844 42.47941406 -35.76101562 43.22835937 -35 44 C-33.05050812 45.48254772 -31.09655358 46.73103336 -29 48 C-28.84724609 46.92298828 -28.84724609 46.92298828 -28.69140625 45.82421875 C-27.91945923 42.67101144 -26.65321249 40.55845119 -24.9375 37.8125 C-21.83739215 32.36696449 -21.27786589 28.16488566 -22 22 C-21.34 22 -20.68 22 -20 22 C-19.9175 21.175 -19.835 20.35 -19.75 19.5 C-18.17149404 12.13363887 -14.34069834 6.26440265 -9 1 C-5.92805092 -0.53597454 -3.39755707 -0.2265038 0 0 Z " fill="#191919" transform="translate(260,34)"/>
<path d="M0 0 C3.98066095 1.57724302 5.60667274 2.41000911 8 6 C10.71406645 6.65621318 10.71406645 6.65621318 13.8125 6.9375 C18.5974311 7.62597929 21.68502658 8.22778887 25 12 C26.10445137 15.3133541 26.13304048 17.82695195 26.125 21.3125 C26.12886719 22.97732422 26.12886719 22.97732422 26.1328125 24.67578125 C26.00527335 27.86801125 25.59757773 30.86508827 25 34 C24.34 34 23.68 34 23 34 C22.34 36.97 21.68 39.94 21 43 C20.34 43 19.68 43 19 43 C18.34 44.32 17.68 45.64 17 47 C12.25 46.125 12.25 46.125 10 45 C9.43908133 43.05276939 8.92564665 41.09173579 8.4375 39.125 C7.11520665 34.58124262 7.11520665 34.58124262 3.73828125 31.5390625 C1.48115926 30.82330325 -0.65324006 30.30086666 -3 30 C-3 29.34 -3 28.68 -3 28 C-3.9075 28.33 -4.815 28.66 -5.75 29 C-11.06183796 30.55521854 -16.52020695 30.16196433 -22 30 C-22 27.36 -22 24.72 -22 22 C-21.34 22 -20.68 22 -20 22 C-19.9175 21.175 -19.835 20.35 -19.75 19.5 C-18.17149404 12.13363887 -14.34069834 6.26440265 -9 1 C-5.92805092 -0.53597454 -3.39755707 -0.2265038 0 0 Z " fill="#0E0E0E" transform="translate(260,34)"/>
<path d="M0 0 C2.16966799 0.00534401 4.33912746 0.0000337 6.50878906 -0.00634766 C14.64962517 -0.00982694 22.70240592 0.27913149 30.80566406 1.13037109 C27.34631317 4.9104565 24.71140823 5.74195293 19.80566406 7.13037109 C19.47566406 8.12037109 19.14566406 9.11037109 18.80566406 10.13037109 C16.97753906 11.34912109 16.97753906 11.34912109 14.55566406 12.63037109 C9.21543045 15.67422719 4.76381526 19.37493433 0.18554688 23.43505859 C-2.2780076 25.60141758 -4.04486716 27.08054817 -7.19433594 28.13037109 C-7.86781391 29.46027697 -8.5334433 30.79416634 -9.19433594 32.13037109 C-11.11230469 33.98974609 -11.11230469 33.98974609 -13.38183594 35.88037109 C-21.21012519 42.46724293 -21.21012519 42.46724293 -26.19433594 51.13037109 C-27.67933594 51.62537109 -27.67933594 51.62537109 -29.19433594 52.13037109 C-28.93349822 46.75491199 -28.66685503 41.37978465 -28.39477539 36.00488281 C-28.3029994 34.17553563 -28.21282362 32.34610745 -28.12426758 30.51660156 C-27.99686383 27.89023373 -27.86374915 25.26420888 -27.72949219 22.63818359 C-27.69090591 21.81730255 -27.65231964 20.99642151 -27.61256409 20.15066528 C-27.30820764 14.35811451 -27.30820764 14.35811451 -26.19433594 12.13037109 C-25.88388068 9.53893204 -25.68459681 6.94665378 -25.47558594 4.34521484 C-25.19433594 2.13037109 -25.19433594 2.13037109 -24.19433594 1.13037109 C-16.25888686 -0.31800136 -8.03743569 -0.02350127 0 0 Z " fill="#F8F8F8" transform="translate(226.1943359375,139.86962890625)"/>
<path d="M0 0 C3.45100443 1.93375248 5.66945644 3.93753856 6.875 7.8125 C6.91625 8.534375 6.9575 9.25625 7 10 C7.66 10 8.32 10 9 10 C9 14.29 9 18.58 9 23 C8.34 23 7.68 23 7 23 C6.9071875 23.86625 6.9071875 23.86625 6.8125 24.75 C5.59108071 28.13239188 4.09851777 29.1925313 1 31 C-2.84213537 31.77125738 -6.30988412 31.82573229 -9.87890625 30.08203125 C-12.81260911 27.89765972 -13.94398571 26.21205408 -14.875 22.6875 C-14.91625 21.800625 -14.9575 20.91375 -15 20 C-15.66 20 -16.32 20 -17 20 C-17 15.71 -17 11.42 -17 7 C-16.34 7 -15.68 7 -15 7 C-14.773125 6.236875 -14.54625 5.47375 -14.3125 4.6875 C-11.32643681 -1.42681986 -6.10196535 -1.95453578 0 0 Z " fill="#1D1D1D" transform="translate(196,36)"/>
<path d="M0 0 C0.99 0.33 1.98 0.66 3 1 C3.33772739 3.70784994 3.67030687 6.41616996 4 9.125 C4.09539062 9.88554688 4.19078125 10.64609375 4.2890625 11.4296875 C4.79830188 15.64909952 5.10888068 19.74004344 5 24 C1 20 -3 16 -7 12 C-4.96248559 7.72121973 -2.68399924 3.88717131 0 0 Z " fill="#F0F0F0" transform="translate(179,89)"/>
<path d="M0 0 C1.65 0.33 3.3 0.66 5 1 C5 2.65 5 4.3 5 6 C5.99 6 6.98 6 8 6 C8.33 7.98 8.66 9.96 9 12 C5.98968256 12.93423645 5.13349732 13.04449911 2 12 C2 12.66 2 13.32 2 14 C0.02 14 -1.96 14 -4 14 C-3.21824485 9.15311808 -1.60155722 4.6233633 0 0 Z " fill="#2F2F2F" transform="translate(272,47)"/>
<path d="M0 0 C0.99 0 1.98 0 3 0 C3 1.65 3 3.3 3 5 C3.66 5 4.32 5 5 5 C4.67 6.65 4.34 8.3 4 10 C3.01 10 2.02 10 1 10 C0.67 10.66 0.34 11.32 0 12 C-1.32 11.67 -2.64 11.34 -4 11 C-4.33 8.36 -4.66 5.72 -5 3 C-4.360625 2.87625 -3.72125 2.7525 -3.0625 2.625 C-2.0415625 2.315625 -2.0415625 2.315625 -1 2 C-0.67 1.34 -0.34 0.68 0 0 Z " fill="#D2D2D3" transform="translate(257,41)"/>
<path d="M0 0 C1.67542976 0.28604898 3.34385343 0.61781233 5 1 C5 1.66 5 2.32 5 3 C6.98 3 8.96 3 11 3 C11 3.33 11 3.66 11 4 C10.41992188 4.06316406 9.83984375 4.12632813 9.2421875 4.19140625 C3.3262825 5.1188171 0.59835273 6.75557496 -3.00390625 11.5390625 C-3.33261719 12.02117188 -3.66132813 12.50328125 -4 13 C-5.20545511 9.38363467 -4.7015245 8.7128829 -3.125 5.375 C-2.75632813 4.57835937 -2.38765625 3.78171875 -2.0078125 2.9609375 C-1 1 -1 1 0 0 Z " fill="#DDDDDE" transform="translate(249,30)"/>
<path d="M0 0 C2 1 2 1 2.87109375 3.2421875 C4.16611501 6.40580345 5.86460242 8.51624316 8.0625 11.125 C11.8951049 15.68531469 11.8951049 15.68531469 13 19 C11.0625 18.25 11.0625 18.25 9 17 C8.63837971 15.67405895 8.30271961 14.34061543 8 13 C7.01 12.67 6.02 12.34 5 12 C4.38125 11.030625 3.7625 10.06125 3.125 9.0625 C0.87590294 5.82115423 -0.28485832 5.0319838 -4 4 C-2.68 2.68 -1.36 1.36 0 0 Z " fill="#0E0E0E" transform="translate(239,152)"/>
<path d="M0 0 C0 0.66 0 1.32 0 2 C4.95 2 9.9 2 15 2 C15 2.33 15 2.66 15 3 C9.52938802 3.67777494 4.07457968 4.11572278 -1.4375 4.25 C-2.92056641 4.28867188 -2.92056641 4.28867188 -4.43359375 4.328125 C-7.36968205 3.95273471 -8.21652629 3.29735596 -10 1 C-2.25 0 -2.25 0 0 0 Z " fill="#A5A5A5" transform="translate(199,66)"/>
<path d="M0 0 C0 0.99 0 1.98 0 3 C-1.40579993 4.20497137 -2.8200978 5.40184498 -4.28125 6.5390625 C-6.11935987 8.10145589 -7.58871215 9.76734581 -9.125 11.625 C-11.21571462 14.15036318 -13.2323279 16.19036825 -16 18 C-16.66 17.67 -17.32 17.34 -18 17 C-16.71451591 15.66070495 -15.42141845 14.32871357 -14.125 13 C-13.40570313 12.2575 -12.68640625 11.515 -11.9453125 10.75 C-10 9 -10 9 -8 9 C-7.79375 8.443125 -7.5875 7.88625 -7.375 7.3125 C-5.44999226 4.07498698 -2.96149098 2.31768859 0 0 Z " fill="#343434" transform="translate(115,227)"/>
<path d="M0 0 C2.82858266 3.36736031 4.4998253 6.87451958 6 11 C5.67 11.99 5.34 12.98 5 14 C4.67 13.01 4.34 12.02 4 11 C3.01 10.67 2.02 10.34 1 10 C-0.6875 6.4375 -0.6875 6.4375 -2 3 C-1.34 3 -0.68 3 0 3 C0 2.01 0 1.02 0 0 Z " fill="#424242" transform="translate(308,218)"/>
<path d="M0 0 C0.99 0.33 1.98 0.66 3 1 C3 4.3 3 7.6 3 11 C2.67 11 2.34 11 2 11 C2 9.02 2 7.04 2 5 C-0.31 6.32 -2.62 7.64 -5 9 C-3.50163895 5.88801935 -1.80066242 2.9465385 0 0 Z " fill="#BEBEBE" transform="translate(179,89)"/>
<path d="M0 0 C2 1 4 2 6 3 C5.67 3.66 5.34 4.32 5 5 C4.01 4.67 3.02 4.34 2 4 C2.33 7.63 2.66 11.26 3 15 C2.34 15 1.68 15 1 15 C0.67 10.05 0.34 5.1 0 0 Z " fill="#868686" transform="translate(214,86)"/>
<path d="M0 0 C3.29696105 1.09898702 4.04670589 1.94597387 6.1875 4.5625 C6.71730469 5.20316406 7.24710937 5.84382812 7.79296875 6.50390625 C8.19128906 6.99761719 8.58960938 7.49132812 9 8 C7.02 8.99 7.02 8.99 5 10 C4.71125 9.360625 4.4225 8.72125 4.125 8.0625 C3.17176549 5.84793921 3.17176549 5.84793921 1 5 C0.375 2.4375 0.375 2.4375 0 0 Z " fill="#A6A6A6" transform="translate(418,245)"/>
<path d="M0 0 C1.8125 0.1875 1.8125 0.1875 4 1 C5.8125 3.4375 5.8125 3.4375 7 6 C6.67 6.66 6.34 7.32 6 8 C3.69 6.02 1.38 4.04 -1 2 C-0.67 1.34 -0.34 0.68 0 0 Z " fill="#474747" transform="translate(356,251)"/>
<path d="M0 0 C1.65 1.65 3.3 3.3 5 5 C4.67 5.99 4.34 6.98 4 8 C1.03 6.02 -1.94 4.04 -5 2 C-4.34 1.67 -3.68 1.34 -3 1 C-2.34 1.33 -1.68 1.66 -1 2 C-0.67 1.34 -0.34 0.68 0 0 Z " fill="#ACACAC" transform="translate(388,232)"/>
<path d="M0 0 C0.33 0 0.66 0 1 0 C1.33 6.27 1.66 12.54 2 19 C1.01 19.33 0.02 19.66 -1 20 C-0.67 13.4 -0.34 6.8 0 0 Z " fill="#A8A8A8" transform="translate(198,172)"/>
<path d="M0 0 C6.27 0.33 12.54 0.66 19 1 C18.01 2.485 18.01 2.485 17 4 C16.34 4 15.68 4 15 4 C15 3.34 15 2.68 15 2 C14.25234375 2.02320313 13.5046875 2.04640625 12.734375 2.0703125 C11.74953125 2.08835938 10.7646875 2.10640625 9.75 2.125 C8.77546875 2.14820313 7.8009375 2.17140625 6.796875 2.1953125 C4 2 4 2 0 0 Z " fill="#CCCCCC" transform="translate(238,140)"/>
<path d="M0 0 C2.475 0.495 2.475 0.495 5 1 C4.67 2.32 4.34 3.64 4 5 C2.68 5.33 1.36 5.66 0 6 C0 4.02 0 2.04 0 0 Z " fill="#C4C4C5" transform="translate(272,47)"/>
<path d="M0 0 C0.66 0.33 1.32 0.66 2 1 C-1.3 4.3 -4.6 7.6 -8 11 C-8 7.45459812 -7.40614728 6.93992636 -5.125 4.375 C-4.59132812 3.76398437 -4.05765625 3.15296875 -3.5078125 2.5234375 C-2 1 -2 1 0 0 Z " fill="#2E2E2E" transform="translate(253,34)"/>
<path d="M0 0 C1.98 0.495 1.98 0.495 4 1 C3.67 2.65 3.34 4.3 3 6 C1.68 5.67 0.36 5.34 -1 5 C-0.67 3.35 -0.34 1.7 0 0 Z " fill="#C9C9CA" transform="translate(277,54)"/>
<path d="M0 0 C1.32 0 2.64 0 4 0 C4 1.65 4 3.3 4 5 C2.35 5 0.7 5 -1 5 C-0.67 3.35 -0.34 1.7 0 0 Z " fill="#CECECF" transform="translate(269,56)"/>
<path d="M0 0 C0 3.77910478 -0.99703962 4.46106101 -3.5 7.1875 C-4.1496875 7.90292969 -4.799375 8.61835938 -5.46875 9.35546875 C-5.9740625 9.89816406 -6.479375 10.44085938 -7 11 C-7.66 10.67 -8.32 10.34 -9 10 C-7.625 8 -7.625 8 -6 6 C-5.34 6 -4.68 6 -4 6 C-3.71125 5.38125 -3.4225 4.7625 -3.125 4.125 C-2 2 -2 2 0 0 Z " fill="#424242" transform="translate(211,176)"/>
<path d="M0 0 C0.33 0.66 0.66 1.32 1 2 C1.66 2.33 2.32 2.66 3 3 C1.25 4.5625 1.25 4.5625 -1 6 C-3.25 5.6875 -3.25 5.6875 -5 5 C-3.35 3.35 -1.7 1.7 0 0 Z " fill="#383838" transform="translate(31,307)"/>
<path d="M0 0 C2 1 2 1 3.125 4.0625 C3.41375 5.031875 3.7025 6.00125 4 7 C1.23723823 6.47731534 -1.3260876 5.89130413 -4 5 C-3.67 4.34 -3.34 3.68 -3 3 C-1.02 3.495 -1.02 3.495 1 4 C0.67 2.68 0.34 1.36 0 0 Z " fill="#707070" transform="translate(199,263)"/>
<path d="M0 0 C0.66 0.33 1.32 0.66 2 1 C2.73075648 3.3140622 3.40138258 5.64828869 4 8 C3.13375 7.319375 3.13375 7.319375 2.25 6.625 C0.2199667 5.15886484 -1.73539843 4.05142216 -4 3 C-2.68 2.01 -1.36 1.02 0 0 Z " fill="#292929" transform="translate(239,152)"/>
<path d="M0 0 C-1.15173355 2.46800047 -2.04783565 4.04783565 -4 6 C-4.99 5.67 -5.98 5.34 -7 5 C-2.25 0 -2.25 0 0 0 Z " fill="#373737" transform="translate(228,162)"/>
</svg>
