<svg version="1.1" id="Layer_1" xmlns="http://www.w3.org/2000/svg" xmlns:xlink="http://www.w3.org/1999/xlink" x="0px" y="0px"
	 width="100%" viewBox="0 0 2048 2048" enable-background="new 0 0 2048 2048" xml:space="preserve">
<path fill="#F7DF1E" opacity="1.000000" stroke="none" 
	d="
M1891.000000,2049.000000 
	C1260.666626,2049.000000 630.833313,2049.000000 1.000000,2049.000000 
	C1.000000,1366.333374 1.000000,683.666687 1.000000,1.000000 
	C683.666687,1.000000 1366.333374,1.000000 2049.000000,1.000000 
	C2049.000000,683.666687 2049.000000,1366.333374 2049.000000,2049.000000 
	C1996.500000,2049.000000 1944.000000,2049.000000 1891.000000,2049.000000 
M1265.420898,1760.081665 
	C1277.438843,1772.309082 1288.744751,1785.347656 1301.596558,1796.624878 
	C1360.588501,1848.390381 1430.544922,1875.174683 1507.603516,1884.830444 
	C1548.257324,1889.924561 1589.004272,1890.040283 1629.749512,1885.125122 
	C1672.213257,1880.002686 1713.076538,1869.354614 1751.319702,1849.911377 
	C1813.907227,1818.090820 1857.924438,1770.027100 1878.463745,1702.078491 
	C1891.713989,1658.243042 1892.534180,1613.555298 1886.192627,1568.496460 
	C1878.173218,1511.513916 1853.427612,1463.194214 1811.652588,1423.581299 
	C1779.308105,1392.910645 1742.092896,1369.261108 1702.204590,1350.094971 
	C1661.925415,1330.741211 1620.769531,1313.211304 1579.983887,1294.913086 
	C1555.550781,1283.951660 1531.124146,1273.007935 1508.914307,1257.771118 
	C1481.330200,1238.847290 1466.604614,1213.291626 1467.758179,1179.302612 
	C1468.909180,1145.383545 1484.816040,1121.063721 1515.612793,1107.072754 
	C1540.409302,1095.807739 1566.447266,1096.191162 1592.531250,1101.576172 
	C1624.317017,1108.138428 1647.560425,1127.293701 1665.961670,1153.034546 
	C1672.229614,1161.802368 1677.853271,1171.030762 1684.018921,1180.426147 
	C1733.730835,1148.504883 1783.503174,1116.544922 1833.960571,1084.145142 
	C1825.767090,1071.741333 1818.273560,1059.547485 1809.952637,1047.947021 
	C1773.981689,997.797729 1727.349731,962.181274 1667.692261,944.528381 
	C1636.496582,935.297363 1604.540161,931.390442 1572.119141,930.536499 
	C1521.400635,929.200806 1472.122681,936.169434 1425.491943,957.018494 
	C1361.807129,985.492554 1316.401855,1031.593872 1292.494141,1097.689087 
	C1276.908569,1140.776855 1275.165771,1185.199097 1280.859741,1230.253296 
	C1289.626099,1299.618164 1322.016235,1355.543213 1376.282104,1399.203003 
	C1409.593262,1426.003418 1446.638428,1446.530396 1485.437134,1463.986572 
	C1524.692139,1481.648193 1564.332153,1498.454956 1603.579712,1516.132812 
	C1624.982788,1525.772949 1645.725952,1536.749634 1663.980347,1551.857300 
	C1689.216553,1572.743408 1699.969849,1599.754028 1696.697510,1631.976562 
	C1693.670898,1661.778687 1676.887573,1682.904297 1651.617676,1697.704590 
	C1629.431396,1710.698730 1605.016724,1716.018311 1579.626709,1717.442993 
	C1547.648438,1719.237549 1516.487549,1715.340332 1486.576294,1703.396484 
	C1451.051636,1689.211304 1423.274170,1665.111816 1400.267944,1635.156616 
	C1391.874634,1624.227783 1384.309326,1612.663208 1376.288696,1601.278687 
	C1324.480347,1631.378052 1272.595703,1661.521851 1220.783936,1691.623291 
	C1225.771973,1705.303955 1246.937500,1737.736206 1265.420898,1760.081665 
M1116.232300,983.500122 
	C1116.232300,969.563049 1116.232300,955.625916 1116.232300,941.512817 
	C1051.864990,941.512817 988.122742,941.512817 923.922363,941.512817 
	C923.922363,943.732971 923.922241,945.692932 923.922241,947.652893 
	C923.922241,1059.645630 923.928345,1171.638306 923.920654,1283.630981 
	C923.913452,1389.290771 923.953918,1494.950562 923.816772,1600.610107 
	C923.793396,1618.632324 921.938354,1636.518433 916.987183,1653.958374 
	C908.830688,1682.688599 892.051758,1703.538452 862.344482,1711.447388 
	C851.664490,1714.290649 840.428650,1715.564453 829.361328,1716.339600 
	C792.657898,1718.910156 761.674683,1706.895386 737.266785,1678.869751 
	C723.402954,1662.950928 712.541138,1645.038330 702.129517,1626.805420 
	C700.416382,1623.805420 698.646057,1620.838013 696.833984,1617.739014 
	C644.509521,1649.415771 592.576355,1680.855713 540.606567,1712.317871 
	C540.851379,1713.237671 540.921509,1713.910522 541.198486,1714.483154 
	C567.017883,1767.865112 603.479065,1811.909424 654.425903,1843.160034 
	C692.937134,1866.782593 734.978149,1880.098145 779.682922,1885.248779 
	C832.674255,1891.354004 885.180176,1889.021362 936.559570,1873.836182 
	C1008.520325,1852.568115 1061.138184,1808.682251 1090.835693,1738.994995 
	C1109.130249,1696.065918 1116.076904,1650.811035 1116.113037,1604.459717 
	C1116.274048,1397.806641 1116.213013,1191.153442 1116.232300,983.500122 
z"/>
<path fill="#000000" opacity="1.000000" stroke="none" 
	d="
M1265.196289,1759.805908 
	C1246.937500,1737.736206 1225.771973,1705.303955 1220.783936,1691.623291 
	C1272.595703,1661.521851 1324.480347,1631.378052 1376.288696,1601.278687 
	C1384.309326,1612.663208 1391.874634,1624.227783 1400.267944,1635.156616 
	C1423.274170,1665.111816 1451.051636,1689.211304 1486.576294,1703.396484 
	C1516.487549,1715.340332 1547.648438,1719.237549 1579.626709,1717.442993 
	C1605.016724,1716.018311 1629.431396,1710.698730 1651.617676,1697.704590 
	C1676.887573,1682.904297 1693.670898,1661.778687 1696.697510,1631.976562 
	C1699.969849,1599.754028 1689.216553,1572.743408 1663.980347,1551.857300 
	C1645.725952,1536.749634 1624.982788,1525.772949 1603.579712,1516.132812 
	C1564.332153,1498.454956 1524.692139,1481.648193 1485.437134,1463.986572 
	C1446.638428,1446.530396 1409.593262,1426.003418 1376.282104,1399.203003 
	C1322.016235,1355.543213 1289.626099,1299.618164 1280.859741,1230.253296 
	C1275.165771,1185.199097 1276.908569,1140.776855 1292.494141,1097.689087 
	C1316.401855,1031.593872 1361.807129,985.492554 1425.491943,957.018494 
	C1472.122681,936.169434 1521.400635,929.200806 1572.119141,930.536499 
	C1604.540161,931.390442 1636.496582,935.297363 1667.692261,944.528381 
	C1727.349731,962.181274 1773.981689,997.797729 1809.952637,1047.947021 
	C1818.273560,1059.547485 1825.767090,1071.741333 1833.960571,1084.145142 
	C1783.503174,1116.544922 1733.730835,1148.504883 1684.018921,1180.426147 
	C1677.853271,1171.030762 1672.229614,1161.802368 1665.961670,1153.034546 
	C1647.560425,1127.293701 1624.317017,1108.138428 1592.531250,1101.576172 
	C1566.447266,1096.191162 1540.409302,1095.807739 1515.612793,1107.072754 
	C1484.816040,1121.063721 1468.909180,1145.383545 1467.758179,1179.302612 
	C1466.604614,1213.291626 1481.330200,1238.847290 1508.914307,1257.771118 
	C1531.124146,1273.007935 1555.550781,1283.951660 1579.983887,1294.913086 
	C1620.769531,1313.211304 1661.925415,1330.741211 1702.204590,1350.094971 
	C1742.092896,1369.261108 1779.308105,1392.910645 1811.652588,1423.581299 
	C1853.427612,1463.194214 1878.173218,1511.513916 1886.192627,1568.496460 
	C1892.534180,1613.555298 1891.713989,1658.243042 1878.463745,1702.078491 
	C1857.924438,1770.027100 1813.907227,1818.090820 1751.319702,1849.911377 
	C1713.076538,1869.354614 1672.213257,1880.002686 1629.749512,1885.125122 
	C1589.004272,1890.040283 1548.257324,1889.924561 1507.603516,1884.830444 
	C1430.544922,1875.174683 1360.588501,1848.390381 1301.596558,1796.624878 
	C1288.744751,1785.347656 1277.438843,1772.309082 1265.196289,1759.805908 
z"/>
<path fill="#000000" opacity="1.000000" stroke="none" 
	d="
M1116.232300,984.000183 
	C1116.213013,1191.153442 1116.274048,1397.806641 1116.113037,1604.459717 
	C1116.076904,1650.811035 1109.130249,1696.065918 1090.835693,1738.994995 
	C1061.138184,1808.682251 1008.520325,1852.568115 936.559570,1873.836182 
	C885.180176,1889.021362 832.674255,1891.354004 779.682922,1885.248779 
	C734.978149,1880.098145 692.937134,1866.782593 654.425903,1843.160034 
	C603.479065,1811.909424 567.017883,1767.865112 541.198486,1714.483154 
	C540.921509,1713.910522 540.851379,1713.237671 540.606567,1712.317871 
	C592.576355,1680.855713 644.509521,1649.415771 696.833984,1617.739014 
	C698.646057,1620.838013 700.416382,1623.805420 702.129517,1626.805420 
	C712.541138,1645.038330 723.402954,1662.950928 737.266785,1678.869751 
	C761.674683,1706.895386 792.657898,1718.910156 829.361328,1716.339600 
	C840.428650,1715.564453 851.664490,1714.290649 862.344482,1711.447388 
	C892.051758,1703.538452 908.830688,1682.688599 916.987183,1653.958374 
	C921.938354,1636.518433 923.793396,1618.632324 923.816772,1600.610107 
	C923.953918,1494.950562 923.913452,1389.290771 923.920654,1283.630981 
	C923.928345,1171.638306 923.922241,1059.645630 923.922241,947.652893 
	C923.922241,945.692932 923.922363,943.732971 923.922363,941.512817 
	C988.122742,941.512817 1051.864990,941.512817 1116.232300,941.512817 
	C1116.232300,955.625916 1116.232300,969.563049 1116.232300,984.000183 
z"/>
</svg>